%TF.GenerationSoftware,KiCad,Pcbnew,6.0.7-f9a2dced07~116~ubuntu20.04.1*%
%TF.CreationDate,2022-10-16T19:02:03+08:00*%
%TF.ProjectId,Zeal-SNES-Adapter,5a65616c-2d53-44e4-9553-2d4164617074,rev?*%
%TF.SameCoordinates,Original*%
%TF.FileFunction,Copper,L2,Bot*%
%TF.FilePolarity,Positive*%
%FSLAX46Y46*%
G04 Gerber Fmt 4.6, Leading zero omitted, Abs format (unit mm)*
G04 Created by KiCad (PCBNEW 6.0.7-f9a2dced07~116~ubuntu20.04.1) date 2022-10-16 19:02:03*
%MOMM*%
%LPD*%
G01*
G04 APERTURE LIST*
%TA.AperFunction,ComponentPad*%
%ADD10C,1.600000*%
%TD*%
%TA.AperFunction,ComponentPad*%
%ADD11O,1.600000X1.600000*%
%TD*%
%TA.AperFunction,ComponentPad*%
%ADD12C,3.000000*%
%TD*%
%TA.AperFunction,ComponentPad*%
%ADD13C,4.400000*%
%TD*%
%TA.AperFunction,ComponentPad*%
%ADD14R,1.800000X1.800000*%
%TD*%
%TA.AperFunction,ComponentPad*%
%ADD15C,1.800000*%
%TD*%
%TA.AperFunction,ComponentPad*%
%ADD16R,1.700000X1.700000*%
%TD*%
%TA.AperFunction,ComponentPad*%
%ADD17O,1.700000X1.700000*%
%TD*%
%TA.AperFunction,ViaPad*%
%ADD18C,0.800000*%
%TD*%
%TA.AperFunction,Conductor*%
%ADD19C,0.250000*%
%TD*%
%TA.AperFunction,Conductor*%
%ADD20C,0.500000*%
%TD*%
G04 APERTURE END LIST*
D10*
%TO.P,R3,1*%
%TO.N,/DATA_P1*%
X27300000Y-77280000D03*
D11*
%TO.P,R3,2*%
%TO.N,VCC*%
X27300000Y-67120000D03*
%TD*%
D12*
%TO.P,J3,1,5V*%
%TO.N,VCC*%
X50100000Y-29500000D03*
%TO.P,J3,2,Clock*%
%TO.N,/CLOCK*%
X50100000Y-33500000D03*
%TO.P,J3,3,Latch*%
%TO.N,/LATCH*%
X50100000Y-37500000D03*
%TO.P,J3,4,Data*%
%TO.N,/DATA_P2*%
X50100000Y-41500000D03*
%TO.P,J3,5,N/C*%
%TO.N,unconnected-(J3-Pad5)*%
X50100000Y-48000000D03*
%TO.P,J3,6,N/C*%
%TO.N,unconnected-(J3-Pad6)*%
X50100000Y-52000000D03*
%TO.P,J3,7,GND*%
%TO.N,GND*%
X50100000Y-56000000D03*
%TD*%
D13*
%TO.P,H3,1,1*%
%TO.N,GND*%
X61837000Y-80550000D03*
%TD*%
D10*
%TO.P,R2,1*%
%TO.N,/DATA_P2*%
X24100000Y-77280000D03*
D11*
%TO.P,R2,2*%
%TO.N,VCC*%
X24100000Y-67120000D03*
%TD*%
D14*
%TO.P,D1,1,K*%
%TO.N,GND*%
X61000000Y-69500000D03*
D15*
%TO.P,D1,2,A*%
%TO.N,Net-(D1-Pad2)*%
X61000000Y-72040000D03*
%TD*%
D13*
%TO.P,H4,1,1*%
%TO.N,GND*%
X21250000Y-80550000D03*
%TD*%
D16*
%TO.P,J1,1,Pin_1*%
%TO.N,VCC*%
X50040000Y-79875000D03*
D17*
%TO.P,J1,2,Pin_2*%
%TO.N,GND*%
X50040000Y-82415000D03*
%TO.P,J1,3,Pin_3*%
%TO.N,/PIN3*%
X47500000Y-79875000D03*
%TO.P,J1,4,Pin_4*%
%TO.N,/PIN4*%
X47500000Y-82415000D03*
%TO.P,J1,5,Pin_5*%
%TO.N,/PIN5*%
X44960000Y-79875000D03*
%TO.P,J1,6,Pin_6*%
%TO.N,/PIN6*%
X44960000Y-82415000D03*
%TO.P,J1,7,Pin_7*%
%TO.N,/DATA_P1*%
X42420000Y-79875000D03*
%TO.P,J1,8,Pin_8*%
%TO.N,/PIN8*%
X42420000Y-82415000D03*
%TO.P,J1,9,Pin_9*%
%TO.N,/DATA_P2*%
X39880000Y-79875000D03*
%TO.P,J1,10,Pin_10*%
%TO.N,/PIN10*%
X39880000Y-82415000D03*
%TO.P,J1,11,Pin_11*%
%TO.N,/LATCH*%
X37340000Y-79875000D03*
%TO.P,J1,12,Pin_12*%
%TO.N,/PIN12*%
X37340000Y-82415000D03*
%TO.P,J1,13,Pin_13*%
%TO.N,/CLOCK*%
X34800000Y-79875000D03*
%TO.P,J1,14,Pin_14*%
%TO.N,/PIN14*%
X34800000Y-82415000D03*
%TO.P,J1,15,Pin_15*%
%TO.N,/PIN15*%
X32260000Y-79875000D03*
%TO.P,J1,16,Pin_16*%
%TO.N,/PIN16*%
X32260000Y-82415000D03*
%TD*%
D10*
%TO.P,R5,1*%
%TO.N,VCC*%
X55800000Y-80980000D03*
D11*
%TO.P,R5,2*%
%TO.N,Net-(D1-Pad2)*%
X55800000Y-70820000D03*
%TD*%
D13*
%TO.P,H1,1,1*%
%TO.N,GND*%
X21250000Y-17025000D03*
%TD*%
D10*
%TO.P,R4,1*%
%TO.N,/LATCH*%
X38080000Y-16100000D03*
D11*
%TO.P,R4,2*%
%TO.N,GND*%
X27920000Y-16100000D03*
%TD*%
D16*
%TO.P,J2,1,Pin_1*%
%TO.N,VCC*%
X50000000Y-71250000D03*
D17*
%TO.P,J2,2,Pin_2*%
%TO.N,GND*%
X50000000Y-73790000D03*
%TO.P,J2,3,Pin_3*%
%TO.N,/PIN3*%
X47460000Y-71250000D03*
%TO.P,J2,4,Pin_4*%
%TO.N,/PIN4*%
X47460000Y-73790000D03*
%TO.P,J2,5,Pin_5*%
%TO.N,/PIN5*%
X44920000Y-71250000D03*
%TO.P,J2,6,Pin_6*%
%TO.N,/PIN6*%
X44920000Y-73790000D03*
%TO.P,J2,7,Pin_7*%
%TO.N,/DATA_P1*%
X42380000Y-71250000D03*
%TO.P,J2,8,Pin_8*%
%TO.N,/PIN8*%
X42380000Y-73790000D03*
%TO.P,J2,9,Pin_9*%
%TO.N,/DATA_P2*%
X39840000Y-71250000D03*
%TO.P,J2,10,Pin_10*%
%TO.N,/PIN10*%
X39840000Y-73790000D03*
%TO.P,J2,11,Pin_11*%
%TO.N,/LATCH*%
X37300000Y-71250000D03*
%TO.P,J2,12,Pin_12*%
%TO.N,/PIN12*%
X37300000Y-73790000D03*
%TO.P,J2,13,Pin_13*%
%TO.N,/CLOCK*%
X34760000Y-71250000D03*
%TO.P,J2,14,Pin_14*%
%TO.N,/PIN14*%
X34760000Y-73790000D03*
%TO.P,J2,15,Pin_15*%
%TO.N,/PIN15*%
X32220000Y-71250000D03*
%TO.P,J2,16,Pin_16*%
%TO.N,/PIN16*%
X32220000Y-73790000D03*
%TD*%
D12*
%TO.P,J4,1,5V*%
%TO.N,VCC*%
X32975000Y-55975000D03*
%TO.P,J4,2,Clock*%
%TO.N,/CLOCK*%
X32975000Y-51975000D03*
%TO.P,J4,3,Latch*%
%TO.N,/LATCH*%
X32975000Y-47975000D03*
%TO.P,J4,4,Data*%
%TO.N,/DATA_P1*%
X32975000Y-43975000D03*
%TO.P,J4,5,N/C*%
%TO.N,unconnected-(J4-Pad5)*%
X32975000Y-37475000D03*
%TO.P,J4,6,N/C*%
%TO.N,unconnected-(J4-Pad6)*%
X32975000Y-33475000D03*
%TO.P,J4,7,GND*%
%TO.N,GND*%
X32975000Y-29475000D03*
%TD*%
D10*
%TO.P,R1,1*%
%TO.N,/CLOCK*%
X44400000Y-16100000D03*
D11*
%TO.P,R1,2*%
%TO.N,VCC*%
X54560000Y-16100000D03*
%TD*%
D13*
%TO.P,H2,1,1*%
%TO.N,GND*%
X61856000Y-17025000D03*
%TD*%
D18*
%TO.N,/DATA_P1*%
X41700000Y-46900000D03*
%TO.N,/DATA_P2*%
X42400002Y-43300000D03*
%TO.N,/LATCH*%
X38700000Y-48500000D03*
X39900000Y-37600000D03*
%TO.N,/CLOCK*%
X37500000Y-34100000D03*
X37500000Y-52000000D03*
%TD*%
D19*
%TO.N,VCC*%
X50100000Y-21080000D02*
X55080000Y-16100000D01*
X24100000Y-67120000D02*
X24100000Y-64850000D01*
D20*
X55900000Y-64000000D02*
X55900000Y-35300000D01*
X55900000Y-35300000D02*
X50100000Y-29500000D01*
D19*
X24100000Y-64850000D02*
X32975000Y-55975000D01*
D20*
X50000000Y-71250000D02*
X50000000Y-69900000D01*
D19*
X50100000Y-29500000D02*
X50100000Y-21080000D01*
X27300000Y-67120000D02*
X27300000Y-61650000D01*
D20*
X50000000Y-69900000D02*
X55900000Y-64000000D01*
D19*
X27300000Y-61650000D02*
X32975000Y-55975000D01*
%TO.N,/PIN3*%
X46285000Y-72425000D02*
X47460000Y-71250000D01*
X47500000Y-79875000D02*
X47500000Y-75491701D01*
X47500000Y-75491701D02*
X46285000Y-74276701D01*
X46285000Y-74276701D02*
X46285000Y-72425000D01*
%TO.N,/PIN4*%
X48675000Y-81240000D02*
X47500000Y-82415000D01*
X47460000Y-73790000D02*
X48675000Y-75005000D01*
X48675000Y-75005000D02*
X48675000Y-81240000D01*
%TO.N,/PIN5*%
X44920000Y-71250000D02*
X43745000Y-72425000D01*
X43745000Y-72425000D02*
X43745000Y-78660000D01*
X43745000Y-78660000D02*
X44960000Y-79875000D01*
%TO.N,/PIN6*%
X46135000Y-81240000D02*
X44960000Y-82415000D01*
X44920000Y-73790000D02*
X46135000Y-75005000D01*
X46135000Y-75005000D02*
X46135000Y-81240000D01*
%TO.N,/DATA_P1*%
X41205000Y-72425000D02*
X41205000Y-78660000D01*
X41205000Y-78660000D02*
X42420000Y-79875000D01*
X41700000Y-46900000D02*
X42380000Y-47580000D01*
X42380000Y-71250000D02*
X41205000Y-72425000D01*
X42380000Y-47580000D02*
X42380000Y-71250000D01*
%TO.N,/PIN8*%
X43595000Y-81240000D02*
X43595000Y-79145690D01*
X42380000Y-77930690D02*
X42380000Y-73790000D01*
X42420000Y-82415000D02*
X43595000Y-81240000D01*
X43595000Y-79145690D02*
X42380000Y-77930690D01*
%TO.N,/DATA_P2*%
X38665000Y-78660000D02*
X39880000Y-79875000D01*
X39800000Y-45900002D02*
X42400002Y-43300000D01*
X39800000Y-71200000D02*
X39800000Y-45900002D01*
X38665000Y-72425000D02*
X38665000Y-78660000D01*
X39840000Y-71250000D02*
X38665000Y-72425000D01*
%TO.N,/PIN10*%
X39840000Y-78173299D02*
X41055000Y-79388299D01*
X41055000Y-81240000D02*
X39880000Y-82415000D01*
X41055000Y-79388299D02*
X41055000Y-81240000D01*
X39840000Y-73790000D02*
X39840000Y-78173299D01*
%TO.N,/LATCH*%
X39900000Y-37600000D02*
X39900000Y-17920000D01*
X38700000Y-48500000D02*
X38700000Y-69400000D01*
X38700000Y-69400000D02*
X37300000Y-70800000D01*
X36125000Y-72425000D02*
X37300000Y-71250000D01*
X36125000Y-74276701D02*
X36125000Y-72425000D01*
X39900000Y-17920000D02*
X38080000Y-16100000D01*
X38700000Y-48500000D02*
X38700000Y-38800000D01*
X38700000Y-38800000D02*
X39900000Y-37600000D01*
X37340000Y-79875000D02*
X37340000Y-75491701D01*
X37300000Y-70800000D02*
X37300000Y-71250000D01*
X37340000Y-75491701D02*
X36125000Y-74276701D01*
%TO.N,/PIN12*%
X38515000Y-81240000D02*
X37340000Y-82415000D01*
X38515000Y-79145690D02*
X38515000Y-81240000D01*
X37300000Y-73790000D02*
X38215499Y-74705499D01*
X38215499Y-74705499D02*
X38215499Y-78846189D01*
X38215499Y-78846189D02*
X38515000Y-79145690D01*
%TO.N,/CLOCK*%
X33585000Y-72425000D02*
X33585000Y-78660000D01*
X34760000Y-71250000D02*
X37500000Y-68510000D01*
X33585000Y-78660000D02*
X34800000Y-79875000D01*
X37500000Y-52000000D02*
X37500000Y-34100000D01*
X37500000Y-68510000D02*
X37500000Y-52000000D01*
X34760000Y-71250000D02*
X33585000Y-72425000D01*
%TO.N,/PIN14*%
X35975000Y-75005000D02*
X35975000Y-81240000D01*
X34760000Y-73790000D02*
X35975000Y-75005000D01*
X35975000Y-81240000D02*
X34800000Y-82415000D01*
%TO.N,/PIN15*%
X31350000Y-71250000D02*
X31000000Y-71600000D01*
X32220000Y-71250000D02*
X31350000Y-71250000D01*
X32260000Y-79875000D02*
X31000000Y-78615000D01*
X31000000Y-78615000D02*
X31000000Y-71600000D01*
%TO.N,/PIN16*%
X32220000Y-73790000D02*
X32220000Y-78173299D01*
X33435000Y-81240000D02*
X32260000Y-82415000D01*
X32220000Y-78173299D02*
X33435000Y-79388299D01*
X33435000Y-79388299D02*
X33435000Y-81240000D01*
%TD*%
M02*
