%TF.GenerationSoftware,KiCad,Pcbnew,6.0.7-f9a2dced07~116~ubuntu20.04.1*%
%TF.CreationDate,2022-10-16T19:02:04+08:00*%
%TF.ProjectId,Zeal-SNES-Adapter,5a65616c-2d53-44e4-9553-2d4164617074,rev?*%
%TF.SameCoordinates,Original*%
%TF.FileFunction,Soldermask,Top*%
%TF.FilePolarity,Negative*%
%FSLAX46Y46*%
G04 Gerber Fmt 4.6, Leading zero omitted, Abs format (unit mm)*
G04 Created by KiCad (PCBNEW 6.0.7-f9a2dced07~116~ubuntu20.04.1) date 2022-10-16 19:02:04*
%MOMM*%
%LPD*%
G01*
G04 APERTURE LIST*
%ADD10C,1.600000*%
%ADD11O,1.600000X1.600000*%
%ADD12C,3.000000*%
%ADD13C,4.400000*%
%ADD14R,1.800000X1.800000*%
%ADD15C,1.800000*%
%ADD16R,1.700000X1.700000*%
%ADD17O,1.700000X1.700000*%
G04 APERTURE END LIST*
D10*
%TO.C,R3*%
X27300000Y-77280000D03*
D11*
X27300000Y-67120000D03*
%TD*%
D12*
%TO.C,J3*%
X50100000Y-29500000D03*
X50100000Y-33500000D03*
X50100000Y-37500000D03*
X50100000Y-41500000D03*
X50100000Y-48000000D03*
X50100000Y-52000000D03*
X50100000Y-56000000D03*
%TD*%
D13*
%TO.C,H3*%
X61837000Y-80550000D03*
%TD*%
D10*
%TO.C,R2*%
X24100000Y-77280000D03*
D11*
X24100000Y-67120000D03*
%TD*%
D14*
%TO.C,D1*%
X61000000Y-69500000D03*
D15*
X61000000Y-72040000D03*
%TD*%
D13*
%TO.C,H4*%
X21250000Y-80550000D03*
%TD*%
D16*
%TO.C,J1*%
X50040000Y-79875000D03*
D17*
X50040000Y-82415000D03*
X47500000Y-79875000D03*
X47500000Y-82415000D03*
X44960000Y-79875000D03*
X44960000Y-82415000D03*
X42420000Y-79875000D03*
X42420000Y-82415000D03*
X39880000Y-79875000D03*
X39880000Y-82415000D03*
X37340000Y-79875000D03*
X37340000Y-82415000D03*
X34800000Y-79875000D03*
X34800000Y-82415000D03*
X32260000Y-79875000D03*
X32260000Y-82415000D03*
%TD*%
D10*
%TO.C,R5*%
X55800000Y-80980000D03*
D11*
X55800000Y-70820000D03*
%TD*%
D13*
%TO.C,H1*%
X21250000Y-17025000D03*
%TD*%
D10*
%TO.C,R4*%
X38080000Y-16100000D03*
D11*
X27920000Y-16100000D03*
%TD*%
D16*
%TO.C,J2*%
X50000000Y-71250000D03*
D17*
X50000000Y-73790000D03*
X47460000Y-71250000D03*
X47460000Y-73790000D03*
X44920000Y-71250000D03*
X44920000Y-73790000D03*
X42380000Y-71250000D03*
X42380000Y-73790000D03*
X39840000Y-71250000D03*
X39840000Y-73790000D03*
X37300000Y-71250000D03*
X37300000Y-73790000D03*
X34760000Y-71250000D03*
X34760000Y-73790000D03*
X32220000Y-71250000D03*
X32220000Y-73790000D03*
%TD*%
D12*
%TO.C,J4*%
X32975000Y-55975000D03*
X32975000Y-51975000D03*
X32975000Y-47975000D03*
X32975000Y-43975000D03*
X32975000Y-37475000D03*
X32975000Y-33475000D03*
X32975000Y-29475000D03*
%TD*%
D10*
%TO.C,R1*%
X44400000Y-16100000D03*
D11*
X54560000Y-16100000D03*
%TD*%
D13*
%TO.C,H2*%
X61856000Y-17025000D03*
%TD*%
M02*
