%TF.GenerationSoftware,KiCad,Pcbnew,6.0.7-f9a2dced07~116~ubuntu20.04.1*%
%TF.CreationDate,2022-10-16T19:02:03+08:00*%
%TF.ProjectId,Zeal-SNES-Adapter,5a65616c-2d53-44e4-9553-2d4164617074,rev?*%
%TF.SameCoordinates,Original*%
%TF.FileFunction,Copper,L1,Top*%
%TF.FilePolarity,Positive*%
%FSLAX46Y46*%
G04 Gerber Fmt 4.6, Leading zero omitted, Abs format (unit mm)*
G04 Created by KiCad (PCBNEW 6.0.7-f9a2dced07~116~ubuntu20.04.1) date 2022-10-16 19:02:03*
%MOMM*%
%LPD*%
G01*
G04 APERTURE LIST*
%TA.AperFunction,ComponentPad*%
%ADD10C,1.600000*%
%TD*%
%TA.AperFunction,ComponentPad*%
%ADD11O,1.600000X1.600000*%
%TD*%
%TA.AperFunction,ComponentPad*%
%ADD12C,3.000000*%
%TD*%
%TA.AperFunction,ComponentPad*%
%ADD13C,4.400000*%
%TD*%
%TA.AperFunction,ComponentPad*%
%ADD14R,1.800000X1.800000*%
%TD*%
%TA.AperFunction,ComponentPad*%
%ADD15C,1.800000*%
%TD*%
%TA.AperFunction,ComponentPad*%
%ADD16R,1.700000X1.700000*%
%TD*%
%TA.AperFunction,ComponentPad*%
%ADD17O,1.700000X1.700000*%
%TD*%
%TA.AperFunction,ViaPad*%
%ADD18C,0.800000*%
%TD*%
%TA.AperFunction,Conductor*%
%ADD19C,0.500000*%
%TD*%
%TA.AperFunction,Conductor*%
%ADD20C,0.250000*%
%TD*%
G04 APERTURE END LIST*
D10*
%TO.P,R3,1*%
%TO.N,/DATA_P1*%
X27300000Y-77280000D03*
D11*
%TO.P,R3,2*%
%TO.N,VCC*%
X27300000Y-67120000D03*
%TD*%
D12*
%TO.P,J3,1,5V*%
%TO.N,VCC*%
X50100000Y-29500000D03*
%TO.P,J3,2,Clock*%
%TO.N,/CLOCK*%
X50100000Y-33500000D03*
%TO.P,J3,3,Latch*%
%TO.N,/LATCH*%
X50100000Y-37500000D03*
%TO.P,J3,4,Data*%
%TO.N,/DATA_P2*%
X50100000Y-41500000D03*
%TO.P,J3,5,N/C*%
%TO.N,unconnected-(J3-Pad5)*%
X50100000Y-48000000D03*
%TO.P,J3,6,N/C*%
%TO.N,unconnected-(J3-Pad6)*%
X50100000Y-52000000D03*
%TO.P,J3,7,GND*%
%TO.N,GND*%
X50100000Y-56000000D03*
%TD*%
D13*
%TO.P,H3,1,1*%
%TO.N,GND*%
X61837000Y-80550000D03*
%TD*%
D10*
%TO.P,R2,1*%
%TO.N,/DATA_P2*%
X24100000Y-77280000D03*
D11*
%TO.P,R2,2*%
%TO.N,VCC*%
X24100000Y-67120000D03*
%TD*%
D14*
%TO.P,D1,1,K*%
%TO.N,GND*%
X61000000Y-69500000D03*
D15*
%TO.P,D1,2,A*%
%TO.N,Net-(D1-Pad2)*%
X61000000Y-72040000D03*
%TD*%
D13*
%TO.P,H4,1,1*%
%TO.N,GND*%
X21250000Y-80550000D03*
%TD*%
D16*
%TO.P,J1,1,Pin_1*%
%TO.N,VCC*%
X50040000Y-79875000D03*
D17*
%TO.P,J1,2,Pin_2*%
%TO.N,GND*%
X50040000Y-82415000D03*
%TO.P,J1,3,Pin_3*%
%TO.N,/PIN3*%
X47500000Y-79875000D03*
%TO.P,J1,4,Pin_4*%
%TO.N,/PIN4*%
X47500000Y-82415000D03*
%TO.P,J1,5,Pin_5*%
%TO.N,/PIN5*%
X44960000Y-79875000D03*
%TO.P,J1,6,Pin_6*%
%TO.N,/PIN6*%
X44960000Y-82415000D03*
%TO.P,J1,7,Pin_7*%
%TO.N,/DATA_P1*%
X42420000Y-79875000D03*
%TO.P,J1,8,Pin_8*%
%TO.N,/PIN8*%
X42420000Y-82415000D03*
%TO.P,J1,9,Pin_9*%
%TO.N,/DATA_P2*%
X39880000Y-79875000D03*
%TO.P,J1,10,Pin_10*%
%TO.N,/PIN10*%
X39880000Y-82415000D03*
%TO.P,J1,11,Pin_11*%
%TO.N,/LATCH*%
X37340000Y-79875000D03*
%TO.P,J1,12,Pin_12*%
%TO.N,/PIN12*%
X37340000Y-82415000D03*
%TO.P,J1,13,Pin_13*%
%TO.N,/CLOCK*%
X34800000Y-79875000D03*
%TO.P,J1,14,Pin_14*%
%TO.N,/PIN14*%
X34800000Y-82415000D03*
%TO.P,J1,15,Pin_15*%
%TO.N,/PIN15*%
X32260000Y-79875000D03*
%TO.P,J1,16,Pin_16*%
%TO.N,/PIN16*%
X32260000Y-82415000D03*
%TD*%
D10*
%TO.P,R5,1*%
%TO.N,VCC*%
X55800000Y-80980000D03*
D11*
%TO.P,R5,2*%
%TO.N,Net-(D1-Pad2)*%
X55800000Y-70820000D03*
%TD*%
D13*
%TO.P,H1,1,1*%
%TO.N,GND*%
X21250000Y-17025000D03*
%TD*%
D10*
%TO.P,R4,1*%
%TO.N,/LATCH*%
X38080000Y-16100000D03*
D11*
%TO.P,R4,2*%
%TO.N,GND*%
X27920000Y-16100000D03*
%TD*%
D16*
%TO.P,J2,1,Pin_1*%
%TO.N,VCC*%
X50000000Y-71250000D03*
D17*
%TO.P,J2,2,Pin_2*%
%TO.N,GND*%
X50000000Y-73790000D03*
%TO.P,J2,3,Pin_3*%
%TO.N,/PIN3*%
X47460000Y-71250000D03*
%TO.P,J2,4,Pin_4*%
%TO.N,/PIN4*%
X47460000Y-73790000D03*
%TO.P,J2,5,Pin_5*%
%TO.N,/PIN5*%
X44920000Y-71250000D03*
%TO.P,J2,6,Pin_6*%
%TO.N,/PIN6*%
X44920000Y-73790000D03*
%TO.P,J2,7,Pin_7*%
%TO.N,/DATA_P1*%
X42380000Y-71250000D03*
%TO.P,J2,8,Pin_8*%
%TO.N,/PIN8*%
X42380000Y-73790000D03*
%TO.P,J2,9,Pin_9*%
%TO.N,/DATA_P2*%
X39840000Y-71250000D03*
%TO.P,J2,10,Pin_10*%
%TO.N,/PIN10*%
X39840000Y-73790000D03*
%TO.P,J2,11,Pin_11*%
%TO.N,/LATCH*%
X37300000Y-71250000D03*
%TO.P,J2,12,Pin_12*%
%TO.N,/PIN12*%
X37300000Y-73790000D03*
%TO.P,J2,13,Pin_13*%
%TO.N,/CLOCK*%
X34760000Y-71250000D03*
%TO.P,J2,14,Pin_14*%
%TO.N,/PIN14*%
X34760000Y-73790000D03*
%TO.P,J2,15,Pin_15*%
%TO.N,/PIN15*%
X32220000Y-71250000D03*
%TO.P,J2,16,Pin_16*%
%TO.N,/PIN16*%
X32220000Y-73790000D03*
%TD*%
D12*
%TO.P,J4,1,5V*%
%TO.N,VCC*%
X32975000Y-55975000D03*
%TO.P,J4,2,Clock*%
%TO.N,/CLOCK*%
X32975000Y-51975000D03*
%TO.P,J4,3,Latch*%
%TO.N,/LATCH*%
X32975000Y-47975000D03*
%TO.P,J4,4,Data*%
%TO.N,/DATA_P1*%
X32975000Y-43975000D03*
%TO.P,J4,5,N/C*%
%TO.N,unconnected-(J4-Pad5)*%
X32975000Y-37475000D03*
%TO.P,J4,6,N/C*%
%TO.N,unconnected-(J4-Pad6)*%
X32975000Y-33475000D03*
%TO.P,J4,7,GND*%
%TO.N,GND*%
X32975000Y-29475000D03*
%TD*%
D10*
%TO.P,R1,1*%
%TO.N,/CLOCK*%
X44400000Y-16100000D03*
D11*
%TO.P,R1,2*%
%TO.N,VCC*%
X54560000Y-16100000D03*
%TD*%
D13*
%TO.P,H2,1,1*%
%TO.N,GND*%
X61856000Y-17025000D03*
%TD*%
D18*
%TO.N,/DATA_P1*%
X41700000Y-46900000D03*
%TO.N,/DATA_P2*%
X42400002Y-43300000D03*
%TO.N,/LATCH*%
X38700000Y-48500000D03*
X39900000Y-37600000D03*
%TO.N,/CLOCK*%
X37500000Y-34100000D03*
X37500000Y-52000000D03*
%TD*%
D19*
%TO.N,VCC*%
X50000000Y-71100000D02*
X34875000Y-55975000D01*
X52000000Y-77915000D02*
X50040000Y-79875000D01*
X34875000Y-55975000D02*
X32975000Y-55975000D01*
X52000000Y-73250000D02*
X52000000Y-77915000D01*
X50040000Y-79875000D02*
X54695000Y-79875000D01*
X50000000Y-71250000D02*
X50000000Y-71100000D01*
X50000000Y-71250000D02*
X52000000Y-73250000D01*
X54695000Y-79875000D02*
X55800000Y-80980000D01*
D20*
%TO.N,/DATA_P1*%
X32975000Y-43975000D02*
X38775000Y-43975000D01*
X42420000Y-79875000D02*
X39825000Y-77280000D01*
X39825000Y-77280000D02*
X27300000Y-77280000D01*
X38775000Y-43975000D02*
X41700000Y-46900000D01*
%TO.N,/DATA_P2*%
X38410000Y-78405000D02*
X39880000Y-79875000D01*
X44200002Y-41500000D02*
X42400002Y-43300000D01*
X50100000Y-41500000D02*
X44200002Y-41500000D01*
X24100000Y-77280000D02*
X25225000Y-78405000D01*
X25225000Y-78405000D02*
X38410000Y-78405000D01*
%TO.N,/LATCH*%
X38175000Y-47975000D02*
X38700000Y-48500000D01*
X32975000Y-47975000D02*
X38175000Y-47975000D01*
X40000000Y-37500000D02*
X50100000Y-37500000D01*
%TO.N,/CLOCK*%
X44400000Y-27800000D02*
X50100000Y-33500000D01*
X50100000Y-33500000D02*
X38100000Y-33500000D01*
X32975000Y-51975000D02*
X37475000Y-51975000D01*
X44400000Y-16100000D02*
X44400000Y-27800000D01*
X37475000Y-51975000D02*
X37500000Y-52000000D01*
X38100000Y-33500000D02*
X37500000Y-34100000D01*
D19*
%TO.N,Net-(D1-Pad2)*%
X57280000Y-70820000D02*
X58500000Y-72040000D01*
X58500000Y-72040000D02*
X61000000Y-72040000D01*
X55800000Y-70820000D02*
X57280000Y-70820000D01*
%TD*%
%TA.AperFunction,Conductor*%
%TO.N,GND*%
G36*
X20225294Y-14303502D02*
G01*
X20271787Y-14357158D01*
X20281891Y-14427432D01*
X20252397Y-14492012D01*
X20208120Y-14524740D01*
X20009182Y-14612690D01*
X20002445Y-14616167D01*
X19728355Y-14779233D01*
X19722091Y-14783490D01*
X19536385Y-14926762D01*
X19527917Y-14938423D01*
X19534520Y-14950309D01*
X21237190Y-16652980D01*
X21251131Y-16660592D01*
X21252966Y-16660461D01*
X21259580Y-16656210D01*
X22964559Y-14951230D01*
X22971571Y-14938389D01*
X22963777Y-14927701D01*
X22801298Y-14799613D01*
X22795075Y-14795288D01*
X22522702Y-14629357D01*
X22516025Y-14625822D01*
X22292522Y-14524201D01*
X22238789Y-14477797D01*
X22218673Y-14409710D01*
X22238562Y-14341556D01*
X22292140Y-14294974D01*
X22344673Y-14283500D01*
X60763173Y-14283500D01*
X60831294Y-14303502D01*
X60877787Y-14357158D01*
X60887891Y-14427432D01*
X60858397Y-14492012D01*
X60814120Y-14524740D01*
X60615182Y-14612690D01*
X60608445Y-14616167D01*
X60334355Y-14779233D01*
X60328091Y-14783490D01*
X60142385Y-14926762D01*
X60133917Y-14938423D01*
X60140520Y-14950309D01*
X61843190Y-16652980D01*
X61857131Y-16660592D01*
X61858966Y-16660461D01*
X61865580Y-16656210D01*
X63570559Y-14951230D01*
X63577571Y-14938389D01*
X63569777Y-14927701D01*
X63407298Y-14799613D01*
X63401075Y-14795288D01*
X63128702Y-14629357D01*
X63122025Y-14625822D01*
X62898522Y-14524201D01*
X62844789Y-14477797D01*
X62824673Y-14409710D01*
X62844562Y-14341556D01*
X62898140Y-14294974D01*
X62950673Y-14283500D01*
X64490500Y-14283500D01*
X64558621Y-14303502D01*
X64605114Y-14357158D01*
X64616500Y-14409500D01*
X64616500Y-15973709D01*
X64596498Y-16041830D01*
X64542842Y-16088323D01*
X64472568Y-16098427D01*
X64407988Y-16068933D01*
X64375528Y-16025259D01*
X64261781Y-15771570D01*
X64258264Y-15764843D01*
X64093771Y-15491621D01*
X64089481Y-15485377D01*
X63953991Y-15311647D01*
X63942199Y-15303178D01*
X63930486Y-15309725D01*
X62228020Y-17012190D01*
X62220408Y-17026131D01*
X62220539Y-17027966D01*
X62224790Y-17034580D01*
X63929285Y-18739074D01*
X63942408Y-18746240D01*
X63952709Y-18738851D01*
X64056751Y-18611055D01*
X64061164Y-18604914D01*
X64231349Y-18335187D01*
X64235005Y-18328536D01*
X64371549Y-18040324D01*
X64373595Y-18035236D01*
X64417564Y-17979493D01*
X64484690Y-17956371D01*
X64553660Y-17973210D01*
X64602578Y-18024665D01*
X64616500Y-18082237D01*
X64616500Y-79541382D01*
X64596498Y-79609503D01*
X64542842Y-79655996D01*
X64472568Y-79666100D01*
X64407988Y-79636606D01*
X64375873Y-79590565D01*
X64374813Y-79591040D01*
X64242781Y-79296570D01*
X64239264Y-79289843D01*
X64074771Y-79016621D01*
X64070481Y-79010377D01*
X63934991Y-78836647D01*
X63923199Y-78828178D01*
X63911486Y-78834725D01*
X62209020Y-80537190D01*
X62201408Y-80551131D01*
X62201539Y-80552966D01*
X62205790Y-80559580D01*
X63910285Y-82264074D01*
X63923408Y-82271240D01*
X63933709Y-82263851D01*
X64037751Y-82136055D01*
X64042164Y-82129914D01*
X64212349Y-81860187D01*
X64216005Y-81853536D01*
X64352544Y-81565335D01*
X64355375Y-81558295D01*
X64370976Y-81511532D01*
X64411509Y-81453243D01*
X64477121Y-81426120D01*
X64546980Y-81438776D01*
X64598908Y-81487191D01*
X64616500Y-81551408D01*
X64616500Y-83140500D01*
X64596498Y-83208621D01*
X64542842Y-83255114D01*
X64490500Y-83266500D01*
X62986872Y-83266500D01*
X62918751Y-83246498D01*
X62872258Y-83192842D01*
X62862154Y-83122568D01*
X62891648Y-83057988D01*
X62937134Y-83024732D01*
X63052496Y-82975169D01*
X63059263Y-82971765D01*
X63335042Y-82811580D01*
X63341349Y-82807390D01*
X63551305Y-82648889D01*
X63559761Y-82637496D01*
X63553045Y-82625256D01*
X61849810Y-80922020D01*
X61835869Y-80914408D01*
X61834034Y-80914539D01*
X61827420Y-80918790D01*
X60122818Y-82623393D01*
X60115703Y-82636423D01*
X60123227Y-82646854D01*
X60262483Y-82759020D01*
X60268657Y-82763408D01*
X60539271Y-82932178D01*
X60545931Y-82935794D01*
X60739691Y-83026352D01*
X60792935Y-83073315D01*
X60812336Y-83141610D01*
X60791735Y-83209552D01*
X60737672Y-83255570D01*
X60686341Y-83266500D01*
X51336867Y-83266500D01*
X51268746Y-83246498D01*
X51222253Y-83192842D01*
X51212149Y-83122568D01*
X51223910Y-83084673D01*
X51304670Y-82921267D01*
X51308469Y-82911672D01*
X51370377Y-82707910D01*
X51372555Y-82697837D01*
X51373986Y-82686962D01*
X51371775Y-82672778D01*
X51358617Y-82669000D01*
X49912000Y-82669000D01*
X49843879Y-82648998D01*
X49797386Y-82595342D01*
X49786000Y-82543000D01*
X49786000Y-82287000D01*
X49806002Y-82218879D01*
X49859658Y-82172386D01*
X49912000Y-82161000D01*
X51358344Y-82161000D01*
X51371875Y-82157027D01*
X51373180Y-82147947D01*
X51331214Y-81980875D01*
X51327894Y-81971124D01*
X51242972Y-81775814D01*
X51238105Y-81766739D01*
X51122426Y-81587926D01*
X51116136Y-81579757D01*
X50972293Y-81421677D01*
X50941241Y-81357831D01*
X50949635Y-81287333D01*
X50994812Y-81232564D01*
X51021256Y-81218895D01*
X51128297Y-81178767D01*
X51136705Y-81175615D01*
X51253261Y-81088261D01*
X51340615Y-80971705D01*
X51391745Y-80835316D01*
X51398500Y-80773134D01*
X51398500Y-80759500D01*
X51418502Y-80691379D01*
X51472158Y-80644886D01*
X51524500Y-80633500D01*
X54328629Y-80633500D01*
X54396750Y-80653502D01*
X54417724Y-80670405D01*
X54464329Y-80717010D01*
X54498355Y-80779322D01*
X54500755Y-80817087D01*
X54487963Y-80963297D01*
X54486502Y-80980000D01*
X54506457Y-81208087D01*
X54507881Y-81213400D01*
X54507881Y-81213402D01*
X54519035Y-81255027D01*
X54565716Y-81429243D01*
X54568039Y-81434224D01*
X54568039Y-81434225D01*
X54660151Y-81631762D01*
X54660154Y-81631767D01*
X54662477Y-81636749D01*
X54735902Y-81741611D01*
X54759852Y-81775814D01*
X54793802Y-81824300D01*
X54955700Y-81986198D01*
X54960208Y-81989355D01*
X54960211Y-81989357D01*
X55038389Y-82044098D01*
X55143251Y-82117523D01*
X55148233Y-82119846D01*
X55148238Y-82119849D01*
X55345775Y-82211961D01*
X55350757Y-82214284D01*
X55356065Y-82215706D01*
X55356067Y-82215707D01*
X55566598Y-82272119D01*
X55566600Y-82272119D01*
X55571913Y-82273543D01*
X55800000Y-82293498D01*
X56028087Y-82273543D01*
X56033400Y-82272119D01*
X56033402Y-82272119D01*
X56243933Y-82215707D01*
X56243935Y-82215706D01*
X56249243Y-82214284D01*
X56254225Y-82211961D01*
X56451762Y-82119849D01*
X56451767Y-82119846D01*
X56456749Y-82117523D01*
X56561611Y-82044098D01*
X56639789Y-81989357D01*
X56639792Y-81989355D01*
X56644300Y-81986198D01*
X56806198Y-81824300D01*
X56840149Y-81775814D01*
X56864098Y-81741611D01*
X56937523Y-81636749D01*
X56939846Y-81631767D01*
X56939849Y-81631762D01*
X57031961Y-81434225D01*
X57031961Y-81434224D01*
X57034284Y-81429243D01*
X57080966Y-81255027D01*
X57092119Y-81213402D01*
X57092119Y-81213400D01*
X57093543Y-81208087D01*
X57113498Y-80980000D01*
X57093543Y-80751913D01*
X57075343Y-80683990D01*
X57035707Y-80536067D01*
X57035706Y-80536065D01*
X57034284Y-80530757D01*
X57031778Y-80525383D01*
X59124388Y-80525383D01*
X59140245Y-80843914D01*
X59141076Y-80851443D01*
X59195085Y-81165759D01*
X59196818Y-81173146D01*
X59288196Y-81478695D01*
X59290799Y-81485808D01*
X59418227Y-81778173D01*
X59421669Y-81784929D01*
X59583296Y-82059865D01*
X59587519Y-82066150D01*
X59738463Y-82263934D01*
X59749989Y-82272396D01*
X59762054Y-82265735D01*
X61464980Y-80562810D01*
X61472592Y-80548869D01*
X61472461Y-80547034D01*
X61468210Y-80540420D01*
X59763445Y-78835656D01*
X59750510Y-78828592D01*
X59739949Y-78836252D01*
X59619766Y-78987072D01*
X59615410Y-78993270D01*
X59448059Y-79264764D01*
X59444479Y-79271440D01*
X59310956Y-79561074D01*
X59308206Y-79568125D01*
X59210444Y-79871708D01*
X59208561Y-79879041D01*
X59147979Y-80192170D01*
X59146992Y-80199670D01*
X59124467Y-80517802D01*
X59124388Y-80525383D01*
X57031778Y-80525383D01*
X57028243Y-80517802D01*
X56939849Y-80328238D01*
X56939846Y-80328233D01*
X56937523Y-80323251D01*
X56806198Y-80135700D01*
X56644300Y-79973802D01*
X56639792Y-79970645D01*
X56639789Y-79970643D01*
X56537843Y-79899260D01*
X56456749Y-79842477D01*
X56451767Y-79840154D01*
X56451762Y-79840151D01*
X56254225Y-79748039D01*
X56254224Y-79748039D01*
X56249243Y-79745716D01*
X56243935Y-79744294D01*
X56243933Y-79744293D01*
X56033402Y-79687881D01*
X56033400Y-79687881D01*
X56028087Y-79686457D01*
X55800000Y-79666502D01*
X55794525Y-79666981D01*
X55637087Y-79680755D01*
X55567482Y-79666766D01*
X55537010Y-79644329D01*
X55278770Y-79386089D01*
X55266384Y-79371677D01*
X55257851Y-79360082D01*
X55257846Y-79360077D01*
X55253508Y-79354182D01*
X55247930Y-79349443D01*
X55247927Y-79349440D01*
X55213232Y-79319965D01*
X55205716Y-79313035D01*
X55200021Y-79307340D01*
X55186408Y-79296570D01*
X55177749Y-79289719D01*
X55174345Y-79286928D01*
X55124297Y-79244409D01*
X55124295Y-79244408D01*
X55118715Y-79239667D01*
X55112199Y-79236339D01*
X55107150Y-79232972D01*
X55102021Y-79229805D01*
X55096284Y-79225266D01*
X55030125Y-79194345D01*
X55026225Y-79192439D01*
X54961192Y-79159231D01*
X54954084Y-79157492D01*
X54948441Y-79155393D01*
X54942678Y-79153476D01*
X54936050Y-79150378D01*
X54864583Y-79135513D01*
X54860299Y-79134543D01*
X54789390Y-79117192D01*
X54783788Y-79116844D01*
X54783785Y-79116844D01*
X54778236Y-79116500D01*
X54778238Y-79116464D01*
X54774245Y-79116225D01*
X54770053Y-79115851D01*
X54762885Y-79114360D01*
X54696675Y-79116151D01*
X54685479Y-79116454D01*
X54682072Y-79116500D01*
X52175371Y-79116500D01*
X52107250Y-79096498D01*
X52060757Y-79042842D01*
X52050653Y-78972568D01*
X52080147Y-78907988D01*
X52086276Y-78901405D01*
X52488911Y-78498770D01*
X52503323Y-78486384D01*
X52514918Y-78477851D01*
X52514923Y-78477846D01*
X52520818Y-78473508D01*
X52525557Y-78467930D01*
X52525560Y-78467927D01*
X52529386Y-78463423D01*
X60114917Y-78463423D01*
X60121520Y-78475309D01*
X61824190Y-80177980D01*
X61838131Y-80185592D01*
X61839966Y-80185461D01*
X61846580Y-80181210D01*
X63551559Y-78476230D01*
X63558571Y-78463389D01*
X63550777Y-78452701D01*
X63388298Y-78324613D01*
X63382075Y-78320288D01*
X63109702Y-78154357D01*
X63103025Y-78150822D01*
X62812686Y-78018813D01*
X62805616Y-78016099D01*
X62501537Y-77919932D01*
X62494186Y-77918085D01*
X62180746Y-77859142D01*
X62173237Y-77858194D01*
X61854989Y-77837335D01*
X61847424Y-77837295D01*
X61528964Y-77854821D01*
X61521450Y-77855690D01*
X61207405Y-77911348D01*
X61200044Y-77913115D01*
X60894980Y-78006092D01*
X60887860Y-78008740D01*
X60596182Y-78137690D01*
X60589445Y-78141167D01*
X60315355Y-78304233D01*
X60309091Y-78308490D01*
X60123385Y-78451762D01*
X60114917Y-78463423D01*
X52529386Y-78463423D01*
X52555035Y-78433232D01*
X52561965Y-78425716D01*
X52567661Y-78420020D01*
X52569924Y-78417159D01*
X52569929Y-78417154D01*
X52585285Y-78397744D01*
X52588074Y-78394342D01*
X52630596Y-78344291D01*
X52630597Y-78344290D01*
X52635333Y-78338715D01*
X52638661Y-78332198D01*
X52642027Y-78327150D01*
X52645190Y-78322028D01*
X52649735Y-78316284D01*
X52680664Y-78250105D01*
X52682563Y-78246221D01*
X52715769Y-78181192D01*
X52717510Y-78174077D01*
X52719613Y-78168422D01*
X52721522Y-78162683D01*
X52724622Y-78156050D01*
X52739491Y-78084565D01*
X52740461Y-78080282D01*
X52757808Y-78009390D01*
X52758500Y-77998236D01*
X52758535Y-77998238D01*
X52758775Y-77994266D01*
X52759152Y-77990045D01*
X52760641Y-77982885D01*
X52758546Y-77905458D01*
X52758500Y-77902050D01*
X52758500Y-73317069D01*
X52759933Y-73298118D01*
X52762099Y-73283883D01*
X52762099Y-73283881D01*
X52763199Y-73276651D01*
X52758915Y-73223982D01*
X52758500Y-73213767D01*
X52758500Y-73205707D01*
X52755211Y-73177493D01*
X52754778Y-73173118D01*
X52749454Y-73107661D01*
X52749453Y-73107658D01*
X52748860Y-73100363D01*
X52746604Y-73093399D01*
X52745413Y-73087440D01*
X52744029Y-73081585D01*
X52743182Y-73074319D01*
X52718265Y-73005673D01*
X52716848Y-73001545D01*
X52696607Y-72939064D01*
X52696606Y-72939062D01*
X52694351Y-72932101D01*
X52690555Y-72925846D01*
X52688049Y-72920372D01*
X52685330Y-72914942D01*
X52682833Y-72908063D01*
X52678820Y-72901942D01*
X52642814Y-72847024D01*
X52640467Y-72843305D01*
X52602595Y-72780893D01*
X52595197Y-72772516D01*
X52595224Y-72772492D01*
X52592571Y-72769500D01*
X52589868Y-72766267D01*
X52585856Y-72760148D01*
X52529617Y-72706872D01*
X52527175Y-72704494D01*
X51395405Y-71572724D01*
X51361379Y-71510412D01*
X51358500Y-71483629D01*
X51358500Y-70820000D01*
X54486502Y-70820000D01*
X54506457Y-71048087D01*
X54507881Y-71053400D01*
X54507881Y-71053402D01*
X54559112Y-71244595D01*
X54565716Y-71269243D01*
X54568039Y-71274224D01*
X54568039Y-71274225D01*
X54660151Y-71471762D01*
X54660154Y-71471767D01*
X54662477Y-71476749D01*
X54729680Y-71572724D01*
X54785607Y-71652596D01*
X54793802Y-71664300D01*
X54955700Y-71826198D01*
X54960208Y-71829355D01*
X54960211Y-71829357D01*
X55003730Y-71859829D01*
X55143251Y-71957523D01*
X55148233Y-71959846D01*
X55148238Y-71959849D01*
X55327341Y-72043365D01*
X55350757Y-72054284D01*
X55356065Y-72055706D01*
X55356067Y-72055707D01*
X55566598Y-72112119D01*
X55566600Y-72112119D01*
X55571913Y-72113543D01*
X55800000Y-72133498D01*
X56028087Y-72113543D01*
X56033400Y-72112119D01*
X56033402Y-72112119D01*
X56243933Y-72055707D01*
X56243935Y-72055706D01*
X56249243Y-72054284D01*
X56272659Y-72043365D01*
X56451762Y-71959849D01*
X56451767Y-71959846D01*
X56456749Y-71957523D01*
X56596270Y-71859829D01*
X56639789Y-71829357D01*
X56639792Y-71829355D01*
X56644300Y-71826198D01*
X56806198Y-71664300D01*
X56821143Y-71642956D01*
X56876599Y-71598628D01*
X56947218Y-71591319D01*
X57013451Y-71626132D01*
X57916230Y-72528911D01*
X57928616Y-72543323D01*
X57937149Y-72554918D01*
X57937154Y-72554923D01*
X57941492Y-72560818D01*
X57947070Y-72565557D01*
X57947073Y-72565560D01*
X57981768Y-72595035D01*
X57989284Y-72601965D01*
X57994980Y-72607661D01*
X57997841Y-72609924D01*
X57997846Y-72609929D01*
X58017266Y-72625293D01*
X58020667Y-72628082D01*
X58048943Y-72652104D01*
X58076285Y-72675333D01*
X58082805Y-72678662D01*
X58087852Y-72682028D01*
X58092976Y-72685193D01*
X58098717Y-72689735D01*
X58105348Y-72692834D01*
X58105351Y-72692836D01*
X58164830Y-72720634D01*
X58168776Y-72722562D01*
X58233808Y-72755769D01*
X58240914Y-72757508D01*
X58246564Y-72759609D01*
X58252321Y-72761524D01*
X58258950Y-72764622D01*
X58330435Y-72779491D01*
X58334701Y-72780457D01*
X58405610Y-72797808D01*
X58411212Y-72798156D01*
X58411215Y-72798156D01*
X58416764Y-72798500D01*
X58416762Y-72798535D01*
X58420734Y-72798775D01*
X58424955Y-72799152D01*
X58432115Y-72800641D01*
X58509542Y-72798546D01*
X58512950Y-72798500D01*
X59742230Y-72798500D01*
X59810351Y-72818502D01*
X59849662Y-72858665D01*
X59856798Y-72870309D01*
X59856801Y-72870314D01*
X59859501Y-72874719D01*
X60011147Y-73049784D01*
X60189349Y-73197730D01*
X60389322Y-73314584D01*
X60394147Y-73316426D01*
X60394148Y-73316427D01*
X60468665Y-73344883D01*
X60605694Y-73397209D01*
X60610760Y-73398240D01*
X60610761Y-73398240D01*
X60663846Y-73409040D01*
X60832656Y-73443385D01*
X60963324Y-73448176D01*
X61058949Y-73451683D01*
X61058953Y-73451683D01*
X61064113Y-73451872D01*
X61069233Y-73451216D01*
X61069235Y-73451216D01*
X61142270Y-73441860D01*
X61293847Y-73422442D01*
X61298795Y-73420957D01*
X61298802Y-73420956D01*
X61510747Y-73357369D01*
X61515690Y-73355886D01*
X61526272Y-73350702D01*
X61719049Y-73256262D01*
X61719052Y-73256260D01*
X61723684Y-73253991D01*
X61912243Y-73119494D01*
X62076303Y-72956005D01*
X62090389Y-72936403D01*
X62146249Y-72858665D01*
X62211458Y-72767917D01*
X62215889Y-72758953D01*
X62311784Y-72564922D01*
X62311785Y-72564920D01*
X62314078Y-72560280D01*
X62381408Y-72338671D01*
X62411640Y-72109041D01*
X62412943Y-72055707D01*
X62413245Y-72043365D01*
X62413245Y-72043361D01*
X62413327Y-72040000D01*
X62398908Y-71864616D01*
X62394773Y-71814318D01*
X62394772Y-71814312D01*
X62394349Y-71809167D01*
X62357490Y-71662425D01*
X62339184Y-71589544D01*
X62339183Y-71589540D01*
X62337925Y-71584533D01*
X62335302Y-71578500D01*
X62247630Y-71376868D01*
X62247628Y-71376865D01*
X62245570Y-71372131D01*
X62119764Y-71177665D01*
X62029486Y-71078450D01*
X61998434Y-71014605D01*
X62006829Y-70944106D01*
X62052005Y-70889338D01*
X62078449Y-70875669D01*
X62138054Y-70853324D01*
X62153649Y-70844786D01*
X62255724Y-70768285D01*
X62268285Y-70755724D01*
X62344786Y-70653649D01*
X62353324Y-70638054D01*
X62398478Y-70517606D01*
X62402105Y-70502351D01*
X62407631Y-70451486D01*
X62408000Y-70444672D01*
X62408000Y-69772115D01*
X62403525Y-69756876D01*
X62402135Y-69755671D01*
X62394452Y-69754000D01*
X59610116Y-69754000D01*
X59594877Y-69758475D01*
X59593672Y-69759865D01*
X59592001Y-69767548D01*
X59592001Y-70444669D01*
X59592371Y-70451490D01*
X59597895Y-70502352D01*
X59601521Y-70517604D01*
X59646676Y-70638054D01*
X59655214Y-70653649D01*
X59731715Y-70755724D01*
X59744276Y-70768285D01*
X59846351Y-70844786D01*
X59861946Y-70853324D01*
X59921540Y-70875665D01*
X59978304Y-70918307D01*
X60003004Y-70984868D01*
X59987796Y-71054217D01*
X59968404Y-71080698D01*
X59901639Y-71150564D01*
X59883152Y-71177665D01*
X59849835Y-71226505D01*
X59794923Y-71271507D01*
X59745747Y-71281500D01*
X58866371Y-71281500D01*
X58798250Y-71261498D01*
X58777276Y-71244595D01*
X57863770Y-70331089D01*
X57851384Y-70316677D01*
X57842851Y-70305082D01*
X57842846Y-70305077D01*
X57838508Y-70299182D01*
X57832930Y-70294443D01*
X57832927Y-70294440D01*
X57798232Y-70264965D01*
X57790716Y-70258035D01*
X57785021Y-70252340D01*
X57778880Y-70247482D01*
X57762749Y-70234719D01*
X57759345Y-70231928D01*
X57709297Y-70189409D01*
X57709295Y-70189408D01*
X57703715Y-70184667D01*
X57697199Y-70181339D01*
X57692150Y-70177972D01*
X57687021Y-70174805D01*
X57681284Y-70170266D01*
X57615125Y-70139345D01*
X57611225Y-70137439D01*
X57546192Y-70104231D01*
X57539084Y-70102492D01*
X57533441Y-70100393D01*
X57527678Y-70098476D01*
X57521050Y-70095378D01*
X57449583Y-70080513D01*
X57445299Y-70079543D01*
X57374390Y-70062192D01*
X57368788Y-70061844D01*
X57368785Y-70061844D01*
X57363236Y-70061500D01*
X57363238Y-70061464D01*
X57359245Y-70061225D01*
X57355053Y-70060851D01*
X57347885Y-70059360D01*
X57281675Y-70061151D01*
X57270479Y-70061454D01*
X57267072Y-70061500D01*
X56931867Y-70061500D01*
X56863746Y-70041498D01*
X56828655Y-70007772D01*
X56806198Y-69975700D01*
X56644300Y-69813802D01*
X56639792Y-69810645D01*
X56639789Y-69810643D01*
X56536001Y-69737970D01*
X56456749Y-69682477D01*
X56451767Y-69680154D01*
X56451762Y-69680151D01*
X56254225Y-69588039D01*
X56254224Y-69588039D01*
X56249243Y-69585716D01*
X56243935Y-69584294D01*
X56243933Y-69584293D01*
X56033402Y-69527881D01*
X56033400Y-69527881D01*
X56028087Y-69526457D01*
X55800000Y-69506502D01*
X55571913Y-69526457D01*
X55566600Y-69527881D01*
X55566598Y-69527881D01*
X55356067Y-69584293D01*
X55356065Y-69584294D01*
X55350757Y-69585716D01*
X55345776Y-69588039D01*
X55345775Y-69588039D01*
X55148238Y-69680151D01*
X55148233Y-69680154D01*
X55143251Y-69682477D01*
X55063999Y-69737970D01*
X54960211Y-69810643D01*
X54960208Y-69810645D01*
X54955700Y-69813802D01*
X54793802Y-69975700D01*
X54790645Y-69980208D01*
X54790643Y-69980211D01*
X54781438Y-69993357D01*
X54662477Y-70163251D01*
X54660154Y-70168233D01*
X54660151Y-70168238D01*
X54568039Y-70365775D01*
X54565716Y-70370757D01*
X54564294Y-70376065D01*
X54564293Y-70376067D01*
X54511685Y-70572401D01*
X54506457Y-70591913D01*
X54486502Y-70820000D01*
X51358500Y-70820000D01*
X51358500Y-70351866D01*
X51351745Y-70289684D01*
X51300615Y-70153295D01*
X51213261Y-70036739D01*
X51096705Y-69949385D01*
X50960316Y-69898255D01*
X50898134Y-69891500D01*
X49916371Y-69891500D01*
X49848250Y-69871498D01*
X49827276Y-69854595D01*
X49200566Y-69227885D01*
X59592000Y-69227885D01*
X59596475Y-69243124D01*
X59597865Y-69244329D01*
X59605548Y-69246000D01*
X60727885Y-69246000D01*
X60743124Y-69241525D01*
X60744329Y-69240135D01*
X60746000Y-69232452D01*
X60746000Y-69227885D01*
X61254000Y-69227885D01*
X61258475Y-69243124D01*
X61259865Y-69244329D01*
X61267548Y-69246000D01*
X62389884Y-69246000D01*
X62405123Y-69241525D01*
X62406328Y-69240135D01*
X62407999Y-69232452D01*
X62407999Y-68555331D01*
X62407629Y-68548510D01*
X62402105Y-68497648D01*
X62398479Y-68482396D01*
X62353324Y-68361946D01*
X62344786Y-68346351D01*
X62268285Y-68244276D01*
X62255724Y-68231715D01*
X62153649Y-68155214D01*
X62138054Y-68146676D01*
X62017606Y-68101522D01*
X62002351Y-68097895D01*
X61951486Y-68092369D01*
X61944672Y-68092000D01*
X61272115Y-68092000D01*
X61256876Y-68096475D01*
X61255671Y-68097865D01*
X61254000Y-68105548D01*
X61254000Y-69227885D01*
X60746000Y-69227885D01*
X60746000Y-68110116D01*
X60741525Y-68094877D01*
X60740135Y-68093672D01*
X60732452Y-68092001D01*
X60055331Y-68092001D01*
X60048510Y-68092371D01*
X59997648Y-68097895D01*
X59982396Y-68101521D01*
X59861946Y-68146676D01*
X59846351Y-68155214D01*
X59744276Y-68231715D01*
X59731715Y-68244276D01*
X59655214Y-68346351D01*
X59646676Y-68361946D01*
X59601522Y-68482394D01*
X59597895Y-68497649D01*
X59592369Y-68548514D01*
X59592000Y-68555328D01*
X59592000Y-69227885D01*
X49200566Y-69227885D01*
X37562335Y-57589654D01*
X48875618Y-57589654D01*
X48882673Y-57599627D01*
X48913679Y-57625551D01*
X48920598Y-57630579D01*
X49145272Y-57771515D01*
X49152807Y-57775556D01*
X49394520Y-57884694D01*
X49402551Y-57887680D01*
X49656832Y-57963002D01*
X49665184Y-57964869D01*
X49927340Y-58004984D01*
X49935874Y-58005700D01*
X50201045Y-58009867D01*
X50209596Y-58009418D01*
X50472883Y-57977557D01*
X50481284Y-57975955D01*
X50737824Y-57908653D01*
X50745926Y-57905926D01*
X50990949Y-57804434D01*
X50998617Y-57800628D01*
X51227598Y-57666822D01*
X51234679Y-57662009D01*
X51314655Y-57599301D01*
X51323125Y-57587442D01*
X51316608Y-57575818D01*
X50112812Y-56372022D01*
X50098868Y-56364408D01*
X50097035Y-56364539D01*
X50090420Y-56368790D01*
X48882910Y-57576300D01*
X48875618Y-57589654D01*
X37562335Y-57589654D01*
X35955885Y-55983204D01*
X48087665Y-55983204D01*
X48102932Y-56247969D01*
X48104005Y-56256470D01*
X48155065Y-56516722D01*
X48157276Y-56524974D01*
X48243184Y-56775894D01*
X48246499Y-56783779D01*
X48365664Y-57020713D01*
X48370020Y-57028079D01*
X48499347Y-57216250D01*
X48509601Y-57224594D01*
X48523342Y-57217448D01*
X49727978Y-56012812D01*
X49734356Y-56001132D01*
X50464408Y-56001132D01*
X50464539Y-56002965D01*
X50468790Y-56009580D01*
X51675730Y-57216520D01*
X51687939Y-57223187D01*
X51699439Y-57214497D01*
X51796831Y-57081913D01*
X51801418Y-57074685D01*
X51927962Y-56841621D01*
X51931530Y-56833827D01*
X52025271Y-56585750D01*
X52027748Y-56577544D01*
X52086954Y-56319038D01*
X52088294Y-56310577D01*
X52112031Y-56044616D01*
X52112277Y-56039677D01*
X52112666Y-56002485D01*
X52112523Y-55997519D01*
X52094362Y-55731123D01*
X52093201Y-55722649D01*
X52039419Y-55462944D01*
X52037120Y-55454709D01*
X51948588Y-55204705D01*
X51945191Y-55196854D01*
X51823550Y-54961178D01*
X51819122Y-54953866D01*
X51700031Y-54784417D01*
X51689509Y-54776037D01*
X51676121Y-54783089D01*
X50472022Y-55987188D01*
X50464408Y-56001132D01*
X49734356Y-56001132D01*
X49735592Y-55998868D01*
X49735461Y-55997035D01*
X49731210Y-55990420D01*
X48523814Y-54783024D01*
X48511804Y-54776466D01*
X48500064Y-54785434D01*
X48391935Y-54935911D01*
X48387418Y-54943196D01*
X48263325Y-55177567D01*
X48259839Y-55185395D01*
X48168700Y-55434446D01*
X48166311Y-55442670D01*
X48109812Y-55701795D01*
X48108563Y-55710250D01*
X48087754Y-55974653D01*
X48087665Y-55983204D01*
X35955885Y-55983204D01*
X35458770Y-55486089D01*
X35446384Y-55471677D01*
X35437851Y-55460082D01*
X35437846Y-55460077D01*
X35433508Y-55454182D01*
X35427930Y-55449443D01*
X35427927Y-55449440D01*
X35393232Y-55419965D01*
X35385716Y-55413035D01*
X35380021Y-55407340D01*
X35373880Y-55402482D01*
X35357749Y-55389719D01*
X35354345Y-55386928D01*
X35304297Y-55344409D01*
X35304295Y-55344408D01*
X35298715Y-55339667D01*
X35292199Y-55336339D01*
X35287150Y-55332972D01*
X35282021Y-55329805D01*
X35276284Y-55325266D01*
X35210125Y-55294345D01*
X35206225Y-55292439D01*
X35141192Y-55259231D01*
X35134084Y-55257492D01*
X35128441Y-55255393D01*
X35122678Y-55253476D01*
X35116050Y-55250378D01*
X35044583Y-55235513D01*
X35040299Y-55234543D01*
X34969390Y-55217192D01*
X34963788Y-55216844D01*
X34963785Y-55216844D01*
X34958236Y-55216500D01*
X34958238Y-55216464D01*
X34954245Y-55216225D01*
X34950052Y-55215851D01*
X34942885Y-55214360D01*
X34923160Y-55214894D01*
X34854525Y-55196743D01*
X34807786Y-55146730D01*
X34698978Y-54935919D01*
X34698978Y-54935918D01*
X34697013Y-54932112D01*
X34687040Y-54917921D01*
X34593926Y-54785434D01*
X34539545Y-54708057D01*
X34353125Y-54507445D01*
X34349810Y-54504731D01*
X34349806Y-54504728D01*
X34144523Y-54336706D01*
X34141205Y-54333990D01*
X33976847Y-54233272D01*
X33911366Y-54193145D01*
X33911365Y-54193145D01*
X33907704Y-54190901D01*
X33890706Y-54183439D01*
X33733841Y-54114580D01*
X33676283Y-54089314D01*
X33621948Y-54043618D01*
X33600943Y-53975800D01*
X33619938Y-53907392D01*
X33678711Y-53857532D01*
X33870136Y-53778241D01*
X33988359Y-53709157D01*
X34102879Y-53642237D01*
X34102880Y-53642236D01*
X34106582Y-53640073D01*
X34322089Y-53471094D01*
X34342660Y-53449867D01*
X34509686Y-53277509D01*
X34512669Y-53274431D01*
X34515202Y-53270983D01*
X34515206Y-53270978D01*
X34672257Y-53057178D01*
X34674795Y-53053723D01*
X34688580Y-53028334D01*
X34803418Y-52816830D01*
X34803419Y-52816828D01*
X34805468Y-52813054D01*
X34851980Y-52689963D01*
X34894769Y-52633310D01*
X34961395Y-52608784D01*
X34969846Y-52608500D01*
X36769290Y-52608500D01*
X36837411Y-52628502D01*
X36862926Y-52650189D01*
X36888747Y-52678866D01*
X36904021Y-52689963D01*
X37033417Y-52783975D01*
X37043248Y-52791118D01*
X37049276Y-52793802D01*
X37049278Y-52793803D01*
X37211681Y-52866109D01*
X37217712Y-52868794D01*
X37311112Y-52888647D01*
X37398056Y-52907128D01*
X37398061Y-52907128D01*
X37404513Y-52908500D01*
X37595487Y-52908500D01*
X37601939Y-52907128D01*
X37601944Y-52907128D01*
X37688888Y-52888647D01*
X37782288Y-52868794D01*
X37788319Y-52866109D01*
X37950722Y-52793803D01*
X37950724Y-52793802D01*
X37956752Y-52791118D01*
X37966584Y-52783975D01*
X38095979Y-52689963D01*
X38111253Y-52678866D01*
X38174611Y-52608500D01*
X38234621Y-52541852D01*
X38234622Y-52541851D01*
X38239040Y-52536944D01*
X38334527Y-52371556D01*
X38393542Y-52189928D01*
X38413504Y-52000000D01*
X38411288Y-51978918D01*
X48086917Y-51978918D01*
X48102682Y-52252320D01*
X48103507Y-52256525D01*
X48103508Y-52256533D01*
X48114127Y-52310657D01*
X48155405Y-52521053D01*
X48156792Y-52525103D01*
X48156793Y-52525108D01*
X48236864Y-52758975D01*
X48244112Y-52780144D01*
X48250982Y-52793803D01*
X48352660Y-52995968D01*
X48367160Y-53024799D01*
X48369586Y-53028328D01*
X48369589Y-53028334D01*
X48502661Y-53221953D01*
X48522274Y-53250490D01*
X48525161Y-53253663D01*
X48525162Y-53253664D01*
X48546859Y-53277509D01*
X48706582Y-53453043D01*
X48916675Y-53628707D01*
X48920316Y-53630991D01*
X49145024Y-53771951D01*
X49145028Y-53771953D01*
X49148664Y-53774234D01*
X49212907Y-53803241D01*
X49397822Y-53886734D01*
X49451676Y-53932997D01*
X49471970Y-54001032D01*
X49452260Y-54069237D01*
X49395405Y-54117469D01*
X49190199Y-54204997D01*
X49182577Y-54208881D01*
X48955013Y-54345075D01*
X48947981Y-54349962D01*
X48885053Y-54400377D01*
X48876584Y-54412500D01*
X48882980Y-54423770D01*
X50087188Y-55627978D01*
X50101132Y-55635592D01*
X50102965Y-55635461D01*
X50109580Y-55631210D01*
X51316604Y-54424186D01*
X51323795Y-54411017D01*
X51316473Y-54400780D01*
X51269233Y-54362115D01*
X51262261Y-54357160D01*
X51036122Y-54218582D01*
X51028552Y-54214624D01*
X50800644Y-54114580D01*
X50746308Y-54068884D01*
X50725303Y-54001065D01*
X50744297Y-53932657D01*
X50803071Y-53882797D01*
X50995136Y-53803241D01*
X51231582Y-53665073D01*
X51447089Y-53496094D01*
X51474305Y-53468010D01*
X51634686Y-53302509D01*
X51637669Y-53299431D01*
X51640202Y-53295983D01*
X51640206Y-53295978D01*
X51797257Y-53082178D01*
X51799795Y-53078723D01*
X51827154Y-53028334D01*
X51928418Y-52841830D01*
X51928419Y-52841828D01*
X51930468Y-52838054D01*
X52027269Y-52581877D01*
X52088407Y-52314933D01*
X52099564Y-52189928D01*
X52112531Y-52044627D01*
X52112531Y-52044625D01*
X52112751Y-52042161D01*
X52113193Y-52000000D01*
X52113024Y-51997519D01*
X52094859Y-51731055D01*
X52094858Y-51731049D01*
X52094567Y-51726778D01*
X52085068Y-51680907D01*
X52039901Y-51462809D01*
X52039032Y-51458612D01*
X51947617Y-51200465D01*
X51822013Y-50957112D01*
X51812040Y-50942921D01*
X51667008Y-50736562D01*
X51664545Y-50733057D01*
X51478125Y-50532445D01*
X51474810Y-50529731D01*
X51474806Y-50529728D01*
X51269523Y-50361706D01*
X51266205Y-50358990D01*
X51032704Y-50215901D01*
X51015706Y-50208439D01*
X50904404Y-50159581D01*
X50801283Y-50114314D01*
X50746948Y-50068618D01*
X50725943Y-50000800D01*
X50744938Y-49932392D01*
X50803711Y-49882532D01*
X50995136Y-49803241D01*
X51231582Y-49665073D01*
X51447089Y-49496094D01*
X51474305Y-49468010D01*
X51634686Y-49302509D01*
X51637669Y-49299431D01*
X51640202Y-49295983D01*
X51640206Y-49295978D01*
X51797257Y-49082178D01*
X51799795Y-49078723D01*
X51815415Y-49049955D01*
X51928418Y-48841830D01*
X51928419Y-48841828D01*
X51930468Y-48838054D01*
X52027269Y-48581877D01*
X52088407Y-48314933D01*
X52112751Y-48042161D01*
X52113193Y-48000000D01*
X52111064Y-47968774D01*
X52094859Y-47731055D01*
X52094858Y-47731049D01*
X52094567Y-47726778D01*
X52085068Y-47680907D01*
X52039901Y-47462809D01*
X52039032Y-47458612D01*
X51947617Y-47200465D01*
X51822013Y-46957112D01*
X51812040Y-46942921D01*
X51667008Y-46736562D01*
X51664545Y-46733057D01*
X51478125Y-46532445D01*
X51474810Y-46529731D01*
X51474806Y-46529728D01*
X51344069Y-46422721D01*
X51266205Y-46358990D01*
X51032704Y-46215901D01*
X51028768Y-46214173D01*
X50785873Y-46107549D01*
X50785869Y-46107548D01*
X50781945Y-46105825D01*
X50518566Y-46030800D01*
X50514324Y-46030196D01*
X50514318Y-46030195D01*
X50312872Y-46001525D01*
X50247443Y-45992213D01*
X50103589Y-45991460D01*
X49977877Y-45990802D01*
X49977871Y-45990802D01*
X49973591Y-45990780D01*
X49969347Y-45991339D01*
X49969343Y-45991339D01*
X49850302Y-46007011D01*
X49702078Y-46026525D01*
X49697938Y-46027658D01*
X49697936Y-46027658D01*
X49675152Y-46033891D01*
X49437928Y-46098788D01*
X49433980Y-46100472D01*
X49189982Y-46204546D01*
X49189978Y-46204548D01*
X49186030Y-46206232D01*
X49152925Y-46226045D01*
X48954725Y-46344664D01*
X48954721Y-46344667D01*
X48951043Y-46346868D01*
X48737318Y-46518094D01*
X48721532Y-46534729D01*
X48553724Y-46711562D01*
X48548808Y-46716742D01*
X48389002Y-46939136D01*
X48260857Y-47181161D01*
X48259385Y-47185184D01*
X48259383Y-47185188D01*
X48177363Y-47409317D01*
X48166743Y-47438337D01*
X48108404Y-47705907D01*
X48086917Y-47978918D01*
X48102682Y-48252320D01*
X48103507Y-48256525D01*
X48103508Y-48256533D01*
X48114012Y-48310072D01*
X48155405Y-48521053D01*
X48156792Y-48525103D01*
X48156793Y-48525108D01*
X48236864Y-48758975D01*
X48244112Y-48780144D01*
X48246039Y-48783975D01*
X48352660Y-48995968D01*
X48367160Y-49024799D01*
X48369586Y-49028328D01*
X48369589Y-49028334D01*
X48502661Y-49221953D01*
X48522274Y-49250490D01*
X48525161Y-49253663D01*
X48525162Y-49253664D01*
X48563665Y-49295978D01*
X48706582Y-49453043D01*
X48916675Y-49628707D01*
X48920316Y-49630991D01*
X49145024Y-49771951D01*
X49145028Y-49771953D01*
X49148664Y-49774234D01*
X49212907Y-49803241D01*
X49397204Y-49886455D01*
X49451058Y-49932718D01*
X49471352Y-50000753D01*
X49451642Y-50068958D01*
X49394788Y-50117189D01*
X49189982Y-50204546D01*
X49189978Y-50204548D01*
X49186030Y-50206232D01*
X49166125Y-50218145D01*
X48954725Y-50344664D01*
X48954721Y-50344667D01*
X48951043Y-50346868D01*
X48737318Y-50518094D01*
X48720717Y-50535588D01*
X48553724Y-50711562D01*
X48548808Y-50716742D01*
X48389002Y-50939136D01*
X48260857Y-51181161D01*
X48259385Y-51185184D01*
X48259383Y-51185188D01*
X48177363Y-51409317D01*
X48166743Y-51438337D01*
X48108404Y-51705907D01*
X48086917Y-51978918D01*
X38411288Y-51978918D01*
X38410839Y-51974648D01*
X38394232Y-51816635D01*
X38394232Y-51816633D01*
X38393542Y-51810072D01*
X38334527Y-51628444D01*
X38239040Y-51463056D01*
X38111253Y-51321134D01*
X37956752Y-51208882D01*
X37950724Y-51206198D01*
X37950722Y-51206197D01*
X37788319Y-51133891D01*
X37788318Y-51133891D01*
X37782288Y-51131206D01*
X37688887Y-51111353D01*
X37601944Y-51092872D01*
X37601939Y-51092872D01*
X37595487Y-51091500D01*
X37404513Y-51091500D01*
X37398061Y-51092872D01*
X37398056Y-51092872D01*
X37311113Y-51111353D01*
X37217712Y-51131206D01*
X37211682Y-51133891D01*
X37211681Y-51133891D01*
X37049278Y-51206197D01*
X37049276Y-51206198D01*
X37043248Y-51208882D01*
X36894092Y-51317251D01*
X36893837Y-51317436D01*
X36826969Y-51341294D01*
X36819776Y-51341500D01*
X34970461Y-51341500D01*
X34902340Y-51321498D01*
X34855847Y-51267842D01*
X34851688Y-51257559D01*
X34824050Y-51179510D01*
X34824047Y-51179502D01*
X34822617Y-51175465D01*
X34711881Y-50960919D01*
X34698978Y-50935919D01*
X34698978Y-50935918D01*
X34697013Y-50932112D01*
X34687040Y-50917921D01*
X34618279Y-50820085D01*
X34539545Y-50708057D01*
X34379277Y-50535588D01*
X34356046Y-50510588D01*
X34356043Y-50510585D01*
X34353125Y-50507445D01*
X34349810Y-50504731D01*
X34349806Y-50504728D01*
X34169013Y-50356751D01*
X34141205Y-50333990D01*
X33952162Y-50218145D01*
X33911366Y-50193145D01*
X33911365Y-50193145D01*
X33907704Y-50190901D01*
X33890706Y-50183439D01*
X33713896Y-50105825D01*
X33676283Y-50089314D01*
X33621948Y-50043618D01*
X33600943Y-49975800D01*
X33619938Y-49907392D01*
X33678711Y-49857532D01*
X33870136Y-49778241D01*
X33988359Y-49709157D01*
X34102879Y-49642237D01*
X34102880Y-49642236D01*
X34106582Y-49640073D01*
X34322089Y-49471094D01*
X34342660Y-49449867D01*
X34509686Y-49277509D01*
X34512669Y-49274431D01*
X34515202Y-49270983D01*
X34515206Y-49270978D01*
X34672257Y-49057178D01*
X34674795Y-49053723D01*
X34676841Y-49049955D01*
X34803418Y-48816830D01*
X34803419Y-48816828D01*
X34805468Y-48813054D01*
X34851980Y-48689963D01*
X34894769Y-48633310D01*
X34961395Y-48608784D01*
X34969846Y-48608500D01*
X37688456Y-48608500D01*
X37756577Y-48628502D01*
X37803070Y-48682158D01*
X37808289Y-48695562D01*
X37865473Y-48871556D01*
X37960960Y-49036944D01*
X38088747Y-49178866D01*
X38243248Y-49291118D01*
X38249276Y-49293802D01*
X38249278Y-49293803D01*
X38411681Y-49366109D01*
X38417712Y-49368794D01*
X38511113Y-49388647D01*
X38598056Y-49407128D01*
X38598061Y-49407128D01*
X38604513Y-49408500D01*
X38795487Y-49408500D01*
X38801939Y-49407128D01*
X38801944Y-49407128D01*
X38888887Y-49388647D01*
X38982288Y-49368794D01*
X38988319Y-49366109D01*
X39150722Y-49293803D01*
X39150724Y-49293802D01*
X39156752Y-49291118D01*
X39311253Y-49178866D01*
X39439040Y-49036944D01*
X39534527Y-48871556D01*
X39593542Y-48689928D01*
X39602071Y-48608784D01*
X39612814Y-48506565D01*
X39613504Y-48500000D01*
X39593542Y-48310072D01*
X39534527Y-48128444D01*
X39439040Y-47963056D01*
X39426968Y-47949648D01*
X39315675Y-47826045D01*
X39315674Y-47826044D01*
X39311253Y-47821134D01*
X39212157Y-47749136D01*
X39162094Y-47712763D01*
X39162093Y-47712762D01*
X39156752Y-47708882D01*
X39150724Y-47706198D01*
X39150722Y-47706197D01*
X38988319Y-47633891D01*
X38988318Y-47633891D01*
X38982288Y-47631206D01*
X38888887Y-47611353D01*
X38801944Y-47592872D01*
X38801939Y-47592872D01*
X38795487Y-47591500D01*
X38741931Y-47591500D01*
X38673810Y-47571498D01*
X38655678Y-47557350D01*
X38617349Y-47521357D01*
X38614507Y-47518602D01*
X38594770Y-47498865D01*
X38591573Y-47496385D01*
X38582551Y-47488680D01*
X38556100Y-47463841D01*
X38550321Y-47458414D01*
X38543375Y-47454595D01*
X38543372Y-47454593D01*
X38532566Y-47448652D01*
X38516047Y-47437801D01*
X38507570Y-47431226D01*
X38500041Y-47425386D01*
X38492772Y-47422241D01*
X38492768Y-47422238D01*
X38459463Y-47407826D01*
X38448813Y-47402609D01*
X38410060Y-47381305D01*
X38390437Y-47376267D01*
X38371734Y-47369863D01*
X38360420Y-47364967D01*
X38360419Y-47364967D01*
X38353145Y-47361819D01*
X38345322Y-47360580D01*
X38345312Y-47360577D01*
X38309476Y-47354901D01*
X38297856Y-47352495D01*
X38262711Y-47343472D01*
X38262710Y-47343472D01*
X38255030Y-47341500D01*
X38234776Y-47341500D01*
X38215065Y-47339949D01*
X38202886Y-47338020D01*
X38195057Y-47336780D01*
X38187165Y-47337526D01*
X38151039Y-47340941D01*
X38139181Y-47341500D01*
X34970461Y-47341500D01*
X34902340Y-47321498D01*
X34855847Y-47267842D01*
X34851688Y-47257559D01*
X34824050Y-47179510D01*
X34824047Y-47179502D01*
X34822617Y-47175465D01*
X34711881Y-46960919D01*
X34698978Y-46935919D01*
X34698978Y-46935918D01*
X34697013Y-46932112D01*
X34687040Y-46917921D01*
X34618279Y-46820085D01*
X34539545Y-46708057D01*
X34378479Y-46534729D01*
X34356046Y-46510588D01*
X34356043Y-46510585D01*
X34353125Y-46507445D01*
X34349810Y-46504731D01*
X34349806Y-46504728D01*
X34219069Y-46397721D01*
X34141205Y-46333990D01*
X33952162Y-46218145D01*
X33911366Y-46193145D01*
X33911365Y-46193145D01*
X33907704Y-46190901D01*
X33890706Y-46183439D01*
X33720860Y-46108882D01*
X33676283Y-46089314D01*
X33621948Y-46043618D01*
X33600943Y-45975800D01*
X33619938Y-45907392D01*
X33678711Y-45857532D01*
X33870136Y-45778241D01*
X34106582Y-45640073D01*
X34322089Y-45471094D01*
X34363809Y-45428043D01*
X34509686Y-45277509D01*
X34512669Y-45274431D01*
X34515202Y-45270983D01*
X34515206Y-45270978D01*
X34672257Y-45057178D01*
X34674795Y-45053723D01*
X34702154Y-45003334D01*
X34803418Y-44816830D01*
X34803419Y-44816828D01*
X34805468Y-44813054D01*
X34851980Y-44689963D01*
X34894769Y-44633310D01*
X34961395Y-44608784D01*
X34969846Y-44608500D01*
X38460406Y-44608500D01*
X38528527Y-44628502D01*
X38549501Y-44645405D01*
X40752878Y-46848782D01*
X40786904Y-46911094D01*
X40789092Y-46924703D01*
X40806458Y-47089928D01*
X40865473Y-47271556D01*
X40960960Y-47436944D01*
X40965378Y-47441851D01*
X40965379Y-47441852D01*
X41034485Y-47518602D01*
X41088747Y-47578866D01*
X41243248Y-47691118D01*
X41249276Y-47693802D01*
X41249278Y-47693803D01*
X41313915Y-47722581D01*
X41417712Y-47768794D01*
X41511113Y-47788647D01*
X41598056Y-47807128D01*
X41598061Y-47807128D01*
X41604513Y-47808500D01*
X41795487Y-47808500D01*
X41801939Y-47807128D01*
X41801944Y-47807128D01*
X41888887Y-47788647D01*
X41982288Y-47768794D01*
X42086085Y-47722581D01*
X42150722Y-47693803D01*
X42150724Y-47693802D01*
X42156752Y-47691118D01*
X42311253Y-47578866D01*
X42365515Y-47518602D01*
X42434621Y-47441852D01*
X42434622Y-47441851D01*
X42439040Y-47436944D01*
X42534527Y-47271556D01*
X42593542Y-47089928D01*
X42613504Y-46900000D01*
X42593542Y-46710072D01*
X42534527Y-46528444D01*
X42528552Y-46518094D01*
X42442341Y-46368774D01*
X42439040Y-46363056D01*
X42415315Y-46336706D01*
X42315675Y-46226045D01*
X42315674Y-46226044D01*
X42311253Y-46221134D01*
X42156752Y-46108882D01*
X42150724Y-46106198D01*
X42150722Y-46106197D01*
X41988319Y-46033891D01*
X41988318Y-46033891D01*
X41982288Y-46031206D01*
X41888888Y-46011353D01*
X41801944Y-45992872D01*
X41801939Y-45992872D01*
X41795487Y-45991500D01*
X41739594Y-45991500D01*
X41671473Y-45971498D01*
X41650499Y-45954595D01*
X39278652Y-43582747D01*
X39271112Y-43574461D01*
X39267000Y-43567982D01*
X39217348Y-43521356D01*
X39214507Y-43518602D01*
X39194770Y-43498865D01*
X39191573Y-43496385D01*
X39182551Y-43488680D01*
X39169522Y-43476445D01*
X39150321Y-43458414D01*
X39143375Y-43454595D01*
X39143372Y-43454593D01*
X39132566Y-43448652D01*
X39116047Y-43437801D01*
X39115583Y-43437441D01*
X39100041Y-43425386D01*
X39092772Y-43422241D01*
X39092768Y-43422238D01*
X39059463Y-43407826D01*
X39048813Y-43402609D01*
X39010060Y-43381305D01*
X38990437Y-43376267D01*
X38971734Y-43369863D01*
X38960420Y-43364967D01*
X38960419Y-43364967D01*
X38953145Y-43361819D01*
X38945322Y-43360580D01*
X38945312Y-43360577D01*
X38909476Y-43354901D01*
X38897856Y-43352495D01*
X38862711Y-43343472D01*
X38862710Y-43343472D01*
X38855030Y-43341500D01*
X38834776Y-43341500D01*
X38815065Y-43339949D01*
X38802886Y-43338020D01*
X38795057Y-43336780D01*
X38787165Y-43337526D01*
X38751039Y-43340941D01*
X38739181Y-43341500D01*
X34970461Y-43341500D01*
X34902340Y-43321498D01*
X34855847Y-43267842D01*
X34851688Y-43257559D01*
X34824050Y-43179510D01*
X34824047Y-43179502D01*
X34822617Y-43175465D01*
X34697013Y-42932112D01*
X34687040Y-42917921D01*
X34605927Y-42802509D01*
X34539545Y-42708057D01*
X34415859Y-42574955D01*
X34356046Y-42510588D01*
X34356043Y-42510585D01*
X34353125Y-42507445D01*
X34349810Y-42504731D01*
X34349806Y-42504728D01*
X34166379Y-42354595D01*
X34141205Y-42333990D01*
X33907704Y-42190901D01*
X33903768Y-42189173D01*
X33660873Y-42082549D01*
X33660869Y-42082548D01*
X33656945Y-42080825D01*
X33393566Y-42005800D01*
X33389324Y-42005196D01*
X33389318Y-42005195D01*
X33188834Y-41976662D01*
X33122443Y-41967213D01*
X32978589Y-41966460D01*
X32852877Y-41965802D01*
X32852871Y-41965802D01*
X32848591Y-41965780D01*
X32844347Y-41966339D01*
X32844343Y-41966339D01*
X32725302Y-41982011D01*
X32577078Y-42001525D01*
X32572938Y-42002658D01*
X32572936Y-42002658D01*
X32500008Y-42022609D01*
X32312928Y-42073788D01*
X32308980Y-42075472D01*
X32064982Y-42179546D01*
X32064978Y-42179548D01*
X32061030Y-42181232D01*
X32041125Y-42193145D01*
X31829725Y-42319664D01*
X31829721Y-42319667D01*
X31826043Y-42321868D01*
X31612318Y-42493094D01*
X31500964Y-42610436D01*
X31490813Y-42621134D01*
X31423808Y-42691742D01*
X31264002Y-42914136D01*
X31135857Y-43156161D01*
X31134385Y-43160184D01*
X31134383Y-43160188D01*
X31043214Y-43409317D01*
X31041743Y-43413337D01*
X30983404Y-43680907D01*
X30961917Y-43953918D01*
X30977682Y-44227320D01*
X30978507Y-44231525D01*
X30978508Y-44231533D01*
X31008917Y-44386526D01*
X31030405Y-44496053D01*
X31031792Y-44500103D01*
X31031793Y-44500108D01*
X31096795Y-44689963D01*
X31119112Y-44755144D01*
X31242160Y-44999799D01*
X31244586Y-45003328D01*
X31244589Y-45003334D01*
X31394843Y-45221953D01*
X31397274Y-45225490D01*
X31581582Y-45428043D01*
X31791675Y-45603707D01*
X31795316Y-45605991D01*
X32020024Y-45746951D01*
X32020028Y-45746953D01*
X32023664Y-45749234D01*
X32087907Y-45778241D01*
X32272204Y-45861455D01*
X32326058Y-45907718D01*
X32346352Y-45975753D01*
X32326642Y-46043958D01*
X32269788Y-46092189D01*
X32233777Y-46107549D01*
X32064982Y-46179546D01*
X32064978Y-46179548D01*
X32061030Y-46181232D01*
X31942414Y-46252222D01*
X31829725Y-46319664D01*
X31829721Y-46319667D01*
X31826043Y-46321868D01*
X31612318Y-46493094D01*
X31423808Y-46691742D01*
X31264002Y-46914136D01*
X31135857Y-47156161D01*
X31134385Y-47160184D01*
X31134383Y-47160188D01*
X31060596Y-47361819D01*
X31041743Y-47413337D01*
X30983404Y-47680907D01*
X30961917Y-47953918D01*
X30977682Y-48227320D01*
X30978507Y-48231525D01*
X30978508Y-48231533D01*
X30993917Y-48310072D01*
X31030405Y-48496053D01*
X31031792Y-48500103D01*
X31031793Y-48500108D01*
X31098933Y-48696206D01*
X31119112Y-48755144D01*
X31242160Y-48999799D01*
X31244586Y-49003328D01*
X31244589Y-49003334D01*
X31361855Y-49173955D01*
X31397274Y-49225490D01*
X31400161Y-49228663D01*
X31400162Y-49228664D01*
X31459434Y-49293803D01*
X31581582Y-49428043D01*
X31791675Y-49603707D01*
X31795316Y-49605991D01*
X32020024Y-49746951D01*
X32020028Y-49746953D01*
X32023664Y-49749234D01*
X32087907Y-49778241D01*
X32272204Y-49861455D01*
X32326058Y-49907718D01*
X32346352Y-49975753D01*
X32326642Y-50043958D01*
X32269788Y-50092189D01*
X32211176Y-50117189D01*
X32064982Y-50179546D01*
X32064978Y-50179548D01*
X32061030Y-50181232D01*
X32003102Y-50215901D01*
X31829725Y-50319664D01*
X31829721Y-50319667D01*
X31826043Y-50321868D01*
X31612318Y-50493094D01*
X31423808Y-50691742D01*
X31264002Y-50914136D01*
X31135857Y-51156161D01*
X31134385Y-51160184D01*
X31134383Y-51160188D01*
X31068107Y-51341294D01*
X31041743Y-51413337D01*
X30983404Y-51680907D01*
X30961917Y-51953918D01*
X30977682Y-52227320D01*
X30978507Y-52231525D01*
X30978508Y-52231533D01*
X30983413Y-52256533D01*
X31030405Y-52496053D01*
X31031792Y-52500103D01*
X31031793Y-52500108D01*
X31096795Y-52689963D01*
X31119112Y-52755144D01*
X31242160Y-52999799D01*
X31244586Y-53003328D01*
X31244589Y-53003334D01*
X31394843Y-53221953D01*
X31397274Y-53225490D01*
X31581582Y-53428043D01*
X31791675Y-53603707D01*
X31795316Y-53605991D01*
X32020024Y-53746951D01*
X32020028Y-53746953D01*
X32023664Y-53749234D01*
X32087907Y-53778241D01*
X32272204Y-53861455D01*
X32326058Y-53907718D01*
X32346352Y-53975753D01*
X32326642Y-54043958D01*
X32269788Y-54092189D01*
X32064982Y-54179546D01*
X32064978Y-54179548D01*
X32061030Y-54181232D01*
X31942414Y-54252222D01*
X31829725Y-54319664D01*
X31829721Y-54319667D01*
X31826043Y-54321868D01*
X31612318Y-54493094D01*
X31423808Y-54691742D01*
X31264002Y-54914136D01*
X31135857Y-55156161D01*
X31134385Y-55160184D01*
X31134383Y-55160188D01*
X31043214Y-55409317D01*
X31041743Y-55413337D01*
X30983404Y-55680907D01*
X30961917Y-55953918D01*
X30977682Y-56227320D01*
X30978507Y-56231525D01*
X30978508Y-56231533D01*
X30981733Y-56247969D01*
X31030405Y-56496053D01*
X31031792Y-56500103D01*
X31031793Y-56500108D01*
X31061115Y-56585750D01*
X31119112Y-56755144D01*
X31242160Y-56999799D01*
X31244586Y-57003328D01*
X31244589Y-57003334D01*
X31389719Y-57214497D01*
X31397274Y-57225490D01*
X31581582Y-57428043D01*
X31791675Y-57603707D01*
X31795316Y-57605991D01*
X32020024Y-57746951D01*
X32020028Y-57746953D01*
X32023664Y-57749234D01*
X32091544Y-57779883D01*
X32269345Y-57860164D01*
X32269349Y-57860166D01*
X32273257Y-57861930D01*
X32277377Y-57863150D01*
X32277376Y-57863150D01*
X32531723Y-57938491D01*
X32531727Y-57938492D01*
X32535836Y-57939709D01*
X32540070Y-57940357D01*
X32540075Y-57940358D01*
X32802298Y-57980483D01*
X32802300Y-57980483D01*
X32806540Y-57981132D01*
X32945912Y-57983322D01*
X33076071Y-57985367D01*
X33076077Y-57985367D01*
X33080362Y-57985434D01*
X33352235Y-57952534D01*
X33617127Y-57883041D01*
X33621087Y-57881401D01*
X33621092Y-57881399D01*
X33743631Y-57830641D01*
X33870136Y-57778241D01*
X34106582Y-57640073D01*
X34322089Y-57471094D01*
X34363809Y-57428043D01*
X34509686Y-57277509D01*
X34512669Y-57274431D01*
X34515202Y-57270983D01*
X34515206Y-57270978D01*
X34674795Y-57053723D01*
X34676356Y-57054870D01*
X34723851Y-57013294D01*
X34794073Y-57002836D01*
X34858802Y-57032003D01*
X34865866Y-57038547D01*
X47502977Y-69675658D01*
X47537003Y-69737970D01*
X47531938Y-69808785D01*
X47489391Y-69865621D01*
X47422871Y-69890432D01*
X47412344Y-69890744D01*
X47370081Y-69890228D01*
X47370079Y-69890228D01*
X47364911Y-69890165D01*
X47144091Y-69923955D01*
X46931756Y-69993357D01*
X46733607Y-70096507D01*
X46729474Y-70099610D01*
X46729471Y-70099612D01*
X46559100Y-70227530D01*
X46554965Y-70230635D01*
X46400629Y-70392138D01*
X46293201Y-70549621D01*
X46238293Y-70594621D01*
X46167768Y-70602792D01*
X46104021Y-70571538D01*
X46083324Y-70547054D01*
X46002822Y-70422617D01*
X46002820Y-70422614D01*
X46000014Y-70418277D01*
X45849670Y-70253051D01*
X45845619Y-70249852D01*
X45845615Y-70249848D01*
X45678414Y-70117800D01*
X45678410Y-70117798D01*
X45674359Y-70114598D01*
X45478789Y-70006638D01*
X45473920Y-70004914D01*
X45473916Y-70004912D01*
X45273087Y-69933795D01*
X45273083Y-69933794D01*
X45268212Y-69932069D01*
X45263119Y-69931162D01*
X45263116Y-69931161D01*
X45053373Y-69893800D01*
X45053367Y-69893799D01*
X45048284Y-69892894D01*
X44974452Y-69891992D01*
X44830081Y-69890228D01*
X44830079Y-69890228D01*
X44824911Y-69890165D01*
X44604091Y-69923955D01*
X44391756Y-69993357D01*
X44193607Y-70096507D01*
X44189474Y-70099610D01*
X44189471Y-70099612D01*
X44019100Y-70227530D01*
X44014965Y-70230635D01*
X43860629Y-70392138D01*
X43753201Y-70549621D01*
X43698293Y-70594621D01*
X43627768Y-70602792D01*
X43564021Y-70571538D01*
X43543324Y-70547054D01*
X43462822Y-70422617D01*
X43462820Y-70422614D01*
X43460014Y-70418277D01*
X43309670Y-70253051D01*
X43305619Y-70249852D01*
X43305615Y-70249848D01*
X43138414Y-70117800D01*
X43138410Y-70117798D01*
X43134359Y-70114598D01*
X42938789Y-70006638D01*
X42933920Y-70004914D01*
X42933916Y-70004912D01*
X42733087Y-69933795D01*
X42733083Y-69933794D01*
X42728212Y-69932069D01*
X42723119Y-69931162D01*
X42723116Y-69931161D01*
X42513373Y-69893800D01*
X42513367Y-69893799D01*
X42508284Y-69892894D01*
X42434452Y-69891992D01*
X42290081Y-69890228D01*
X42290079Y-69890228D01*
X42284911Y-69890165D01*
X42064091Y-69923955D01*
X41851756Y-69993357D01*
X41653607Y-70096507D01*
X41649474Y-70099610D01*
X41649471Y-70099612D01*
X41479100Y-70227530D01*
X41474965Y-70230635D01*
X41320629Y-70392138D01*
X41213201Y-70549621D01*
X41158293Y-70594621D01*
X41087768Y-70602792D01*
X41024021Y-70571538D01*
X41003324Y-70547054D01*
X40922822Y-70422617D01*
X40922820Y-70422614D01*
X40920014Y-70418277D01*
X40769670Y-70253051D01*
X40765619Y-70249852D01*
X40765615Y-70249848D01*
X40598414Y-70117800D01*
X40598410Y-70117798D01*
X40594359Y-70114598D01*
X40398789Y-70006638D01*
X40393920Y-70004914D01*
X40393916Y-70004912D01*
X40193087Y-69933795D01*
X40193083Y-69933794D01*
X40188212Y-69932069D01*
X40183119Y-69931162D01*
X40183116Y-69931161D01*
X39973373Y-69893800D01*
X39973367Y-69893799D01*
X39968284Y-69892894D01*
X39894452Y-69891992D01*
X39750081Y-69890228D01*
X39750079Y-69890228D01*
X39744911Y-69890165D01*
X39524091Y-69923955D01*
X39311756Y-69993357D01*
X39113607Y-70096507D01*
X39109474Y-70099610D01*
X39109471Y-70099612D01*
X38939100Y-70227530D01*
X38934965Y-70230635D01*
X38780629Y-70392138D01*
X38673201Y-70549621D01*
X38618293Y-70594621D01*
X38547768Y-70602792D01*
X38484021Y-70571538D01*
X38463324Y-70547054D01*
X38382822Y-70422617D01*
X38382820Y-70422614D01*
X38380014Y-70418277D01*
X38229670Y-70253051D01*
X38225619Y-70249852D01*
X38225615Y-70249848D01*
X38058414Y-70117800D01*
X38058410Y-70117798D01*
X38054359Y-70114598D01*
X37858789Y-70006638D01*
X37853920Y-70004914D01*
X37853916Y-70004912D01*
X37653087Y-69933795D01*
X37653083Y-69933794D01*
X37648212Y-69932069D01*
X37643119Y-69931162D01*
X37643116Y-69931161D01*
X37433373Y-69893800D01*
X37433367Y-69893799D01*
X37428284Y-69892894D01*
X37354452Y-69891992D01*
X37210081Y-69890228D01*
X37210079Y-69890228D01*
X37204911Y-69890165D01*
X36984091Y-69923955D01*
X36771756Y-69993357D01*
X36573607Y-70096507D01*
X36569474Y-70099610D01*
X36569471Y-70099612D01*
X36399100Y-70227530D01*
X36394965Y-70230635D01*
X36240629Y-70392138D01*
X36133201Y-70549621D01*
X36078293Y-70594621D01*
X36007768Y-70602792D01*
X35944021Y-70571538D01*
X35923324Y-70547054D01*
X35842822Y-70422617D01*
X35842820Y-70422614D01*
X35840014Y-70418277D01*
X35689670Y-70253051D01*
X35685619Y-70249852D01*
X35685615Y-70249848D01*
X35518414Y-70117800D01*
X35518410Y-70117798D01*
X35514359Y-70114598D01*
X35318789Y-70006638D01*
X35313920Y-70004914D01*
X35313916Y-70004912D01*
X35113087Y-69933795D01*
X35113083Y-69933794D01*
X35108212Y-69932069D01*
X35103119Y-69931162D01*
X35103116Y-69931161D01*
X34893373Y-69893800D01*
X34893367Y-69893799D01*
X34888284Y-69892894D01*
X34814452Y-69891992D01*
X34670081Y-69890228D01*
X34670079Y-69890228D01*
X34664911Y-69890165D01*
X34444091Y-69923955D01*
X34231756Y-69993357D01*
X34033607Y-70096507D01*
X34029474Y-70099610D01*
X34029471Y-70099612D01*
X33859100Y-70227530D01*
X33854965Y-70230635D01*
X33700629Y-70392138D01*
X33593201Y-70549621D01*
X33538293Y-70594621D01*
X33467768Y-70602792D01*
X33404021Y-70571538D01*
X33383324Y-70547054D01*
X33302822Y-70422617D01*
X33302820Y-70422614D01*
X33300014Y-70418277D01*
X33149670Y-70253051D01*
X33145619Y-70249852D01*
X33145615Y-70249848D01*
X32978414Y-70117800D01*
X32978410Y-70117798D01*
X32974359Y-70114598D01*
X32778789Y-70006638D01*
X32773920Y-70004914D01*
X32773916Y-70004912D01*
X32573087Y-69933795D01*
X32573083Y-69933794D01*
X32568212Y-69932069D01*
X32563119Y-69931162D01*
X32563116Y-69931161D01*
X32353373Y-69893800D01*
X32353367Y-69893799D01*
X32348284Y-69892894D01*
X32274452Y-69891992D01*
X32130081Y-69890228D01*
X32130079Y-69890228D01*
X32124911Y-69890165D01*
X31904091Y-69923955D01*
X31691756Y-69993357D01*
X31493607Y-70096507D01*
X31489474Y-70099610D01*
X31489471Y-70099612D01*
X31319100Y-70227530D01*
X31314965Y-70230635D01*
X31160629Y-70392138D01*
X31157720Y-70396403D01*
X31157714Y-70396411D01*
X31120142Y-70451490D01*
X31034743Y-70576680D01*
X30940688Y-70779305D01*
X30880989Y-70994570D01*
X30857251Y-71216695D01*
X30857548Y-71221848D01*
X30857548Y-71221851D01*
X30865963Y-71367793D01*
X30870110Y-71439715D01*
X30871247Y-71444761D01*
X30871248Y-71444767D01*
X30886042Y-71510412D01*
X30919222Y-71657639D01*
X31003266Y-71864616D01*
X31040685Y-71925678D01*
X31117291Y-72050688D01*
X31119987Y-72055088D01*
X31266250Y-72223938D01*
X31438126Y-72366632D01*
X31508595Y-72407811D01*
X31511445Y-72409476D01*
X31560169Y-72461114D01*
X31573240Y-72530897D01*
X31546509Y-72596669D01*
X31506055Y-72630027D01*
X31493607Y-72636507D01*
X31489474Y-72639610D01*
X31489471Y-72639612D01*
X31320989Y-72766112D01*
X31314965Y-72770635D01*
X31160629Y-72932138D01*
X31157720Y-72936403D01*
X31157714Y-72936411D01*
X31139838Y-72962617D01*
X31034743Y-73116680D01*
X30995110Y-73202063D01*
X30944090Y-73311977D01*
X30940688Y-73319305D01*
X30880989Y-73534570D01*
X30857251Y-73756695D01*
X30870110Y-73979715D01*
X30871247Y-73984761D01*
X30871248Y-73984767D01*
X30892275Y-74078069D01*
X30919222Y-74197639D01*
X31003266Y-74404616D01*
X31054942Y-74488944D01*
X31117291Y-74590688D01*
X31119987Y-74595088D01*
X31266250Y-74763938D01*
X31438126Y-74906632D01*
X31631000Y-75019338D01*
X31839692Y-75099030D01*
X31844760Y-75100061D01*
X31844763Y-75100062D01*
X31939862Y-75119410D01*
X32058597Y-75143567D01*
X32063772Y-75143757D01*
X32063774Y-75143757D01*
X32276673Y-75151564D01*
X32276677Y-75151564D01*
X32281837Y-75151753D01*
X32286957Y-75151097D01*
X32286959Y-75151097D01*
X32498288Y-75124025D01*
X32498289Y-75124025D01*
X32503416Y-75123368D01*
X32508366Y-75121883D01*
X32712429Y-75060661D01*
X32712434Y-75060659D01*
X32717384Y-75059174D01*
X32917994Y-74960896D01*
X33099860Y-74831173D01*
X33258096Y-74673489D01*
X33317594Y-74590689D01*
X33388453Y-74492077D01*
X33389776Y-74493028D01*
X33436645Y-74449857D01*
X33506580Y-74437625D01*
X33572026Y-74465144D01*
X33599875Y-74496994D01*
X33659987Y-74595088D01*
X33806250Y-74763938D01*
X33978126Y-74906632D01*
X34171000Y-75019338D01*
X34379692Y-75099030D01*
X34384760Y-75100061D01*
X34384763Y-75100062D01*
X34479862Y-75119410D01*
X34598597Y-75143567D01*
X34603772Y-75143757D01*
X34603774Y-75143757D01*
X34816673Y-75151564D01*
X34816677Y-75151564D01*
X34821837Y-75151753D01*
X34826957Y-75151097D01*
X34826959Y-75151097D01*
X35038288Y-75124025D01*
X35038289Y-75124025D01*
X35043416Y-75123368D01*
X35048366Y-75121883D01*
X35252429Y-75060661D01*
X35252434Y-75060659D01*
X35257384Y-75059174D01*
X35457994Y-74960896D01*
X35639860Y-74831173D01*
X35798096Y-74673489D01*
X35857594Y-74590689D01*
X35928453Y-74492077D01*
X35929776Y-74493028D01*
X35976645Y-74449857D01*
X36046580Y-74437625D01*
X36112026Y-74465144D01*
X36139875Y-74496994D01*
X36199987Y-74595088D01*
X36346250Y-74763938D01*
X36518126Y-74906632D01*
X36711000Y-75019338D01*
X36919692Y-75099030D01*
X36924760Y-75100061D01*
X36924763Y-75100062D01*
X37019862Y-75119410D01*
X37138597Y-75143567D01*
X37143772Y-75143757D01*
X37143774Y-75143757D01*
X37356673Y-75151564D01*
X37356677Y-75151564D01*
X37361837Y-75151753D01*
X37366957Y-75151097D01*
X37366959Y-75151097D01*
X37578288Y-75124025D01*
X37578289Y-75124025D01*
X37583416Y-75123368D01*
X37588366Y-75121883D01*
X37792429Y-75060661D01*
X37792434Y-75060659D01*
X37797384Y-75059174D01*
X37997994Y-74960896D01*
X38179860Y-74831173D01*
X38338096Y-74673489D01*
X38397594Y-74590689D01*
X38468453Y-74492077D01*
X38469776Y-74493028D01*
X38516645Y-74449857D01*
X38586580Y-74437625D01*
X38652026Y-74465144D01*
X38679875Y-74496994D01*
X38739987Y-74595088D01*
X38886250Y-74763938D01*
X39058126Y-74906632D01*
X39251000Y-75019338D01*
X39459692Y-75099030D01*
X39464760Y-75100061D01*
X39464763Y-75100062D01*
X39559862Y-75119410D01*
X39678597Y-75143567D01*
X39683772Y-75143757D01*
X39683774Y-75143757D01*
X39896673Y-75151564D01*
X39896677Y-75151564D01*
X39901837Y-75151753D01*
X39906957Y-75151097D01*
X39906959Y-75151097D01*
X40118288Y-75124025D01*
X40118289Y-75124025D01*
X40123416Y-75123368D01*
X40128366Y-75121883D01*
X40332429Y-75060661D01*
X40332434Y-75060659D01*
X40337384Y-75059174D01*
X40537994Y-74960896D01*
X40719860Y-74831173D01*
X40878096Y-74673489D01*
X40937594Y-74590689D01*
X41008453Y-74492077D01*
X41009776Y-74493028D01*
X41056645Y-74449857D01*
X41126580Y-74437625D01*
X41192026Y-74465144D01*
X41219875Y-74496994D01*
X41279987Y-74595088D01*
X41426250Y-74763938D01*
X41598126Y-74906632D01*
X41791000Y-75019338D01*
X41999692Y-75099030D01*
X42004760Y-75100061D01*
X42004763Y-75100062D01*
X42099862Y-75119410D01*
X42218597Y-75143567D01*
X42223772Y-75143757D01*
X42223774Y-75143757D01*
X42436673Y-75151564D01*
X42436677Y-75151564D01*
X42441837Y-75151753D01*
X42446957Y-75151097D01*
X42446959Y-75151097D01*
X42658288Y-75124025D01*
X42658289Y-75124025D01*
X42663416Y-75123368D01*
X42668366Y-75121883D01*
X42872429Y-75060661D01*
X42872434Y-75060659D01*
X42877384Y-75059174D01*
X43077994Y-74960896D01*
X43259860Y-74831173D01*
X43418096Y-74673489D01*
X43477594Y-74590689D01*
X43548453Y-74492077D01*
X43549776Y-74493028D01*
X43596645Y-74449857D01*
X43666580Y-74437625D01*
X43732026Y-74465144D01*
X43759875Y-74496994D01*
X43819987Y-74595088D01*
X43966250Y-74763938D01*
X44138126Y-74906632D01*
X44331000Y-75019338D01*
X44539692Y-75099030D01*
X44544760Y-75100061D01*
X44544763Y-75100062D01*
X44639862Y-75119410D01*
X44758597Y-75143567D01*
X44763772Y-75143757D01*
X44763774Y-75143757D01*
X44976673Y-75151564D01*
X44976677Y-75151564D01*
X44981837Y-75151753D01*
X44986957Y-75151097D01*
X44986959Y-75151097D01*
X45198288Y-75124025D01*
X45198289Y-75124025D01*
X45203416Y-75123368D01*
X45208366Y-75121883D01*
X45412429Y-75060661D01*
X45412434Y-75060659D01*
X45417384Y-75059174D01*
X45617994Y-74960896D01*
X45799860Y-74831173D01*
X45958096Y-74673489D01*
X46017594Y-74590689D01*
X46088453Y-74492077D01*
X46089776Y-74493028D01*
X46136645Y-74449857D01*
X46206580Y-74437625D01*
X46272026Y-74465144D01*
X46299875Y-74496994D01*
X46359987Y-74595088D01*
X46506250Y-74763938D01*
X46678126Y-74906632D01*
X46871000Y-75019338D01*
X47079692Y-75099030D01*
X47084760Y-75100061D01*
X47084763Y-75100062D01*
X47179862Y-75119410D01*
X47298597Y-75143567D01*
X47303772Y-75143757D01*
X47303774Y-75143757D01*
X47516673Y-75151564D01*
X47516677Y-75151564D01*
X47521837Y-75151753D01*
X47526957Y-75151097D01*
X47526959Y-75151097D01*
X47738288Y-75124025D01*
X47738289Y-75124025D01*
X47743416Y-75123368D01*
X47748366Y-75121883D01*
X47952429Y-75060661D01*
X47952434Y-75060659D01*
X47957384Y-75059174D01*
X48157994Y-74960896D01*
X48339860Y-74831173D01*
X48498096Y-74673489D01*
X48557594Y-74590689D01*
X48628453Y-74492077D01*
X48629640Y-74492930D01*
X48676960Y-74449362D01*
X48746897Y-74437145D01*
X48812338Y-74464678D01*
X48840166Y-74496511D01*
X48897694Y-74590388D01*
X48903777Y-74598699D01*
X49043213Y-74759667D01*
X49050580Y-74766883D01*
X49214434Y-74902916D01*
X49222881Y-74908831D01*
X49406756Y-75016279D01*
X49416042Y-75020729D01*
X49615001Y-75096703D01*
X49624899Y-75099579D01*
X49728250Y-75120606D01*
X49742299Y-75119410D01*
X49746000Y-75109065D01*
X49746000Y-73662000D01*
X49766002Y-73593879D01*
X49819658Y-73547386D01*
X49872000Y-73536000D01*
X50128000Y-73536000D01*
X50196121Y-73556002D01*
X50242614Y-73609658D01*
X50254000Y-73662000D01*
X50254000Y-75108517D01*
X50258064Y-75122359D01*
X50271478Y-75124393D01*
X50278184Y-75123534D01*
X50288262Y-75121392D01*
X50492255Y-75060191D01*
X50501842Y-75056433D01*
X50693095Y-74962739D01*
X50701945Y-74957464D01*
X50875328Y-74833792D01*
X50883200Y-74827139D01*
X51026560Y-74684277D01*
X51088931Y-74650360D01*
X51159738Y-74655548D01*
X51216499Y-74698194D01*
X51241194Y-74764757D01*
X51241500Y-74773527D01*
X51241500Y-77548629D01*
X51221498Y-77616750D01*
X51204595Y-77637724D01*
X50362724Y-78479595D01*
X50300412Y-78513621D01*
X50273629Y-78516500D01*
X49141866Y-78516500D01*
X49079684Y-78523255D01*
X48943295Y-78574385D01*
X48826739Y-78661739D01*
X48739385Y-78778295D01*
X48736233Y-78786703D01*
X48694919Y-78896907D01*
X48652277Y-78953671D01*
X48585716Y-78978371D01*
X48516367Y-78963163D01*
X48483743Y-78937476D01*
X48433151Y-78881875D01*
X48433142Y-78881866D01*
X48429670Y-78878051D01*
X48425619Y-78874852D01*
X48425615Y-78874848D01*
X48258414Y-78742800D01*
X48258410Y-78742798D01*
X48254359Y-78739598D01*
X48058789Y-78631638D01*
X48053920Y-78629914D01*
X48053916Y-78629912D01*
X47853087Y-78558795D01*
X47853083Y-78558794D01*
X47848212Y-78557069D01*
X47843119Y-78556162D01*
X47843116Y-78556161D01*
X47633373Y-78518800D01*
X47633367Y-78518799D01*
X47628284Y-78517894D01*
X47554452Y-78516992D01*
X47410081Y-78515228D01*
X47410079Y-78515228D01*
X47404911Y-78515165D01*
X47184091Y-78548955D01*
X46971756Y-78618357D01*
X46773607Y-78721507D01*
X46769474Y-78724610D01*
X46769471Y-78724612D01*
X46599100Y-78852530D01*
X46594965Y-78855635D01*
X46568283Y-78883556D01*
X46451083Y-79006199D01*
X46440629Y-79017138D01*
X46333201Y-79174621D01*
X46278293Y-79219621D01*
X46207768Y-79227792D01*
X46144021Y-79196538D01*
X46123324Y-79172054D01*
X46042822Y-79047617D01*
X46042820Y-79047614D01*
X46040014Y-79043277D01*
X45889670Y-78878051D01*
X45885619Y-78874852D01*
X45885615Y-78874848D01*
X45718414Y-78742800D01*
X45718410Y-78742798D01*
X45714359Y-78739598D01*
X45518789Y-78631638D01*
X45513920Y-78629914D01*
X45513916Y-78629912D01*
X45313087Y-78558795D01*
X45313083Y-78558794D01*
X45308212Y-78557069D01*
X45303119Y-78556162D01*
X45303116Y-78556161D01*
X45093373Y-78518800D01*
X45093367Y-78518799D01*
X45088284Y-78517894D01*
X45014452Y-78516992D01*
X44870081Y-78515228D01*
X44870079Y-78515228D01*
X44864911Y-78515165D01*
X44644091Y-78548955D01*
X44431756Y-78618357D01*
X44233607Y-78721507D01*
X44229474Y-78724610D01*
X44229471Y-78724612D01*
X44059100Y-78852530D01*
X44054965Y-78855635D01*
X44028283Y-78883556D01*
X43911083Y-79006199D01*
X43900629Y-79017138D01*
X43793201Y-79174621D01*
X43738293Y-79219621D01*
X43667768Y-79227792D01*
X43604021Y-79196538D01*
X43583324Y-79172054D01*
X43502822Y-79047617D01*
X43502820Y-79047614D01*
X43500014Y-79043277D01*
X43349670Y-78878051D01*
X43345619Y-78874852D01*
X43345615Y-78874848D01*
X43178414Y-78742800D01*
X43178410Y-78742798D01*
X43174359Y-78739598D01*
X42978789Y-78631638D01*
X42973920Y-78629914D01*
X42973916Y-78629912D01*
X42773087Y-78558795D01*
X42773083Y-78558794D01*
X42768212Y-78557069D01*
X42763119Y-78556162D01*
X42763116Y-78556161D01*
X42553373Y-78518800D01*
X42553367Y-78518799D01*
X42548284Y-78517894D01*
X42474452Y-78516992D01*
X42330081Y-78515228D01*
X42330079Y-78515228D01*
X42324911Y-78515165D01*
X42104091Y-78548955D01*
X42091532Y-78553060D01*
X42020568Y-78555210D01*
X41963294Y-78522389D01*
X40328652Y-76887747D01*
X40321112Y-76879461D01*
X40317000Y-76872982D01*
X40267348Y-76826356D01*
X40264507Y-76823602D01*
X40244770Y-76803865D01*
X40241573Y-76801385D01*
X40232551Y-76793680D01*
X40206100Y-76768841D01*
X40200321Y-76763414D01*
X40193375Y-76759595D01*
X40193372Y-76759593D01*
X40182566Y-76753652D01*
X40166047Y-76742801D01*
X40165583Y-76742441D01*
X40150041Y-76730386D01*
X40142772Y-76727241D01*
X40142768Y-76727238D01*
X40109463Y-76712826D01*
X40098813Y-76707609D01*
X40060060Y-76686305D01*
X40040437Y-76681267D01*
X40021734Y-76674863D01*
X40010420Y-76669967D01*
X40010419Y-76669967D01*
X40003145Y-76666819D01*
X39995322Y-76665580D01*
X39995312Y-76665577D01*
X39959476Y-76659901D01*
X39947856Y-76657495D01*
X39912711Y-76648472D01*
X39912710Y-76648472D01*
X39905030Y-76646500D01*
X39884776Y-76646500D01*
X39865065Y-76644949D01*
X39852886Y-76643020D01*
X39845057Y-76641780D01*
X39837165Y-76642526D01*
X39801039Y-76645941D01*
X39789181Y-76646500D01*
X28519394Y-76646500D01*
X28451273Y-76626498D01*
X28416181Y-76592771D01*
X28309357Y-76440211D01*
X28309355Y-76440208D01*
X28306198Y-76435700D01*
X28144300Y-76273802D01*
X28139792Y-76270645D01*
X28139789Y-76270643D01*
X28061611Y-76215902D01*
X27956749Y-76142477D01*
X27951767Y-76140154D01*
X27951762Y-76140151D01*
X27754225Y-76048039D01*
X27754224Y-76048039D01*
X27749243Y-76045716D01*
X27743935Y-76044294D01*
X27743933Y-76044293D01*
X27533402Y-75987881D01*
X27533400Y-75987881D01*
X27528087Y-75986457D01*
X27300000Y-75966502D01*
X27071913Y-75986457D01*
X27066600Y-75987881D01*
X27066598Y-75987881D01*
X26856067Y-76044293D01*
X26856065Y-76044294D01*
X26850757Y-76045716D01*
X26845776Y-76048039D01*
X26845775Y-76048039D01*
X26648238Y-76140151D01*
X26648233Y-76140154D01*
X26643251Y-76142477D01*
X26538389Y-76215902D01*
X26460211Y-76270643D01*
X26460208Y-76270645D01*
X26455700Y-76273802D01*
X26293802Y-76435700D01*
X26162477Y-76623251D01*
X26160154Y-76628233D01*
X26160151Y-76628238D01*
X26079409Y-76801392D01*
X26065716Y-76830757D01*
X26006457Y-77051913D01*
X25986502Y-77280000D01*
X26006457Y-77508087D01*
X26023460Y-77571541D01*
X26034539Y-77612888D01*
X26032849Y-77683865D01*
X25993055Y-77742661D01*
X25927791Y-77770609D01*
X25912832Y-77771500D01*
X25539595Y-77771500D01*
X25471474Y-77751498D01*
X25450500Y-77734595D01*
X25409152Y-77693247D01*
X25375126Y-77630935D01*
X25376540Y-77571541D01*
X25393543Y-77508087D01*
X25413498Y-77280000D01*
X25393543Y-77051913D01*
X25334284Y-76830757D01*
X25320591Y-76801392D01*
X25239849Y-76628238D01*
X25239846Y-76628233D01*
X25237523Y-76623251D01*
X25106198Y-76435700D01*
X24944300Y-76273802D01*
X24939792Y-76270645D01*
X24939789Y-76270643D01*
X24861611Y-76215902D01*
X24756749Y-76142477D01*
X24751767Y-76140154D01*
X24751762Y-76140151D01*
X24554225Y-76048039D01*
X24554224Y-76048039D01*
X24549243Y-76045716D01*
X24543935Y-76044294D01*
X24543933Y-76044293D01*
X24333402Y-75987881D01*
X24333400Y-75987881D01*
X24328087Y-75986457D01*
X24100000Y-75966502D01*
X23871913Y-75986457D01*
X23866600Y-75987881D01*
X23866598Y-75987881D01*
X23656067Y-76044293D01*
X23656065Y-76044294D01*
X23650757Y-76045716D01*
X23645776Y-76048039D01*
X23645775Y-76048039D01*
X23448238Y-76140151D01*
X23448233Y-76140154D01*
X23443251Y-76142477D01*
X23338389Y-76215902D01*
X23260211Y-76270643D01*
X23260208Y-76270645D01*
X23255700Y-76273802D01*
X23093802Y-76435700D01*
X22962477Y-76623251D01*
X22960154Y-76628233D01*
X22960151Y-76628238D01*
X22879409Y-76801392D01*
X22865716Y-76830757D01*
X22806457Y-77051913D01*
X22786502Y-77280000D01*
X22806457Y-77508087D01*
X22807880Y-77513398D01*
X22807881Y-77513402D01*
X22834539Y-77612888D01*
X22865716Y-77729243D01*
X22868039Y-77734224D01*
X22868039Y-77734225D01*
X22960151Y-77931762D01*
X22960154Y-77931767D01*
X22962477Y-77936749D01*
X23093802Y-78124300D01*
X23255700Y-78286198D01*
X23260208Y-78289355D01*
X23260211Y-78289357D01*
X23287536Y-78308490D01*
X23443251Y-78417523D01*
X23448233Y-78419846D01*
X23448238Y-78419849D01*
X23645775Y-78511961D01*
X23650757Y-78514284D01*
X23656065Y-78515706D01*
X23656067Y-78515707D01*
X23866598Y-78572119D01*
X23866600Y-78572119D01*
X23871913Y-78573543D01*
X24100000Y-78593498D01*
X24328087Y-78573543D01*
X24333398Y-78572120D01*
X24333409Y-78572118D01*
X24391541Y-78556541D01*
X24462517Y-78558230D01*
X24513248Y-78589152D01*
X24721343Y-78797247D01*
X24728887Y-78805537D01*
X24733000Y-78812018D01*
X24738777Y-78817443D01*
X24782667Y-78858658D01*
X24785509Y-78861413D01*
X24805230Y-78881134D01*
X24808425Y-78883612D01*
X24817447Y-78891318D01*
X24849679Y-78921586D01*
X24856628Y-78925406D01*
X24867432Y-78931346D01*
X24883956Y-78942199D01*
X24899959Y-78954613D01*
X24940543Y-78972176D01*
X24951173Y-78977383D01*
X24989940Y-78998695D01*
X24997617Y-79000666D01*
X24997622Y-79000668D01*
X25009558Y-79003732D01*
X25028266Y-79010137D01*
X25046855Y-79018181D01*
X25054683Y-79019421D01*
X25054690Y-79019423D01*
X25090524Y-79025099D01*
X25102144Y-79027505D01*
X25137289Y-79036528D01*
X25144970Y-79038500D01*
X25165224Y-79038500D01*
X25184934Y-79040051D01*
X25204943Y-79043220D01*
X25212835Y-79042474D01*
X25248961Y-79039059D01*
X25260819Y-79038500D01*
X30953088Y-79038500D01*
X31021209Y-79058502D01*
X31067702Y-79112158D01*
X31077806Y-79182432D01*
X31067376Y-79217550D01*
X30988996Y-79386406D01*
X30980688Y-79404305D01*
X30920989Y-79619570D01*
X30897251Y-79841695D01*
X30897548Y-79846848D01*
X30897548Y-79846851D01*
X30899404Y-79879041D01*
X30910110Y-80064715D01*
X30911247Y-80069761D01*
X30911248Y-80069767D01*
X30925229Y-80131803D01*
X30959222Y-80282639D01*
X31043266Y-80489616D01*
X31080685Y-80550678D01*
X31157291Y-80675688D01*
X31159987Y-80680088D01*
X31306250Y-80848938D01*
X31478126Y-80991632D01*
X31548595Y-81032811D01*
X31551445Y-81034476D01*
X31600169Y-81086114D01*
X31613240Y-81155897D01*
X31586509Y-81221669D01*
X31546055Y-81255027D01*
X31533607Y-81261507D01*
X31529474Y-81264610D01*
X31529471Y-81264612D01*
X31443809Y-81328929D01*
X31354965Y-81395635D01*
X31200629Y-81557138D01*
X31074743Y-81741680D01*
X30980688Y-81944305D01*
X30920989Y-82159570D01*
X30897251Y-82381695D01*
X30910110Y-82604715D01*
X30911247Y-82609761D01*
X30911248Y-82609767D01*
X30924597Y-82669000D01*
X30959222Y-82822639D01*
X31043266Y-83029616D01*
X31045965Y-83034020D01*
X31070872Y-83074665D01*
X31089410Y-83143199D01*
X31067954Y-83210876D01*
X31013314Y-83256208D01*
X30963439Y-83266500D01*
X22399872Y-83266500D01*
X22331751Y-83246498D01*
X22285258Y-83192842D01*
X22275154Y-83122568D01*
X22304648Y-83057988D01*
X22350134Y-83024732D01*
X22465496Y-82975169D01*
X22472263Y-82971765D01*
X22748042Y-82811580D01*
X22754349Y-82807390D01*
X22964305Y-82648889D01*
X22972761Y-82637496D01*
X22966045Y-82625256D01*
X21262810Y-80922020D01*
X21248869Y-80914408D01*
X21247034Y-80914539D01*
X21240420Y-80918790D01*
X19535818Y-82623393D01*
X19528703Y-82636423D01*
X19536227Y-82646854D01*
X19675483Y-82759020D01*
X19681657Y-82763408D01*
X19952271Y-82932178D01*
X19958931Y-82935794D01*
X20152691Y-83026352D01*
X20205935Y-83073315D01*
X20225336Y-83141610D01*
X20204735Y-83209552D01*
X20150672Y-83255570D01*
X20099341Y-83266500D01*
X18609500Y-83266500D01*
X18541379Y-83246498D01*
X18494886Y-83192842D01*
X18483500Y-83140500D01*
X18483500Y-81584807D01*
X18503502Y-81516686D01*
X18557158Y-81470193D01*
X18627432Y-81460089D01*
X18692012Y-81489583D01*
X18725006Y-81534464D01*
X18831227Y-81778173D01*
X18834669Y-81784929D01*
X18996296Y-82059865D01*
X19000519Y-82066150D01*
X19151463Y-82263934D01*
X19162989Y-82272396D01*
X19175054Y-82265735D01*
X20877980Y-80562810D01*
X20884357Y-80551131D01*
X21614408Y-80551131D01*
X21614539Y-80552966D01*
X21618790Y-80559580D01*
X23323285Y-82264074D01*
X23336408Y-82271240D01*
X23346709Y-82263851D01*
X23450751Y-82136055D01*
X23455164Y-82129914D01*
X23625349Y-81860187D01*
X23629005Y-81853536D01*
X23765544Y-81565335D01*
X23768375Y-81558295D01*
X23869306Y-81255767D01*
X23871270Y-81248433D01*
X23935122Y-80935989D01*
X23936194Y-80928465D01*
X23962173Y-80609051D01*
X23962378Y-80604576D01*
X23962927Y-80552221D01*
X23962817Y-80547789D01*
X23943529Y-80227853D01*
X23942621Y-80220351D01*
X23885319Y-79906593D01*
X23883518Y-79899260D01*
X23788935Y-79594655D01*
X23786263Y-79587583D01*
X23655781Y-79296570D01*
X23652264Y-79289843D01*
X23487771Y-79016621D01*
X23483481Y-79010377D01*
X23347991Y-78836647D01*
X23336199Y-78828178D01*
X23324486Y-78834725D01*
X21622020Y-80537190D01*
X21614408Y-80551131D01*
X20884357Y-80551131D01*
X20885592Y-80548869D01*
X20885461Y-80547034D01*
X20881210Y-80540420D01*
X19176445Y-78835656D01*
X19163510Y-78828592D01*
X19152949Y-78836252D01*
X19032766Y-78987072D01*
X19028410Y-78993270D01*
X18861059Y-79264764D01*
X18857479Y-79271440D01*
X18723926Y-79561138D01*
X18677242Y-79614628D01*
X18609050Y-79634386D01*
X18541001Y-79614141D01*
X18494700Y-79560320D01*
X18483500Y-79508387D01*
X18483500Y-78463423D01*
X19527917Y-78463423D01*
X19534520Y-78475309D01*
X21237190Y-80177980D01*
X21251131Y-80185592D01*
X21252966Y-80185461D01*
X21259580Y-80181210D01*
X22964559Y-78476230D01*
X22971571Y-78463389D01*
X22963777Y-78452701D01*
X22801298Y-78324613D01*
X22795075Y-78320288D01*
X22522702Y-78154357D01*
X22516025Y-78150822D01*
X22225686Y-78018813D01*
X22218616Y-78016099D01*
X21914537Y-77919932D01*
X21907186Y-77918085D01*
X21593746Y-77859142D01*
X21586237Y-77858194D01*
X21267989Y-77837335D01*
X21260424Y-77837295D01*
X20941964Y-77854821D01*
X20934450Y-77855690D01*
X20620405Y-77911348D01*
X20613044Y-77913115D01*
X20307980Y-78006092D01*
X20300860Y-78008740D01*
X20009182Y-78137690D01*
X20002445Y-78141167D01*
X19728355Y-78304233D01*
X19722091Y-78308490D01*
X19536385Y-78451762D01*
X19527917Y-78463423D01*
X18483500Y-78463423D01*
X18483500Y-67120000D01*
X22786502Y-67120000D01*
X22806457Y-67348087D01*
X22865716Y-67569243D01*
X22868039Y-67574224D01*
X22868039Y-67574225D01*
X22960151Y-67771762D01*
X22960154Y-67771767D01*
X22962477Y-67776749D01*
X23093802Y-67964300D01*
X23255700Y-68126198D01*
X23260208Y-68129355D01*
X23260211Y-68129357D01*
X23297139Y-68155214D01*
X23443251Y-68257523D01*
X23448233Y-68259846D01*
X23448238Y-68259849D01*
X23645775Y-68351961D01*
X23650757Y-68354284D01*
X23656065Y-68355706D01*
X23656067Y-68355707D01*
X23866598Y-68412119D01*
X23866600Y-68412119D01*
X23871913Y-68413543D01*
X24100000Y-68433498D01*
X24328087Y-68413543D01*
X24333400Y-68412119D01*
X24333402Y-68412119D01*
X24543933Y-68355707D01*
X24543935Y-68355706D01*
X24549243Y-68354284D01*
X24554225Y-68351961D01*
X24751762Y-68259849D01*
X24751767Y-68259846D01*
X24756749Y-68257523D01*
X24902861Y-68155214D01*
X24939789Y-68129357D01*
X24939792Y-68129355D01*
X24944300Y-68126198D01*
X25106198Y-67964300D01*
X25237523Y-67776749D01*
X25239846Y-67771767D01*
X25239849Y-67771762D01*
X25331961Y-67574225D01*
X25331961Y-67574224D01*
X25334284Y-67569243D01*
X25393543Y-67348087D01*
X25413498Y-67120000D01*
X25986502Y-67120000D01*
X26006457Y-67348087D01*
X26065716Y-67569243D01*
X26068039Y-67574224D01*
X26068039Y-67574225D01*
X26160151Y-67771762D01*
X26160154Y-67771767D01*
X26162477Y-67776749D01*
X26293802Y-67964300D01*
X26455700Y-68126198D01*
X26460208Y-68129355D01*
X26460211Y-68129357D01*
X26497139Y-68155214D01*
X26643251Y-68257523D01*
X26648233Y-68259846D01*
X26648238Y-68259849D01*
X26845775Y-68351961D01*
X26850757Y-68354284D01*
X26856065Y-68355706D01*
X26856067Y-68355707D01*
X27066598Y-68412119D01*
X27066600Y-68412119D01*
X27071913Y-68413543D01*
X27300000Y-68433498D01*
X27528087Y-68413543D01*
X27533400Y-68412119D01*
X27533402Y-68412119D01*
X27743933Y-68355707D01*
X27743935Y-68355706D01*
X27749243Y-68354284D01*
X27754225Y-68351961D01*
X27951762Y-68259849D01*
X27951767Y-68259846D01*
X27956749Y-68257523D01*
X28102861Y-68155214D01*
X28139789Y-68129357D01*
X28139792Y-68129355D01*
X28144300Y-68126198D01*
X28306198Y-67964300D01*
X28437523Y-67776749D01*
X28439846Y-67771767D01*
X28439849Y-67771762D01*
X28531961Y-67574225D01*
X28531961Y-67574224D01*
X28534284Y-67569243D01*
X28593543Y-67348087D01*
X28613498Y-67120000D01*
X28593543Y-66891913D01*
X28534284Y-66670757D01*
X28531961Y-66665775D01*
X28439849Y-66468238D01*
X28439846Y-66468233D01*
X28437523Y-66463251D01*
X28306198Y-66275700D01*
X28144300Y-66113802D01*
X28139792Y-66110645D01*
X28139789Y-66110643D01*
X28061611Y-66055902D01*
X27956749Y-65982477D01*
X27951767Y-65980154D01*
X27951762Y-65980151D01*
X27754225Y-65888039D01*
X27754224Y-65888039D01*
X27749243Y-65885716D01*
X27743935Y-65884294D01*
X27743933Y-65884293D01*
X27533402Y-65827881D01*
X27533400Y-65827881D01*
X27528087Y-65826457D01*
X27300000Y-65806502D01*
X27071913Y-65826457D01*
X27066600Y-65827881D01*
X27066598Y-65827881D01*
X26856067Y-65884293D01*
X26856065Y-65884294D01*
X26850757Y-65885716D01*
X26845776Y-65888039D01*
X26845775Y-65888039D01*
X26648238Y-65980151D01*
X26648233Y-65980154D01*
X26643251Y-65982477D01*
X26538389Y-66055902D01*
X26460211Y-66110643D01*
X26460208Y-66110645D01*
X26455700Y-66113802D01*
X26293802Y-66275700D01*
X26162477Y-66463251D01*
X26160154Y-66468233D01*
X26160151Y-66468238D01*
X26068039Y-66665775D01*
X26065716Y-66670757D01*
X26006457Y-66891913D01*
X25986502Y-67120000D01*
X25413498Y-67120000D01*
X25393543Y-66891913D01*
X25334284Y-66670757D01*
X25331961Y-66665775D01*
X25239849Y-66468238D01*
X25239846Y-66468233D01*
X25237523Y-66463251D01*
X25106198Y-66275700D01*
X24944300Y-66113802D01*
X24939792Y-66110645D01*
X24939789Y-66110643D01*
X24861611Y-66055902D01*
X24756749Y-65982477D01*
X24751767Y-65980154D01*
X24751762Y-65980151D01*
X24554225Y-65888039D01*
X24554224Y-65888039D01*
X24549243Y-65885716D01*
X24543935Y-65884294D01*
X24543933Y-65884293D01*
X24333402Y-65827881D01*
X24333400Y-65827881D01*
X24328087Y-65826457D01*
X24100000Y-65806502D01*
X23871913Y-65826457D01*
X23866600Y-65827881D01*
X23866598Y-65827881D01*
X23656067Y-65884293D01*
X23656065Y-65884294D01*
X23650757Y-65885716D01*
X23645776Y-65888039D01*
X23645775Y-65888039D01*
X23448238Y-65980151D01*
X23448233Y-65980154D01*
X23443251Y-65982477D01*
X23338389Y-66055902D01*
X23260211Y-66110643D01*
X23260208Y-66110645D01*
X23255700Y-66113802D01*
X23093802Y-66275700D01*
X22962477Y-66463251D01*
X22960154Y-66468233D01*
X22960151Y-66468238D01*
X22868039Y-66665775D01*
X22865716Y-66670757D01*
X22806457Y-66891913D01*
X22786502Y-67120000D01*
X18483500Y-67120000D01*
X18483500Y-37453918D01*
X30961917Y-37453918D01*
X30977682Y-37727320D01*
X30978507Y-37731525D01*
X30978508Y-37731533D01*
X30994032Y-37810657D01*
X31030405Y-37996053D01*
X31031792Y-38000103D01*
X31031793Y-38000108D01*
X31117723Y-38251088D01*
X31119112Y-38255144D01*
X31146217Y-38309036D01*
X31185548Y-38387237D01*
X31242160Y-38499799D01*
X31244586Y-38503328D01*
X31244589Y-38503334D01*
X31394843Y-38721953D01*
X31397274Y-38725490D01*
X31581582Y-38928043D01*
X31791675Y-39103707D01*
X31795316Y-39105991D01*
X32020024Y-39246951D01*
X32020028Y-39246953D01*
X32023664Y-39249234D01*
X32091544Y-39279883D01*
X32269345Y-39360164D01*
X32269349Y-39360166D01*
X32273257Y-39361930D01*
X32277377Y-39363150D01*
X32277376Y-39363150D01*
X32531723Y-39438491D01*
X32531727Y-39438492D01*
X32535836Y-39439709D01*
X32540070Y-39440357D01*
X32540075Y-39440358D01*
X32802298Y-39480483D01*
X32802300Y-39480483D01*
X32806540Y-39481132D01*
X32945912Y-39483322D01*
X33076071Y-39485367D01*
X33076077Y-39485367D01*
X33080362Y-39485434D01*
X33352235Y-39452534D01*
X33617127Y-39383041D01*
X33621087Y-39381401D01*
X33621092Y-39381399D01*
X33743632Y-39330641D01*
X33870136Y-39278241D01*
X33988359Y-39209157D01*
X34102879Y-39142237D01*
X34102880Y-39142236D01*
X34106582Y-39140073D01*
X34322089Y-38971094D01*
X34342660Y-38949867D01*
X34509686Y-38777509D01*
X34512669Y-38774431D01*
X34515202Y-38770983D01*
X34515206Y-38770978D01*
X34672257Y-38557178D01*
X34674795Y-38553723D01*
X34688580Y-38528334D01*
X34803418Y-38316830D01*
X34803419Y-38316828D01*
X34805468Y-38313054D01*
X34891304Y-38085895D01*
X34900751Y-38060895D01*
X34900752Y-38060891D01*
X34902269Y-38056877D01*
X34958661Y-37810657D01*
X34962449Y-37794117D01*
X34962450Y-37794113D01*
X34963407Y-37789933D01*
X34963994Y-37783365D01*
X34987531Y-37519627D01*
X34987531Y-37519625D01*
X34987751Y-37517161D01*
X34988193Y-37475000D01*
X34983339Y-37403794D01*
X34969859Y-37206055D01*
X34969858Y-37206049D01*
X34969567Y-37201778D01*
X34914032Y-36933612D01*
X34822617Y-36675465D01*
X34711881Y-36460919D01*
X34698978Y-36435919D01*
X34698978Y-36435918D01*
X34697013Y-36432112D01*
X34687040Y-36417921D01*
X34618279Y-36320084D01*
X34539545Y-36208057D01*
X34379277Y-36035588D01*
X34356046Y-36010588D01*
X34356043Y-36010585D01*
X34353125Y-36007445D01*
X34349810Y-36004731D01*
X34349806Y-36004728D01*
X34169013Y-35856751D01*
X34141205Y-35833990D01*
X33952162Y-35718145D01*
X33911366Y-35693145D01*
X33911365Y-35693145D01*
X33907704Y-35690901D01*
X33890706Y-35683439D01*
X33713896Y-35605825D01*
X33676283Y-35589314D01*
X33621948Y-35543618D01*
X33600943Y-35475800D01*
X33619938Y-35407392D01*
X33678711Y-35357532D01*
X33870136Y-35278241D01*
X33988359Y-35209157D01*
X34102879Y-35142237D01*
X34102880Y-35142236D01*
X34106582Y-35140073D01*
X34322089Y-34971094D01*
X34342660Y-34949867D01*
X34509686Y-34777509D01*
X34512669Y-34774431D01*
X34515202Y-34770983D01*
X34515206Y-34770978D01*
X34672257Y-34557178D01*
X34674795Y-34553723D01*
X34688580Y-34528334D01*
X34803418Y-34316830D01*
X34803419Y-34316828D01*
X34805468Y-34313054D01*
X34853868Y-34184966D01*
X34885974Y-34100000D01*
X36586496Y-34100000D01*
X36587186Y-34106565D01*
X36605430Y-34280144D01*
X36606458Y-34289928D01*
X36665473Y-34471556D01*
X36760960Y-34636944D01*
X36765378Y-34641851D01*
X36765379Y-34641852D01*
X36884325Y-34773955D01*
X36888747Y-34778866D01*
X37043248Y-34891118D01*
X37049276Y-34893802D01*
X37049278Y-34893803D01*
X37211681Y-34966109D01*
X37217712Y-34968794D01*
X37311112Y-34988647D01*
X37398056Y-35007128D01*
X37398061Y-35007128D01*
X37404513Y-35008500D01*
X37595487Y-35008500D01*
X37601939Y-35007128D01*
X37601944Y-35007128D01*
X37688888Y-34988647D01*
X37782288Y-34968794D01*
X37788319Y-34966109D01*
X37950722Y-34893803D01*
X37950724Y-34893802D01*
X37956752Y-34891118D01*
X38111253Y-34778866D01*
X38115675Y-34773955D01*
X38234621Y-34641852D01*
X38234622Y-34641851D01*
X38239040Y-34636944D01*
X38334527Y-34471556D01*
X38393542Y-34289928D01*
X38398124Y-34246329D01*
X38425137Y-34180673D01*
X38483358Y-34140043D01*
X38523434Y-34133500D01*
X48103863Y-34133500D01*
X48171984Y-34153502D01*
X48218477Y-34207158D01*
X48223070Y-34218686D01*
X48244112Y-34280144D01*
X48246039Y-34283975D01*
X48352660Y-34495968D01*
X48367160Y-34524799D01*
X48369586Y-34528328D01*
X48369589Y-34528334D01*
X48502661Y-34721953D01*
X48522274Y-34750490D01*
X48525161Y-34753663D01*
X48525162Y-34753664D01*
X48546859Y-34777509D01*
X48706582Y-34953043D01*
X48916675Y-35128707D01*
X48920316Y-35130991D01*
X49145024Y-35271951D01*
X49145028Y-35271953D01*
X49148664Y-35274234D01*
X49212907Y-35303241D01*
X49397204Y-35386455D01*
X49451058Y-35432718D01*
X49471352Y-35500753D01*
X49451642Y-35568958D01*
X49394788Y-35617189D01*
X49189982Y-35704546D01*
X49189978Y-35704548D01*
X49186030Y-35706232D01*
X49166125Y-35718145D01*
X48954725Y-35844664D01*
X48954721Y-35844667D01*
X48951043Y-35846868D01*
X48737318Y-36018094D01*
X48720717Y-36035588D01*
X48553724Y-36211562D01*
X48548808Y-36216742D01*
X48389002Y-36439136D01*
X48386998Y-36442921D01*
X48271962Y-36660188D01*
X48260857Y-36681161D01*
X48259385Y-36685184D01*
X48259383Y-36685188D01*
X48223296Y-36783801D01*
X48181102Y-36840899D01*
X48114736Y-36866121D01*
X48104970Y-36866500D01*
X40476996Y-36866500D01*
X40408875Y-36846498D01*
X40402935Y-36842436D01*
X40362094Y-36812763D01*
X40362093Y-36812762D01*
X40356752Y-36808882D01*
X40350724Y-36806198D01*
X40350722Y-36806197D01*
X40188319Y-36733891D01*
X40188318Y-36733891D01*
X40182288Y-36731206D01*
X40088887Y-36711353D01*
X40001944Y-36692872D01*
X40001939Y-36692872D01*
X39995487Y-36691500D01*
X39804513Y-36691500D01*
X39798061Y-36692872D01*
X39798056Y-36692872D01*
X39711113Y-36711353D01*
X39617712Y-36731206D01*
X39611682Y-36733891D01*
X39611681Y-36733891D01*
X39449278Y-36806197D01*
X39449276Y-36806198D01*
X39443248Y-36808882D01*
X39437907Y-36812762D01*
X39437906Y-36812763D01*
X39397065Y-36842436D01*
X39288747Y-36921134D01*
X39284326Y-36926044D01*
X39284325Y-36926045D01*
X39258638Y-36954574D01*
X39160960Y-37063056D01*
X39065473Y-37228444D01*
X39006458Y-37410072D01*
X39005768Y-37416633D01*
X39005768Y-37416635D01*
X38999634Y-37475000D01*
X38986496Y-37600000D01*
X38987186Y-37606565D01*
X39000321Y-37731533D01*
X39006458Y-37789928D01*
X39065473Y-37971556D01*
X39068776Y-37977278D01*
X39068777Y-37977279D01*
X39102686Y-38036010D01*
X39160960Y-38136944D01*
X39165378Y-38141851D01*
X39165379Y-38141852D01*
X39267388Y-38255144D01*
X39288747Y-38278866D01*
X39443248Y-38391118D01*
X39449276Y-38393802D01*
X39449278Y-38393803D01*
X39611681Y-38466109D01*
X39617712Y-38468794D01*
X39711112Y-38488647D01*
X39798056Y-38507128D01*
X39798061Y-38507128D01*
X39804513Y-38508500D01*
X39995487Y-38508500D01*
X40001939Y-38507128D01*
X40001944Y-38507128D01*
X40088888Y-38488647D01*
X40182288Y-38468794D01*
X40188319Y-38466109D01*
X40350722Y-38393803D01*
X40350724Y-38393802D01*
X40356752Y-38391118D01*
X40511253Y-38278866D01*
X40604603Y-38175190D01*
X40665049Y-38137950D01*
X40698239Y-38133500D01*
X48103863Y-38133500D01*
X48171984Y-38153502D01*
X48218477Y-38207158D01*
X48223070Y-38218686D01*
X48244112Y-38280144D01*
X48246039Y-38283975D01*
X48358963Y-38508500D01*
X48367160Y-38524799D01*
X48369586Y-38528328D01*
X48369589Y-38528334D01*
X48502661Y-38721953D01*
X48522274Y-38750490D01*
X48525161Y-38753663D01*
X48525162Y-38753664D01*
X48546859Y-38777509D01*
X48706582Y-38953043D01*
X48916675Y-39128707D01*
X48920316Y-39130991D01*
X49145024Y-39271951D01*
X49145028Y-39271953D01*
X49148664Y-39274234D01*
X49212907Y-39303241D01*
X49397204Y-39386455D01*
X49451058Y-39432718D01*
X49471352Y-39500753D01*
X49451642Y-39568958D01*
X49394788Y-39617189D01*
X49189982Y-39704546D01*
X49189978Y-39704548D01*
X49186030Y-39706232D01*
X49166125Y-39718145D01*
X48954725Y-39844664D01*
X48954721Y-39844667D01*
X48951043Y-39846868D01*
X48737318Y-40018094D01*
X48548808Y-40216742D01*
X48389002Y-40439136D01*
X48260857Y-40681161D01*
X48259385Y-40685184D01*
X48259383Y-40685188D01*
X48223296Y-40783801D01*
X48181102Y-40840899D01*
X48114736Y-40866121D01*
X48104970Y-40866500D01*
X44278765Y-40866500D01*
X44267581Y-40865973D01*
X44260093Y-40864299D01*
X44252170Y-40864548D01*
X44192035Y-40866438D01*
X44188077Y-40866500D01*
X44160146Y-40866500D01*
X44156231Y-40866995D01*
X44156227Y-40866995D01*
X44156169Y-40867003D01*
X44156140Y-40867006D01*
X44144298Y-40867939D01*
X44100112Y-40869327D01*
X44082746Y-40874372D01*
X44080660Y-40874978D01*
X44061308Y-40878986D01*
X44049070Y-40880532D01*
X44049068Y-40880533D01*
X44041205Y-40881526D01*
X44000088Y-40897806D01*
X43988887Y-40901641D01*
X43946408Y-40913982D01*
X43939589Y-40918015D01*
X43939584Y-40918017D01*
X43928973Y-40924293D01*
X43911223Y-40932990D01*
X43892385Y-40940448D01*
X43885969Y-40945109D01*
X43885968Y-40945110D01*
X43856627Y-40966428D01*
X43846703Y-40972947D01*
X43815462Y-40991422D01*
X43815457Y-40991426D01*
X43808639Y-40995458D01*
X43794315Y-41009782D01*
X43779283Y-41022621D01*
X43762895Y-41034528D01*
X43734714Y-41068593D01*
X43726724Y-41077373D01*
X42449502Y-42354595D01*
X42387190Y-42388621D01*
X42360407Y-42391500D01*
X42304515Y-42391500D01*
X42298063Y-42392872D01*
X42298058Y-42392872D01*
X42211114Y-42411353D01*
X42117714Y-42431206D01*
X42111684Y-42433891D01*
X42111683Y-42433891D01*
X41949280Y-42506197D01*
X41949278Y-42506198D01*
X41943250Y-42508882D01*
X41788749Y-42621134D01*
X41784328Y-42626044D01*
X41784327Y-42626045D01*
X41669419Y-42753664D01*
X41660962Y-42763056D01*
X41565475Y-42928444D01*
X41506460Y-43110072D01*
X41505770Y-43116633D01*
X41505770Y-43116635D01*
X41500679Y-43165073D01*
X41486498Y-43300000D01*
X41487188Y-43306565D01*
X41505212Y-43478050D01*
X41506460Y-43489928D01*
X41565475Y-43671556D01*
X41660962Y-43836944D01*
X41788749Y-43978866D01*
X41943250Y-44091118D01*
X41949278Y-44093802D01*
X41949280Y-44093803D01*
X42111683Y-44166109D01*
X42117714Y-44168794D01*
X42211115Y-44188647D01*
X42298058Y-44207128D01*
X42298063Y-44207128D01*
X42304515Y-44208500D01*
X42495489Y-44208500D01*
X42501941Y-44207128D01*
X42501946Y-44207128D01*
X42588889Y-44188647D01*
X42682290Y-44168794D01*
X42688321Y-44166109D01*
X42850724Y-44093803D01*
X42850726Y-44093802D01*
X42856754Y-44091118D01*
X43011255Y-43978866D01*
X43139042Y-43836944D01*
X43234529Y-43671556D01*
X43293544Y-43489928D01*
X43294793Y-43478050D01*
X43304555Y-43385164D01*
X43310909Y-43324706D01*
X43337922Y-43259050D01*
X43347124Y-43248782D01*
X44425501Y-42170405D01*
X44487813Y-42136379D01*
X44514596Y-42133500D01*
X48103863Y-42133500D01*
X48171984Y-42153502D01*
X48218477Y-42207158D01*
X48223070Y-42218686D01*
X48244112Y-42280144D01*
X48271194Y-42333990D01*
X48361107Y-42512763D01*
X48367160Y-42524799D01*
X48369586Y-42528328D01*
X48369589Y-42528334D01*
X48481897Y-42691742D01*
X48522274Y-42750490D01*
X48525161Y-42753663D01*
X48525162Y-42753664D01*
X48674624Y-42917921D01*
X48706582Y-42953043D01*
X48916675Y-43128707D01*
X48920316Y-43130991D01*
X49145024Y-43271951D01*
X49145028Y-43271953D01*
X49148664Y-43274234D01*
X49216544Y-43304883D01*
X49394345Y-43385164D01*
X49394349Y-43385166D01*
X49398257Y-43386930D01*
X49402377Y-43388150D01*
X49402376Y-43388150D01*
X49656723Y-43463491D01*
X49656727Y-43463492D01*
X49660836Y-43464709D01*
X49665070Y-43465357D01*
X49665075Y-43465358D01*
X49927298Y-43505483D01*
X49927300Y-43505483D01*
X49931540Y-43506132D01*
X50070912Y-43508322D01*
X50201071Y-43510367D01*
X50201077Y-43510367D01*
X50205362Y-43510434D01*
X50477235Y-43477534D01*
X50742127Y-43408041D01*
X50746087Y-43406401D01*
X50746092Y-43406399D01*
X50914166Y-43336780D01*
X50995136Y-43303241D01*
X51231582Y-43165073D01*
X51447089Y-42996094D01*
X51488809Y-42953043D01*
X51634686Y-42802509D01*
X51637669Y-42799431D01*
X51640202Y-42795983D01*
X51640206Y-42795978D01*
X51797257Y-42582178D01*
X51799795Y-42578723D01*
X51827154Y-42528334D01*
X51928418Y-42341830D01*
X51928419Y-42341828D01*
X51930468Y-42338054D01*
X52000204Y-42153502D01*
X52025751Y-42085895D01*
X52025752Y-42085891D01*
X52027269Y-42081877D01*
X52088407Y-41814933D01*
X52112751Y-41542161D01*
X52113193Y-41500000D01*
X52094567Y-41226778D01*
X52039032Y-40958612D01*
X51947617Y-40700465D01*
X51822013Y-40457112D01*
X51812040Y-40442921D01*
X51667008Y-40236562D01*
X51664545Y-40233057D01*
X51478125Y-40032445D01*
X51474810Y-40029731D01*
X51474806Y-40029728D01*
X51269523Y-39861706D01*
X51266205Y-39858990D01*
X51032704Y-39715901D01*
X51015706Y-39708439D01*
X50904404Y-39659581D01*
X50801283Y-39614314D01*
X50746948Y-39568618D01*
X50725943Y-39500800D01*
X50744938Y-39432392D01*
X50803711Y-39382532D01*
X50850503Y-39363150D01*
X50995136Y-39303241D01*
X51231582Y-39165073D01*
X51447089Y-38996094D01*
X51474305Y-38968010D01*
X51634686Y-38802509D01*
X51637669Y-38799431D01*
X51640202Y-38795983D01*
X51640206Y-38795978D01*
X51797257Y-38582178D01*
X51799795Y-38578723D01*
X51827154Y-38528334D01*
X51928418Y-38341830D01*
X51928419Y-38341828D01*
X51930468Y-38338054D01*
X52000204Y-38153502D01*
X52025751Y-38085895D01*
X52025752Y-38085891D01*
X52027269Y-38081877D01*
X52088407Y-37814933D01*
X52090079Y-37796206D01*
X52112531Y-37544627D01*
X52112531Y-37544625D01*
X52112751Y-37542161D01*
X52113193Y-37500000D01*
X52110052Y-37453918D01*
X52094859Y-37231055D01*
X52094858Y-37231049D01*
X52094567Y-37226778D01*
X52090276Y-37206055D01*
X52061846Y-37068774D01*
X52039032Y-36958612D01*
X51947617Y-36700465D01*
X51822013Y-36457112D01*
X51812040Y-36442921D01*
X51667008Y-36236562D01*
X51664545Y-36233057D01*
X51478125Y-36032445D01*
X51474810Y-36029731D01*
X51474806Y-36029728D01*
X51269523Y-35861706D01*
X51266205Y-35858990D01*
X51032704Y-35715901D01*
X51015706Y-35708439D01*
X50904404Y-35659581D01*
X50801283Y-35614314D01*
X50746948Y-35568618D01*
X50725943Y-35500800D01*
X50744938Y-35432392D01*
X50803711Y-35382532D01*
X50995136Y-35303241D01*
X51231582Y-35165073D01*
X51447089Y-34996094D01*
X51474305Y-34968010D01*
X51634686Y-34802509D01*
X51637669Y-34799431D01*
X51640202Y-34795983D01*
X51640206Y-34795978D01*
X51797257Y-34582178D01*
X51799795Y-34578723D01*
X51827154Y-34528334D01*
X51928418Y-34341830D01*
X51928419Y-34341828D01*
X51930468Y-34338054D01*
X52005290Y-34140043D01*
X52025751Y-34085895D01*
X52025752Y-34085891D01*
X52027269Y-34081877D01*
X52088407Y-33814933D01*
X52090639Y-33789933D01*
X52112531Y-33544627D01*
X52112531Y-33544625D01*
X52112751Y-33542161D01*
X52113193Y-33500000D01*
X52110052Y-33453918D01*
X52094859Y-33231055D01*
X52094858Y-33231049D01*
X52094567Y-33226778D01*
X52090276Y-33206055D01*
X52061809Y-33068598D01*
X52039032Y-32958612D01*
X51947617Y-32700465D01*
X51822013Y-32457112D01*
X51807119Y-32435919D01*
X51667008Y-32236562D01*
X51664545Y-32233057D01*
X51478125Y-32032445D01*
X51474810Y-32029731D01*
X51474806Y-32029728D01*
X51269523Y-31861706D01*
X51266205Y-31858990D01*
X51032704Y-31715901D01*
X50999707Y-31701416D01*
X50801283Y-31614314D01*
X50746948Y-31568618D01*
X50725943Y-31500800D01*
X50744938Y-31432392D01*
X50803711Y-31382532D01*
X50855240Y-31361188D01*
X50995136Y-31303241D01*
X51231582Y-31165073D01*
X51447089Y-30996094D01*
X51488809Y-30953043D01*
X51634686Y-30802509D01*
X51637669Y-30799431D01*
X51640202Y-30795983D01*
X51640206Y-30795978D01*
X51797257Y-30582178D01*
X51799795Y-30578723D01*
X51811637Y-30556913D01*
X51928418Y-30341830D01*
X51928419Y-30341828D01*
X51930468Y-30338054D01*
X52027269Y-30081877D01*
X52088407Y-29814933D01*
X52096615Y-29722969D01*
X52112531Y-29544627D01*
X52112531Y-29544625D01*
X52112751Y-29542161D01*
X52113193Y-29500000D01*
X52094567Y-29226778D01*
X52039032Y-28958612D01*
X51947617Y-28700465D01*
X51822013Y-28457112D01*
X51812040Y-28442921D01*
X51683071Y-28259417D01*
X51664545Y-28233057D01*
X51497777Y-28053593D01*
X51481046Y-28035588D01*
X51481043Y-28035585D01*
X51478125Y-28032445D01*
X51474810Y-28029731D01*
X51474806Y-28029728D01*
X51315315Y-27899186D01*
X51266205Y-27858990D01*
X51032704Y-27715901D01*
X51028768Y-27714173D01*
X50785873Y-27607549D01*
X50785869Y-27607548D01*
X50781945Y-27605825D01*
X50518566Y-27530800D01*
X50514324Y-27530196D01*
X50514318Y-27530195D01*
X50312387Y-27501456D01*
X50247443Y-27492213D01*
X50103589Y-27491460D01*
X49977877Y-27490802D01*
X49977871Y-27490802D01*
X49973591Y-27490780D01*
X49969347Y-27491339D01*
X49969343Y-27491339D01*
X49879638Y-27503149D01*
X49702078Y-27526525D01*
X49697938Y-27527658D01*
X49697936Y-27527658D01*
X49661613Y-27537595D01*
X49437928Y-27598788D01*
X49433980Y-27600472D01*
X49189982Y-27704546D01*
X49189978Y-27704548D01*
X49186030Y-27706232D01*
X49067414Y-27777222D01*
X48954725Y-27844664D01*
X48954721Y-27844667D01*
X48951043Y-27846868D01*
X48737318Y-28018094D01*
X48678986Y-28079563D01*
X48552647Y-28212697D01*
X48548808Y-28216742D01*
X48389002Y-28439136D01*
X48260857Y-28681161D01*
X48259385Y-28685184D01*
X48259383Y-28685188D01*
X48252314Y-28704506D01*
X48166743Y-28938337D01*
X48108404Y-29205907D01*
X48086917Y-29478918D01*
X48102682Y-29752320D01*
X48103507Y-29756525D01*
X48103508Y-29756533D01*
X48133917Y-29911526D01*
X48155405Y-30021053D01*
X48156792Y-30025103D01*
X48156793Y-30025108D01*
X48177605Y-30085895D01*
X48244112Y-30280144D01*
X48246039Y-30283975D01*
X48366236Y-30522962D01*
X48378974Y-30592807D01*
X48351930Y-30658450D01*
X48293689Y-30699052D01*
X48222743Y-30701721D01*
X48164576Y-30668671D01*
X45070405Y-27574500D01*
X45036379Y-27512188D01*
X45033500Y-27485405D01*
X45033500Y-19111423D01*
X60134703Y-19111423D01*
X60142227Y-19121854D01*
X60281483Y-19234020D01*
X60287657Y-19238408D01*
X60558271Y-19407178D01*
X60564931Y-19410794D01*
X60853852Y-19545827D01*
X60860905Y-19548620D01*
X61163970Y-19647970D01*
X61171282Y-19649888D01*
X61484092Y-19712109D01*
X61491590Y-19713137D01*
X61809610Y-19737328D01*
X61817173Y-19737446D01*
X62135785Y-19723257D01*
X62143326Y-19722465D01*
X62457924Y-19670101D01*
X62465302Y-19668411D01*
X62771355Y-19578625D01*
X62778450Y-19576071D01*
X63071496Y-19450169D01*
X63078263Y-19446765D01*
X63354042Y-19286580D01*
X63360349Y-19282390D01*
X63570305Y-19123889D01*
X63578761Y-19112496D01*
X63572045Y-19100256D01*
X61868810Y-17397020D01*
X61854869Y-17389408D01*
X61853034Y-17389539D01*
X61846420Y-17393790D01*
X60141818Y-19098393D01*
X60134703Y-19111423D01*
X45033500Y-19111423D01*
X45033500Y-17319394D01*
X45053502Y-17251273D01*
X45087229Y-17216181D01*
X45239789Y-17109357D01*
X45239792Y-17109355D01*
X45244300Y-17106198D01*
X45406198Y-16944300D01*
X45537523Y-16756749D01*
X45539846Y-16751767D01*
X45539849Y-16751762D01*
X45631961Y-16554225D01*
X45631961Y-16554224D01*
X45634284Y-16549243D01*
X45682970Y-16367548D01*
X45692119Y-16333402D01*
X45692119Y-16333400D01*
X45693543Y-16328087D01*
X45713498Y-16100000D01*
X53246502Y-16100000D01*
X53266457Y-16328087D01*
X53267881Y-16333400D01*
X53267881Y-16333402D01*
X53277031Y-16367548D01*
X53325716Y-16549243D01*
X53328039Y-16554224D01*
X53328039Y-16554225D01*
X53420151Y-16751762D01*
X53420154Y-16751767D01*
X53422477Y-16756749D01*
X53553802Y-16944300D01*
X53715700Y-17106198D01*
X53720208Y-17109355D01*
X53720211Y-17109357D01*
X53798389Y-17164098D01*
X53903251Y-17237523D01*
X53908233Y-17239846D01*
X53908238Y-17239849D01*
X54104765Y-17331490D01*
X54110757Y-17334284D01*
X54116065Y-17335706D01*
X54116067Y-17335707D01*
X54326598Y-17392119D01*
X54326600Y-17392119D01*
X54331913Y-17393543D01*
X54560000Y-17413498D01*
X54788087Y-17393543D01*
X54793400Y-17392119D01*
X54793402Y-17392119D01*
X55003933Y-17335707D01*
X55003935Y-17335706D01*
X55009243Y-17334284D01*
X55015235Y-17331490D01*
X55211762Y-17239849D01*
X55211767Y-17239846D01*
X55216749Y-17237523D01*
X55321611Y-17164098D01*
X55399789Y-17109357D01*
X55399792Y-17109355D01*
X55404300Y-17106198D01*
X55510115Y-17000383D01*
X59143388Y-17000383D01*
X59159245Y-17318914D01*
X59160076Y-17326443D01*
X59214085Y-17640759D01*
X59215818Y-17648146D01*
X59307196Y-17953695D01*
X59309799Y-17960808D01*
X59437227Y-18253173D01*
X59440669Y-18259929D01*
X59602296Y-18534865D01*
X59606519Y-18541150D01*
X59757463Y-18738934D01*
X59768989Y-18747396D01*
X59781054Y-18740735D01*
X61483980Y-17037810D01*
X61491592Y-17023869D01*
X61491461Y-17022034D01*
X61487210Y-17015420D01*
X59782445Y-15310656D01*
X59769510Y-15303592D01*
X59758949Y-15311252D01*
X59638766Y-15462072D01*
X59634410Y-15468270D01*
X59467059Y-15739764D01*
X59463479Y-15746440D01*
X59329956Y-16036074D01*
X59327206Y-16043125D01*
X59229444Y-16346708D01*
X59227561Y-16354041D01*
X59166979Y-16667170D01*
X59165992Y-16674670D01*
X59143467Y-16992802D01*
X59143388Y-17000383D01*
X55510115Y-17000383D01*
X55566198Y-16944300D01*
X55697523Y-16756749D01*
X55699846Y-16751767D01*
X55699849Y-16751762D01*
X55791961Y-16554225D01*
X55791961Y-16554224D01*
X55794284Y-16549243D01*
X55842970Y-16367548D01*
X55852119Y-16333402D01*
X55852119Y-16333400D01*
X55853543Y-16328087D01*
X55873498Y-16100000D01*
X55853543Y-15871913D01*
X55843244Y-15833478D01*
X55795707Y-15656067D01*
X55795706Y-15656065D01*
X55794284Y-15650757D01*
X55791961Y-15645775D01*
X55699849Y-15448238D01*
X55699846Y-15448233D01*
X55697523Y-15443251D01*
X55604027Y-15309725D01*
X55569357Y-15260211D01*
X55569355Y-15260208D01*
X55566198Y-15255700D01*
X55404300Y-15093802D01*
X55399792Y-15090645D01*
X55399789Y-15090643D01*
X55321611Y-15035902D01*
X55216749Y-14962477D01*
X55211767Y-14960154D01*
X55211762Y-14960151D01*
X55014225Y-14868039D01*
X55014224Y-14868039D01*
X55009243Y-14865716D01*
X55003935Y-14864294D01*
X55003933Y-14864293D01*
X54793402Y-14807881D01*
X54793400Y-14807881D01*
X54788087Y-14806457D01*
X54560000Y-14786502D01*
X54331913Y-14806457D01*
X54326600Y-14807881D01*
X54326598Y-14807881D01*
X54116067Y-14864293D01*
X54116065Y-14864294D01*
X54110757Y-14865716D01*
X54105776Y-14868039D01*
X54105775Y-14868039D01*
X53908238Y-14960151D01*
X53908233Y-14960154D01*
X53903251Y-14962477D01*
X53798389Y-15035902D01*
X53720211Y-15090643D01*
X53720208Y-15090645D01*
X53715700Y-15093802D01*
X53553802Y-15255700D01*
X53550645Y-15260208D01*
X53550643Y-15260211D01*
X53515973Y-15309725D01*
X53422477Y-15443251D01*
X53420154Y-15448233D01*
X53420151Y-15448238D01*
X53328039Y-15645775D01*
X53325716Y-15650757D01*
X53324294Y-15656065D01*
X53324293Y-15656067D01*
X53276756Y-15833478D01*
X53266457Y-15871913D01*
X53246502Y-16100000D01*
X45713498Y-16100000D01*
X45693543Y-15871913D01*
X45683244Y-15833478D01*
X45635707Y-15656067D01*
X45635706Y-15656065D01*
X45634284Y-15650757D01*
X45631961Y-15645775D01*
X45539849Y-15448238D01*
X45539846Y-15448233D01*
X45537523Y-15443251D01*
X45444027Y-15309725D01*
X45409357Y-15260211D01*
X45409355Y-15260208D01*
X45406198Y-15255700D01*
X45244300Y-15093802D01*
X45239792Y-15090645D01*
X45239789Y-15090643D01*
X45161611Y-15035902D01*
X45056749Y-14962477D01*
X45051767Y-14960154D01*
X45051762Y-14960151D01*
X44854225Y-14868039D01*
X44854224Y-14868039D01*
X44849243Y-14865716D01*
X44843935Y-14864294D01*
X44843933Y-14864293D01*
X44633402Y-14807881D01*
X44633400Y-14807881D01*
X44628087Y-14806457D01*
X44400000Y-14786502D01*
X44171913Y-14806457D01*
X44166600Y-14807881D01*
X44166598Y-14807881D01*
X43956067Y-14864293D01*
X43956065Y-14864294D01*
X43950757Y-14865716D01*
X43945776Y-14868039D01*
X43945775Y-14868039D01*
X43748238Y-14960151D01*
X43748233Y-14960154D01*
X43743251Y-14962477D01*
X43638389Y-15035902D01*
X43560211Y-15090643D01*
X43560208Y-15090645D01*
X43555700Y-15093802D01*
X43393802Y-15255700D01*
X43390645Y-15260208D01*
X43390643Y-15260211D01*
X43355973Y-15309725D01*
X43262477Y-15443251D01*
X43260154Y-15448233D01*
X43260151Y-15448238D01*
X43168039Y-15645775D01*
X43165716Y-15650757D01*
X43164294Y-15656065D01*
X43164293Y-15656067D01*
X43116756Y-15833478D01*
X43106457Y-15871913D01*
X43086502Y-16100000D01*
X43106457Y-16328087D01*
X43107881Y-16333400D01*
X43107881Y-16333402D01*
X43117031Y-16367548D01*
X43165716Y-16549243D01*
X43168039Y-16554224D01*
X43168039Y-16554225D01*
X43260151Y-16751762D01*
X43260154Y-16751767D01*
X43262477Y-16756749D01*
X43393802Y-16944300D01*
X43555700Y-17106198D01*
X43560208Y-17109355D01*
X43560211Y-17109357D01*
X43712771Y-17216181D01*
X43757099Y-17271638D01*
X43766500Y-17319394D01*
X43766500Y-27721233D01*
X43765973Y-27732416D01*
X43764298Y-27739909D01*
X43764547Y-27747835D01*
X43764547Y-27747836D01*
X43766438Y-27807986D01*
X43766500Y-27811945D01*
X43766500Y-27839856D01*
X43766997Y-27843790D01*
X43766997Y-27843791D01*
X43767005Y-27843856D01*
X43767938Y-27855693D01*
X43769327Y-27899889D01*
X43774978Y-27919339D01*
X43778987Y-27938700D01*
X43781526Y-27958797D01*
X43784445Y-27966168D01*
X43784445Y-27966170D01*
X43797804Y-27999912D01*
X43801649Y-28011142D01*
X43813982Y-28053593D01*
X43818015Y-28060412D01*
X43818017Y-28060417D01*
X43824293Y-28071028D01*
X43832988Y-28088776D01*
X43840448Y-28107617D01*
X43845110Y-28114033D01*
X43845110Y-28114034D01*
X43866436Y-28143387D01*
X43872952Y-28153307D01*
X43895458Y-28191362D01*
X43909779Y-28205683D01*
X43922619Y-28220716D01*
X43934528Y-28237107D01*
X43968605Y-28265298D01*
X43977384Y-28273288D01*
X48238168Y-32534072D01*
X48272194Y-32596384D01*
X48267129Y-32667199D01*
X48264179Y-32674417D01*
X48262864Y-32677370D01*
X48260857Y-32681161D01*
X48259384Y-32685187D01*
X48223296Y-32783801D01*
X48181102Y-32840899D01*
X48114736Y-32866121D01*
X48104970Y-32866500D01*
X38178767Y-32866500D01*
X38167584Y-32865973D01*
X38160091Y-32864298D01*
X38152165Y-32864547D01*
X38152164Y-32864547D01*
X38092014Y-32866438D01*
X38088055Y-32866500D01*
X38060144Y-32866500D01*
X38056210Y-32866997D01*
X38056209Y-32866997D01*
X38056144Y-32867005D01*
X38044307Y-32867938D01*
X38012490Y-32868938D01*
X38008029Y-32869078D01*
X38000110Y-32869327D01*
X37982454Y-32874456D01*
X37980658Y-32874978D01*
X37961306Y-32878986D01*
X37954235Y-32879880D01*
X37941203Y-32881526D01*
X37933834Y-32884443D01*
X37933832Y-32884444D01*
X37900097Y-32897800D01*
X37888869Y-32901645D01*
X37846407Y-32913982D01*
X37839584Y-32918017D01*
X37839582Y-32918018D01*
X37828972Y-32924293D01*
X37811224Y-32932988D01*
X37792383Y-32940448D01*
X37785967Y-32945110D01*
X37785966Y-32945110D01*
X37756613Y-32966436D01*
X37746693Y-32972952D01*
X37715465Y-32991420D01*
X37715462Y-32991422D01*
X37708638Y-32995458D01*
X37694317Y-33009779D01*
X37679284Y-33022619D01*
X37662893Y-33034528D01*
X37657840Y-33040636D01*
X37634708Y-33068598D01*
X37626718Y-33077378D01*
X37549501Y-33154595D01*
X37487189Y-33188621D01*
X37460406Y-33191500D01*
X37404513Y-33191500D01*
X37398061Y-33192872D01*
X37398056Y-33192872D01*
X37336037Y-33206055D01*
X37217712Y-33231206D01*
X37211682Y-33233891D01*
X37211681Y-33233891D01*
X37049278Y-33306197D01*
X37049276Y-33306198D01*
X37043248Y-33308882D01*
X36888747Y-33421134D01*
X36884326Y-33426044D01*
X36884325Y-33426045D01*
X36777554Y-33544627D01*
X36760960Y-33563056D01*
X36665473Y-33728444D01*
X36606458Y-33910072D01*
X36605768Y-33916633D01*
X36605768Y-33916635D01*
X36591028Y-34056877D01*
X36586496Y-34100000D01*
X34885974Y-34100000D01*
X34900751Y-34060895D01*
X34900752Y-34060891D01*
X34902269Y-34056877D01*
X34935892Y-33910072D01*
X34962449Y-33794117D01*
X34962450Y-33794113D01*
X34963407Y-33789933D01*
X34969406Y-33722721D01*
X34987531Y-33519627D01*
X34987531Y-33519625D01*
X34987751Y-33517161D01*
X34988193Y-33475000D01*
X34977133Y-33312763D01*
X34969859Y-33206055D01*
X34969858Y-33206049D01*
X34969567Y-33201778D01*
X34914032Y-32933612D01*
X34822617Y-32675465D01*
X34711881Y-32460919D01*
X34698978Y-32435919D01*
X34698978Y-32435918D01*
X34697013Y-32432112D01*
X34687040Y-32417921D01*
X34618279Y-32320085D01*
X34539545Y-32208057D01*
X34379277Y-32035588D01*
X34356046Y-32010588D01*
X34356043Y-32010585D01*
X34353125Y-32007445D01*
X34349810Y-32004731D01*
X34349806Y-32004728D01*
X34144523Y-31836706D01*
X34141205Y-31833990D01*
X33952162Y-31718145D01*
X33911366Y-31693145D01*
X33911365Y-31693145D01*
X33907704Y-31690901D01*
X33903768Y-31689173D01*
X33675649Y-31589035D01*
X33621313Y-31543339D01*
X33600309Y-31475521D01*
X33619304Y-31407112D01*
X33678077Y-31357253D01*
X33865949Y-31279434D01*
X33873617Y-31275628D01*
X34102598Y-31141822D01*
X34109679Y-31137009D01*
X34189655Y-31074301D01*
X34198125Y-31062442D01*
X34191608Y-31050818D01*
X32987812Y-29847022D01*
X32973868Y-29839408D01*
X32972035Y-29839539D01*
X32965420Y-29843790D01*
X31757910Y-31051300D01*
X31750618Y-31064654D01*
X31757673Y-31074627D01*
X31788679Y-31100551D01*
X31795598Y-31105579D01*
X32020272Y-31246515D01*
X32027807Y-31250556D01*
X32272830Y-31361188D01*
X32326684Y-31407451D01*
X32346978Y-31475485D01*
X32327268Y-31543691D01*
X32270414Y-31591922D01*
X32211174Y-31617190D01*
X32064982Y-31679546D01*
X32064978Y-31679548D01*
X32061030Y-31681232D01*
X32003102Y-31715901D01*
X31829725Y-31819664D01*
X31829721Y-31819667D01*
X31826043Y-31821868D01*
X31612318Y-31993094D01*
X31423808Y-32191742D01*
X31264002Y-32414136D01*
X31135857Y-32656161D01*
X31134385Y-32660184D01*
X31134383Y-32660188D01*
X31054768Y-32877744D01*
X31041743Y-32913337D01*
X30983404Y-33180907D01*
X30961917Y-33453918D01*
X30977682Y-33727320D01*
X30978507Y-33731525D01*
X30978508Y-33731533D01*
X30989127Y-33785657D01*
X31030405Y-33996053D01*
X31031792Y-34000103D01*
X31031793Y-34000108D01*
X31116094Y-34246330D01*
X31119112Y-34255144D01*
X31139764Y-34296206D01*
X31230834Y-34477279D01*
X31242160Y-34499799D01*
X31244586Y-34503328D01*
X31244589Y-34503334D01*
X31339791Y-34641852D01*
X31397274Y-34725490D01*
X31400161Y-34728663D01*
X31400162Y-34728664D01*
X31441807Y-34774431D01*
X31581582Y-34928043D01*
X31791675Y-35103707D01*
X31795316Y-35105991D01*
X32020024Y-35246951D01*
X32020028Y-35246953D01*
X32023664Y-35249234D01*
X32087907Y-35278241D01*
X32272204Y-35361455D01*
X32326058Y-35407718D01*
X32346352Y-35475753D01*
X32326642Y-35543958D01*
X32269788Y-35592189D01*
X32211176Y-35617189D01*
X32064982Y-35679546D01*
X32064978Y-35679548D01*
X32061030Y-35681232D01*
X32003102Y-35715901D01*
X31829725Y-35819664D01*
X31829721Y-35819667D01*
X31826043Y-35821868D01*
X31612318Y-35993094D01*
X31423808Y-36191742D01*
X31264002Y-36414136D01*
X31135857Y-36656161D01*
X31134385Y-36660184D01*
X31134383Y-36660188D01*
X31089147Y-36783801D01*
X31041743Y-36913337D01*
X30983404Y-37180907D01*
X30961917Y-37453918D01*
X18483500Y-37453918D01*
X18483500Y-29458204D01*
X30962665Y-29458204D01*
X30977932Y-29722969D01*
X30979005Y-29731470D01*
X31030065Y-29991722D01*
X31032276Y-29999974D01*
X31118184Y-30250894D01*
X31121499Y-30258779D01*
X31240664Y-30495713D01*
X31245020Y-30503079D01*
X31374347Y-30691250D01*
X31384601Y-30699594D01*
X31398342Y-30692448D01*
X32602978Y-29487812D01*
X32609356Y-29476132D01*
X33339408Y-29476132D01*
X33339539Y-29477965D01*
X33343790Y-29484580D01*
X34550730Y-30691520D01*
X34562939Y-30698187D01*
X34574439Y-30689497D01*
X34671831Y-30556913D01*
X34676418Y-30549685D01*
X34802962Y-30316621D01*
X34806530Y-30308827D01*
X34900271Y-30060750D01*
X34902748Y-30052544D01*
X34961954Y-29794038D01*
X34963294Y-29785577D01*
X34987031Y-29519616D01*
X34987277Y-29514677D01*
X34987666Y-29477485D01*
X34987523Y-29472519D01*
X34969362Y-29206123D01*
X34968201Y-29197649D01*
X34914419Y-28937944D01*
X34912120Y-28929709D01*
X34823588Y-28679705D01*
X34820191Y-28671854D01*
X34698550Y-28436178D01*
X34694122Y-28428866D01*
X34575031Y-28259417D01*
X34564509Y-28251037D01*
X34551121Y-28258089D01*
X33347022Y-29462188D01*
X33339408Y-29476132D01*
X32609356Y-29476132D01*
X32610592Y-29473868D01*
X32610461Y-29472035D01*
X32606210Y-29465420D01*
X31398814Y-28258024D01*
X31386804Y-28251466D01*
X31375064Y-28260434D01*
X31266935Y-28410911D01*
X31262418Y-28418196D01*
X31138325Y-28652567D01*
X31134839Y-28660395D01*
X31043700Y-28909446D01*
X31041311Y-28917670D01*
X30984812Y-29176795D01*
X30983563Y-29185250D01*
X30962754Y-29449653D01*
X30962665Y-29458204D01*
X18483500Y-29458204D01*
X18483500Y-27887500D01*
X31751584Y-27887500D01*
X31757980Y-27898770D01*
X32962188Y-29102978D01*
X32976132Y-29110592D01*
X32977965Y-29110461D01*
X32984580Y-29106210D01*
X34191604Y-27899186D01*
X34198795Y-27886017D01*
X34191473Y-27875780D01*
X34144233Y-27837115D01*
X34137261Y-27832160D01*
X33911122Y-27693582D01*
X33903552Y-27689624D01*
X33660704Y-27583022D01*
X33652644Y-27580120D01*
X33397592Y-27507467D01*
X33389214Y-27505685D01*
X33126656Y-27468318D01*
X33118111Y-27467691D01*
X32852908Y-27466302D01*
X32844374Y-27466839D01*
X32581433Y-27501456D01*
X32573035Y-27503149D01*
X32317238Y-27573127D01*
X32309143Y-27575946D01*
X32065199Y-27679997D01*
X32057577Y-27683881D01*
X31830013Y-27820075D01*
X31822981Y-27824962D01*
X31760053Y-27875377D01*
X31751584Y-27887500D01*
X18483500Y-27887500D01*
X18483500Y-19111423D01*
X19528703Y-19111423D01*
X19536227Y-19121854D01*
X19675483Y-19234020D01*
X19681657Y-19238408D01*
X19952271Y-19407178D01*
X19958931Y-19410794D01*
X20247852Y-19545827D01*
X20254905Y-19548620D01*
X20557970Y-19647970D01*
X20565282Y-19649888D01*
X20878092Y-19712109D01*
X20885590Y-19713137D01*
X21203610Y-19737328D01*
X21211173Y-19737446D01*
X21529785Y-19723257D01*
X21537326Y-19722465D01*
X21851924Y-19670101D01*
X21859302Y-19668411D01*
X22165355Y-19578625D01*
X22172450Y-19576071D01*
X22465496Y-19450169D01*
X22472263Y-19446765D01*
X22748042Y-19286580D01*
X22754349Y-19282390D01*
X22964305Y-19123889D01*
X22972761Y-19112496D01*
X22966045Y-19100256D01*
X21262810Y-17397020D01*
X21248869Y-17389408D01*
X21247034Y-17389539D01*
X21240420Y-17393790D01*
X19535818Y-19098393D01*
X19528703Y-19111423D01*
X18483500Y-19111423D01*
X18483500Y-18059807D01*
X18503502Y-17991686D01*
X18557158Y-17945193D01*
X18627432Y-17935089D01*
X18692012Y-17964583D01*
X18725006Y-18009464D01*
X18831227Y-18253173D01*
X18834669Y-18259929D01*
X18996296Y-18534865D01*
X19000519Y-18541150D01*
X19151463Y-18738934D01*
X19162989Y-18747396D01*
X19175054Y-18740735D01*
X20877980Y-17037810D01*
X20884357Y-17026131D01*
X21614408Y-17026131D01*
X21614539Y-17027966D01*
X21618790Y-17034580D01*
X23323285Y-18739074D01*
X23336408Y-18746240D01*
X23346709Y-18738851D01*
X23450751Y-18611055D01*
X23455164Y-18604914D01*
X23625349Y-18335187D01*
X23629005Y-18328536D01*
X23765544Y-18040335D01*
X23768375Y-18033295D01*
X23869306Y-17730767D01*
X23871270Y-17723433D01*
X23935122Y-17410989D01*
X23936194Y-17403465D01*
X23962173Y-17084051D01*
X23962378Y-17079576D01*
X23962927Y-17027221D01*
X23962817Y-17022789D01*
X23943529Y-16702853D01*
X23942621Y-16695351D01*
X23885319Y-16381593D01*
X23883518Y-16374260D01*
X23881115Y-16366522D01*
X26637273Y-16366522D01*
X26684764Y-16543761D01*
X26688510Y-16554053D01*
X26780586Y-16751511D01*
X26786069Y-16761007D01*
X26911028Y-16939467D01*
X26918084Y-16947875D01*
X27072125Y-17101916D01*
X27080533Y-17108972D01*
X27258993Y-17233931D01*
X27268489Y-17239414D01*
X27465947Y-17331490D01*
X27476239Y-17335236D01*
X27648503Y-17381394D01*
X27662599Y-17381058D01*
X27666000Y-17373116D01*
X27666000Y-17367967D01*
X28174000Y-17367967D01*
X28177973Y-17381498D01*
X28186522Y-17382727D01*
X28363761Y-17335236D01*
X28374053Y-17331490D01*
X28571511Y-17239414D01*
X28581007Y-17233931D01*
X28759467Y-17108972D01*
X28767875Y-17101916D01*
X28921916Y-16947875D01*
X28928972Y-16939467D01*
X29053931Y-16761007D01*
X29059414Y-16751511D01*
X29151490Y-16554053D01*
X29155236Y-16543761D01*
X29201394Y-16371497D01*
X29201058Y-16357401D01*
X29193116Y-16354000D01*
X28192115Y-16354000D01*
X28176876Y-16358475D01*
X28175671Y-16359865D01*
X28174000Y-16367548D01*
X28174000Y-17367967D01*
X27666000Y-17367967D01*
X27666000Y-16372115D01*
X27661525Y-16356876D01*
X27660135Y-16355671D01*
X27652452Y-16354000D01*
X26652033Y-16354000D01*
X26638502Y-16357973D01*
X26637273Y-16366522D01*
X23881115Y-16366522D01*
X23798357Y-16100000D01*
X36766502Y-16100000D01*
X36786457Y-16328087D01*
X36787881Y-16333400D01*
X36787881Y-16333402D01*
X36797031Y-16367548D01*
X36845716Y-16549243D01*
X36848039Y-16554224D01*
X36848039Y-16554225D01*
X36940151Y-16751762D01*
X36940154Y-16751767D01*
X36942477Y-16756749D01*
X37073802Y-16944300D01*
X37235700Y-17106198D01*
X37240208Y-17109355D01*
X37240211Y-17109357D01*
X37318389Y-17164098D01*
X37423251Y-17237523D01*
X37428233Y-17239846D01*
X37428238Y-17239849D01*
X37624765Y-17331490D01*
X37630757Y-17334284D01*
X37636065Y-17335706D01*
X37636067Y-17335707D01*
X37846598Y-17392119D01*
X37846600Y-17392119D01*
X37851913Y-17393543D01*
X38080000Y-17413498D01*
X38308087Y-17393543D01*
X38313400Y-17392119D01*
X38313402Y-17392119D01*
X38523933Y-17335707D01*
X38523935Y-17335706D01*
X38529243Y-17334284D01*
X38535235Y-17331490D01*
X38731762Y-17239849D01*
X38731767Y-17239846D01*
X38736749Y-17237523D01*
X38841611Y-17164098D01*
X38919789Y-17109357D01*
X38919792Y-17109355D01*
X38924300Y-17106198D01*
X39086198Y-16944300D01*
X39217523Y-16756749D01*
X39219846Y-16751767D01*
X39219849Y-16751762D01*
X39311961Y-16554225D01*
X39311961Y-16554224D01*
X39314284Y-16549243D01*
X39362970Y-16367548D01*
X39372119Y-16333402D01*
X39372119Y-16333400D01*
X39373543Y-16328087D01*
X39393498Y-16100000D01*
X39373543Y-15871913D01*
X39363244Y-15833478D01*
X39315707Y-15656067D01*
X39315706Y-15656065D01*
X39314284Y-15650757D01*
X39311961Y-15645775D01*
X39219849Y-15448238D01*
X39219846Y-15448233D01*
X39217523Y-15443251D01*
X39124027Y-15309725D01*
X39089357Y-15260211D01*
X39089355Y-15260208D01*
X39086198Y-15255700D01*
X38924300Y-15093802D01*
X38919792Y-15090645D01*
X38919789Y-15090643D01*
X38841611Y-15035902D01*
X38736749Y-14962477D01*
X38731767Y-14960154D01*
X38731762Y-14960151D01*
X38534225Y-14868039D01*
X38534224Y-14868039D01*
X38529243Y-14865716D01*
X38523935Y-14864294D01*
X38523933Y-14864293D01*
X38313402Y-14807881D01*
X38313400Y-14807881D01*
X38308087Y-14806457D01*
X38080000Y-14786502D01*
X37851913Y-14806457D01*
X37846600Y-14807881D01*
X37846598Y-14807881D01*
X37636067Y-14864293D01*
X37636065Y-14864294D01*
X37630757Y-14865716D01*
X37625776Y-14868039D01*
X37625775Y-14868039D01*
X37428238Y-14960151D01*
X37428233Y-14960154D01*
X37423251Y-14962477D01*
X37318389Y-15035902D01*
X37240211Y-15090643D01*
X37240208Y-15090645D01*
X37235700Y-15093802D01*
X37073802Y-15255700D01*
X37070645Y-15260208D01*
X37070643Y-15260211D01*
X37035973Y-15309725D01*
X36942477Y-15443251D01*
X36940154Y-15448233D01*
X36940151Y-15448238D01*
X36848039Y-15645775D01*
X36845716Y-15650757D01*
X36844294Y-15656065D01*
X36844293Y-15656067D01*
X36796756Y-15833478D01*
X36786457Y-15871913D01*
X36766502Y-16100000D01*
X23798357Y-16100000D01*
X23788935Y-16069655D01*
X23786263Y-16062583D01*
X23681308Y-15828503D01*
X26638606Y-15828503D01*
X26638942Y-15842599D01*
X26646884Y-15846000D01*
X27647885Y-15846000D01*
X27663124Y-15841525D01*
X27664329Y-15840135D01*
X27666000Y-15832452D01*
X27666000Y-15827885D01*
X28174000Y-15827885D01*
X28178475Y-15843124D01*
X28179865Y-15844329D01*
X28187548Y-15846000D01*
X29187967Y-15846000D01*
X29201498Y-15842027D01*
X29202727Y-15833478D01*
X29155236Y-15656239D01*
X29151490Y-15645947D01*
X29059414Y-15448489D01*
X29053931Y-15438993D01*
X28928972Y-15260533D01*
X28921916Y-15252125D01*
X28767875Y-15098084D01*
X28759467Y-15091028D01*
X28581007Y-14966069D01*
X28571511Y-14960586D01*
X28374053Y-14868510D01*
X28363761Y-14864764D01*
X28191497Y-14818606D01*
X28177401Y-14818942D01*
X28174000Y-14826884D01*
X28174000Y-15827885D01*
X27666000Y-15827885D01*
X27666000Y-14832033D01*
X27662027Y-14818502D01*
X27653478Y-14817273D01*
X27476239Y-14864764D01*
X27465947Y-14868510D01*
X27268489Y-14960586D01*
X27258993Y-14966069D01*
X27080533Y-15091028D01*
X27072125Y-15098084D01*
X26918084Y-15252125D01*
X26911028Y-15260533D01*
X26786069Y-15438993D01*
X26780586Y-15448489D01*
X26688510Y-15645947D01*
X26684764Y-15656239D01*
X26638606Y-15828503D01*
X23681308Y-15828503D01*
X23655781Y-15771570D01*
X23652264Y-15764843D01*
X23487771Y-15491621D01*
X23483481Y-15485377D01*
X23347991Y-15311647D01*
X23336199Y-15303178D01*
X23324486Y-15309725D01*
X21622020Y-17012190D01*
X21614408Y-17026131D01*
X20884357Y-17026131D01*
X20885592Y-17023869D01*
X20885461Y-17022034D01*
X20881210Y-17015420D01*
X19176445Y-15310656D01*
X19163510Y-15303592D01*
X19152949Y-15311252D01*
X19032766Y-15462072D01*
X19028410Y-15468270D01*
X18861059Y-15739764D01*
X18857479Y-15746440D01*
X18723926Y-16036138D01*
X18677242Y-16089628D01*
X18609050Y-16109386D01*
X18541001Y-16089141D01*
X18494700Y-16035320D01*
X18483500Y-15983387D01*
X18483500Y-14409500D01*
X18503502Y-14341379D01*
X18557158Y-14294886D01*
X18609500Y-14283500D01*
X20157173Y-14283500D01*
X20225294Y-14303502D01*
G37*
%TD.AperFunction*%
%TD*%
M02*
