M48
; DRILL file {KiCad 6.0.7-f9a2dced07~116~ubuntu20.04.1} date Sun 16 Oct 2022 07:02:06 PM CST
; FORMAT={-:-/ absolute / inch / decimal}
; #@! TF.CreationDate,2022-10-16T19:02:06+08:00
; #@! TF.GenerationSoftware,Kicad,Pcbnew,6.0.7-f9a2dced07~116~ubuntu20.04.1
; #@! TF.FileFunction,Plated,1,2,PTH
FMAT,2
INCH
; #@! TA.AperFunction,Plated,PTH,ViaDrill
T1C0.0157
; #@! TA.AperFunction,Plated,PTH,ComponentDrill
T2C0.0315
; #@! TA.AperFunction,Plated,PTH,ComponentDrill
T3C0.0354
; #@! TA.AperFunction,Plated,PTH,ComponentDrill
T4C0.0394
; #@! TA.AperFunction,Plated,PTH,ComponentDrill
T5C0.0787
; #@! TA.AperFunction,Plated,PTH,ComponentDrill
T6C0.0866
%
G90
G05
T1
X1.4764Y-1.3425
X1.4764Y-2.0472
X1.5236Y-1.9094
X1.5709Y-1.4803
X1.6417Y-1.8465
X1.6693Y-1.7047
T2
X0.9488Y-2.6425
X0.9488Y-3.0425
X1.0748Y-2.6425
X1.0748Y-3.0425
X1.0992Y-0.6339
X1.4992Y-0.6339
X1.748Y-0.6339
X2.148Y-0.6339
X2.1969Y-2.7882
X2.1969Y-3.1882
T3
X2.4016Y-2.7362
X2.4016Y-2.8362
T4
X1.2685Y-2.8051
X1.2685Y-2.9051
X1.2701Y-3.1447
X1.2701Y-3.2447
X1.3685Y-2.8051
X1.3685Y-2.9051
X1.3701Y-3.1447
X1.3701Y-3.2447
X1.4685Y-2.8051
X1.4685Y-2.9051
X1.4701Y-3.1447
X1.4701Y-3.2447
X1.5685Y-2.8051
X1.5685Y-2.9051
X1.5701Y-3.1447
X1.5701Y-3.2447
X1.6685Y-2.8051
X1.6685Y-2.9051
X1.6701Y-3.1447
X1.6701Y-3.2447
X1.7685Y-2.8051
X1.7685Y-2.9051
X1.7701Y-3.1447
X1.7701Y-3.2447
X1.8685Y-2.8051
X1.8685Y-2.9051
X1.8701Y-3.1447
X1.8701Y-3.2447
X1.9685Y-2.8051
X1.9685Y-2.9051
X1.9701Y-3.1447
X1.9701Y-3.2447
T5
X1.2982Y-1.1604
X1.2982Y-1.3179
X1.2982Y-1.4754
X1.2982Y-1.7313
X1.2982Y-1.8888
X1.2982Y-2.0463
X1.2982Y-2.2037
X1.9724Y-1.1614
X1.9724Y-1.3189
X1.9724Y-1.4764
X1.9724Y-1.6339
X1.9724Y-1.8898
X1.9724Y-2.0472
X1.9724Y-2.2047
T6
X0.8366Y-0.6703
X0.8366Y-3.1713
X2.4345Y-3.1713
X2.4353Y-0.6703
T0
M30
