%TF.GenerationSoftware,KiCad,Pcbnew,6.0.7-f9a2dced07~116~ubuntu20.04.1*%
%TF.CreationDate,2022-10-16T19:02:03+08:00*%
%TF.ProjectId,Zeal-SNES-Adapter,5a65616c-2d53-44e4-9553-2d4164617074,rev?*%
%TF.SameCoordinates,Original*%
%TF.FileFunction,Legend,Top*%
%TF.FilePolarity,Positive*%
%FSLAX46Y46*%
G04 Gerber Fmt 4.6, Leading zero omitted, Abs format (unit mm)*
G04 Created by KiCad (PCBNEW 6.0.7-f9a2dced07~116~ubuntu20.04.1) date 2022-10-16 19:02:03*
%MOMM*%
%LPD*%
G01*
G04 APERTURE LIST*
%ADD10C,0.300000*%
%ADD11C,0.150000*%
%ADD12C,0.120000*%
G04 APERTURE END LIST*
D10*
X45071428Y-20178571D02*
X45071428Y-18678571D01*
X45642857Y-18678571D01*
X45785714Y-18750000D01*
X45857142Y-18821428D01*
X45928571Y-18964285D01*
X45928571Y-19178571D01*
X45857142Y-19321428D01*
X45785714Y-19392857D01*
X45642857Y-19464285D01*
X45071428Y-19464285D01*
X46785714Y-20178571D02*
X46642857Y-20107142D01*
X46571428Y-19964285D01*
X46571428Y-18678571D01*
X48000000Y-20178571D02*
X48000000Y-19392857D01*
X47928571Y-19250000D01*
X47785714Y-19178571D01*
X47500000Y-19178571D01*
X47357142Y-19250000D01*
X48000000Y-20107142D02*
X47857142Y-20178571D01*
X47500000Y-20178571D01*
X47357142Y-20107142D01*
X47285714Y-19964285D01*
X47285714Y-19821428D01*
X47357142Y-19678571D01*
X47500000Y-19607142D01*
X47857142Y-19607142D01*
X48000000Y-19535714D01*
X48571428Y-19178571D02*
X48928571Y-20178571D01*
X49285714Y-19178571D02*
X48928571Y-20178571D01*
X48785714Y-20535714D01*
X48714285Y-20607142D01*
X48571428Y-20678571D01*
X50428571Y-20107142D02*
X50285714Y-20178571D01*
X50000000Y-20178571D01*
X49857142Y-20107142D01*
X49785714Y-19964285D01*
X49785714Y-19392857D01*
X49857142Y-19250000D01*
X50000000Y-19178571D01*
X50285714Y-19178571D01*
X50428571Y-19250000D01*
X50500000Y-19392857D01*
X50500000Y-19535714D01*
X49785714Y-19678571D01*
X51142857Y-20178571D02*
X51142857Y-19178571D01*
X51142857Y-19464285D02*
X51214285Y-19321428D01*
X51285714Y-19250000D01*
X51428571Y-19178571D01*
X51571428Y-19178571D01*
X53142857Y-18821428D02*
X53214285Y-18750000D01*
X53357142Y-18678571D01*
X53714285Y-18678571D01*
X53857142Y-18750000D01*
X53928571Y-18821428D01*
X54000000Y-18964285D01*
X54000000Y-19107142D01*
X53928571Y-19321428D01*
X53071428Y-20178571D01*
X54000000Y-20178571D01*
X28546428Y-20128571D02*
X28546428Y-18628571D01*
X29117857Y-18628571D01*
X29260714Y-18700000D01*
X29332142Y-18771428D01*
X29403571Y-18914285D01*
X29403571Y-19128571D01*
X29332142Y-19271428D01*
X29260714Y-19342857D01*
X29117857Y-19414285D01*
X28546428Y-19414285D01*
X30260714Y-20128571D02*
X30117857Y-20057142D01*
X30046428Y-19914285D01*
X30046428Y-18628571D01*
X31475000Y-20128571D02*
X31475000Y-19342857D01*
X31403571Y-19200000D01*
X31260714Y-19128571D01*
X30975000Y-19128571D01*
X30832142Y-19200000D01*
X31475000Y-20057142D02*
X31332142Y-20128571D01*
X30975000Y-20128571D01*
X30832142Y-20057142D01*
X30760714Y-19914285D01*
X30760714Y-19771428D01*
X30832142Y-19628571D01*
X30975000Y-19557142D01*
X31332142Y-19557142D01*
X31475000Y-19485714D01*
X32046428Y-19128571D02*
X32403571Y-20128571D01*
X32760714Y-19128571D02*
X32403571Y-20128571D01*
X32260714Y-20485714D01*
X32189285Y-20557142D01*
X32046428Y-20628571D01*
X33903571Y-20057142D02*
X33760714Y-20128571D01*
X33475000Y-20128571D01*
X33332142Y-20057142D01*
X33260714Y-19914285D01*
X33260714Y-19342857D01*
X33332142Y-19200000D01*
X33475000Y-19128571D01*
X33760714Y-19128571D01*
X33903571Y-19200000D01*
X33975000Y-19342857D01*
X33975000Y-19485714D01*
X33260714Y-19628571D01*
X34617857Y-20128571D02*
X34617857Y-19128571D01*
X34617857Y-19414285D02*
X34689285Y-19271428D01*
X34760714Y-19200000D01*
X34903571Y-19128571D01*
X35046428Y-19128571D01*
X37475000Y-20128571D02*
X36617857Y-20128571D01*
X37046428Y-20128571D02*
X37046428Y-18628571D01*
X36903571Y-18842857D01*
X36760714Y-18985714D01*
X36617857Y-19057142D01*
D11*
%TO.C,R3*%
X27133333Y-65752380D02*
X26800000Y-65276190D01*
X26561904Y-65752380D02*
X26561904Y-64752380D01*
X26942857Y-64752380D01*
X27038095Y-64800000D01*
X27085714Y-64847619D01*
X27133333Y-64942857D01*
X27133333Y-65085714D01*
X27085714Y-65180952D01*
X27038095Y-65228571D01*
X26942857Y-65276190D01*
X26561904Y-65276190D01*
X27466666Y-64752380D02*
X28085714Y-64752380D01*
X27752380Y-65133333D01*
X27895238Y-65133333D01*
X27990476Y-65180952D01*
X28038095Y-65228571D01*
X28085714Y-65323809D01*
X28085714Y-65561904D01*
X28038095Y-65657142D01*
X27990476Y-65704761D01*
X27895238Y-65752380D01*
X27609523Y-65752380D01*
X27514285Y-65704761D01*
X27466666Y-65657142D01*
%TO.C,J3*%
X49766666Y-64352380D02*
X49766666Y-65066666D01*
X49719047Y-65209523D01*
X49623809Y-65304761D01*
X49480952Y-65352380D01*
X49385714Y-65352380D01*
X50147619Y-64352380D02*
X50766666Y-64352380D01*
X50433333Y-64733333D01*
X50576190Y-64733333D01*
X50671428Y-64780952D01*
X50719047Y-64828571D01*
X50766666Y-64923809D01*
X50766666Y-65161904D01*
X50719047Y-65257142D01*
X50671428Y-65304761D01*
X50576190Y-65352380D01*
X50290476Y-65352380D01*
X50195238Y-65304761D01*
X50147619Y-65257142D01*
%TO.C,R2*%
X23933333Y-65652380D02*
X23600000Y-65176190D01*
X23361904Y-65652380D02*
X23361904Y-64652380D01*
X23742857Y-64652380D01*
X23838095Y-64700000D01*
X23885714Y-64747619D01*
X23933333Y-64842857D01*
X23933333Y-64985714D01*
X23885714Y-65080952D01*
X23838095Y-65128571D01*
X23742857Y-65176190D01*
X23361904Y-65176190D01*
X24314285Y-64747619D02*
X24361904Y-64700000D01*
X24457142Y-64652380D01*
X24695238Y-64652380D01*
X24790476Y-64700000D01*
X24838095Y-64747619D01*
X24885714Y-64842857D01*
X24885714Y-64938095D01*
X24838095Y-65080952D01*
X24266666Y-65652380D01*
X24885714Y-65652380D01*
%TO.C,D1*%
X60261904Y-75152380D02*
X60261904Y-74152380D01*
X60500000Y-74152380D01*
X60642857Y-74200000D01*
X60738095Y-74295238D01*
X60785714Y-74390476D01*
X60833333Y-74580952D01*
X60833333Y-74723809D01*
X60785714Y-74914285D01*
X60738095Y-75009523D01*
X60642857Y-75104761D01*
X60500000Y-75152380D01*
X60261904Y-75152380D01*
X61785714Y-75152380D02*
X61214285Y-75152380D01*
X61500000Y-75152380D02*
X61500000Y-74152380D01*
X61404761Y-74295238D01*
X61309523Y-74390476D01*
X61214285Y-74438095D01*
%TO.C,J1*%
X52702380Y-81333333D02*
X53416666Y-81333333D01*
X53559523Y-81380952D01*
X53654761Y-81476190D01*
X53702380Y-81619047D01*
X53702380Y-81714285D01*
X53702380Y-80333333D02*
X53702380Y-80904761D01*
X53702380Y-80619047D02*
X52702380Y-80619047D01*
X52845238Y-80714285D01*
X52940476Y-80809523D01*
X52988095Y-80904761D01*
X30690476Y-76702380D02*
X30690476Y-77511904D01*
X30738095Y-77607142D01*
X30785714Y-77654761D01*
X30880952Y-77702380D01*
X31071428Y-77702380D01*
X31166666Y-77654761D01*
X31214285Y-77607142D01*
X31261904Y-77511904D01*
X31261904Y-76702380D01*
X31690476Y-77654761D02*
X31785714Y-77702380D01*
X31976190Y-77702380D01*
X32071428Y-77654761D01*
X32119047Y-77559523D01*
X32119047Y-77511904D01*
X32071428Y-77416666D01*
X31976190Y-77369047D01*
X31833333Y-77369047D01*
X31738095Y-77321428D01*
X31690476Y-77226190D01*
X31690476Y-77178571D01*
X31738095Y-77083333D01*
X31833333Y-77035714D01*
X31976190Y-77035714D01*
X32071428Y-77083333D01*
X32928571Y-77654761D02*
X32833333Y-77702380D01*
X32642857Y-77702380D01*
X32547619Y-77654761D01*
X32500000Y-77559523D01*
X32500000Y-77178571D01*
X32547619Y-77083333D01*
X32642857Y-77035714D01*
X32833333Y-77035714D01*
X32928571Y-77083333D01*
X32976190Y-77178571D01*
X32976190Y-77273809D01*
X32500000Y-77369047D01*
X33404761Y-77702380D02*
X33404761Y-77035714D01*
X33404761Y-77226190D02*
X33452380Y-77130952D01*
X33500000Y-77083333D01*
X33595238Y-77035714D01*
X33690476Y-77035714D01*
X34785714Y-77035714D02*
X34785714Y-78035714D01*
X34785714Y-77083333D02*
X34880952Y-77035714D01*
X35071428Y-77035714D01*
X35166666Y-77083333D01*
X35214285Y-77130952D01*
X35261904Y-77226190D01*
X35261904Y-77511904D01*
X35214285Y-77607142D01*
X35166666Y-77654761D01*
X35071428Y-77702380D01*
X34880952Y-77702380D01*
X34785714Y-77654761D01*
X35833333Y-77702380D02*
X35738095Y-77654761D01*
X35690476Y-77607142D01*
X35642857Y-77511904D01*
X35642857Y-77226190D01*
X35690476Y-77130952D01*
X35738095Y-77083333D01*
X35833333Y-77035714D01*
X35976190Y-77035714D01*
X36071428Y-77083333D01*
X36119047Y-77130952D01*
X36166666Y-77226190D01*
X36166666Y-77511904D01*
X36119047Y-77607142D01*
X36071428Y-77654761D01*
X35976190Y-77702380D01*
X35833333Y-77702380D01*
X36595238Y-77702380D02*
X36595238Y-77035714D01*
X36595238Y-77226190D02*
X36642857Y-77130952D01*
X36690476Y-77083333D01*
X36785714Y-77035714D01*
X36880952Y-77035714D01*
X37071428Y-77035714D02*
X37452380Y-77035714D01*
X37214285Y-76702380D02*
X37214285Y-77559523D01*
X37261904Y-77654761D01*
X37357142Y-77702380D01*
X37452380Y-77702380D01*
%TO.C,R5*%
X55533333Y-69452380D02*
X55200000Y-68976190D01*
X54961904Y-69452380D02*
X54961904Y-68452380D01*
X55342857Y-68452380D01*
X55438095Y-68500000D01*
X55485714Y-68547619D01*
X55533333Y-68642857D01*
X55533333Y-68785714D01*
X55485714Y-68880952D01*
X55438095Y-68928571D01*
X55342857Y-68976190D01*
X54961904Y-68976190D01*
X56438095Y-68452380D02*
X55961904Y-68452380D01*
X55914285Y-68928571D01*
X55961904Y-68880952D01*
X56057142Y-68833333D01*
X56295238Y-68833333D01*
X56390476Y-68880952D01*
X56438095Y-68928571D01*
X56485714Y-69023809D01*
X56485714Y-69261904D01*
X56438095Y-69357142D01*
X56390476Y-69404761D01*
X56295238Y-69452380D01*
X56057142Y-69452380D01*
X55961904Y-69404761D01*
X55914285Y-69357142D01*
%TO.C,R4*%
X25433333Y-16552380D02*
X25100000Y-16076190D01*
X24861904Y-16552380D02*
X24861904Y-15552380D01*
X25242857Y-15552380D01*
X25338095Y-15600000D01*
X25385714Y-15647619D01*
X25433333Y-15742857D01*
X25433333Y-15885714D01*
X25385714Y-15980952D01*
X25338095Y-16028571D01*
X25242857Y-16076190D01*
X24861904Y-16076190D01*
X26290476Y-15885714D02*
X26290476Y-16552380D01*
X26052380Y-15504761D02*
X25814285Y-16219047D01*
X26433333Y-16219047D01*
%TO.C,J2*%
X52702380Y-72833333D02*
X53416666Y-72833333D01*
X53559523Y-72880952D01*
X53654761Y-72976190D01*
X53702380Y-73119047D01*
X53702380Y-73214285D01*
X52797619Y-72404761D02*
X52750000Y-72357142D01*
X52702380Y-72261904D01*
X52702380Y-72023809D01*
X52750000Y-71928571D01*
X52797619Y-71880952D01*
X52892857Y-71833333D01*
X52988095Y-71833333D01*
X53130952Y-71880952D01*
X53702380Y-72452380D01*
X53702380Y-71833333D01*
X30523809Y-67952380D02*
X30523809Y-68761904D01*
X30571428Y-68857142D01*
X30619047Y-68904761D01*
X30714285Y-68952380D01*
X30904761Y-68952380D01*
X31000000Y-68904761D01*
X31047619Y-68857142D01*
X31095238Y-68761904D01*
X31095238Y-67952380D01*
X31523809Y-68904761D02*
X31619047Y-68952380D01*
X31809523Y-68952380D01*
X31904761Y-68904761D01*
X31952380Y-68809523D01*
X31952380Y-68761904D01*
X31904761Y-68666666D01*
X31809523Y-68619047D01*
X31666666Y-68619047D01*
X31571428Y-68571428D01*
X31523809Y-68476190D01*
X31523809Y-68428571D01*
X31571428Y-68333333D01*
X31666666Y-68285714D01*
X31809523Y-68285714D01*
X31904761Y-68333333D01*
X32761904Y-68904761D02*
X32666666Y-68952380D01*
X32476190Y-68952380D01*
X32380952Y-68904761D01*
X32333333Y-68809523D01*
X32333333Y-68428571D01*
X32380952Y-68333333D01*
X32476190Y-68285714D01*
X32666666Y-68285714D01*
X32761904Y-68333333D01*
X32809523Y-68428571D01*
X32809523Y-68523809D01*
X32333333Y-68619047D01*
X33238095Y-68952380D02*
X33238095Y-68285714D01*
X33238095Y-68476190D02*
X33285714Y-68380952D01*
X33333333Y-68333333D01*
X33428571Y-68285714D01*
X33523809Y-68285714D01*
X34619047Y-68285714D02*
X34619047Y-69285714D01*
X34619047Y-68333333D02*
X34714285Y-68285714D01*
X34904761Y-68285714D01*
X35000000Y-68333333D01*
X35047619Y-68380952D01*
X35095238Y-68476190D01*
X35095238Y-68761904D01*
X35047619Y-68857142D01*
X35000000Y-68904761D01*
X34904761Y-68952380D01*
X34714285Y-68952380D01*
X34619047Y-68904761D01*
X35666666Y-68952380D02*
X35571428Y-68904761D01*
X35523809Y-68857142D01*
X35476190Y-68761904D01*
X35476190Y-68476190D01*
X35523809Y-68380952D01*
X35571428Y-68333333D01*
X35666666Y-68285714D01*
X35809523Y-68285714D01*
X35904761Y-68333333D01*
X35952380Y-68380952D01*
X36000000Y-68476190D01*
X36000000Y-68761904D01*
X35952380Y-68857142D01*
X35904761Y-68904761D01*
X35809523Y-68952380D01*
X35666666Y-68952380D01*
X36428571Y-68952380D02*
X36428571Y-68285714D01*
X36428571Y-68476190D02*
X36476190Y-68380952D01*
X36523809Y-68333333D01*
X36619047Y-68285714D01*
X36714285Y-68285714D01*
X36904761Y-68285714D02*
X37285714Y-68285714D01*
X37047619Y-67952380D02*
X37047619Y-68809523D01*
X37095238Y-68904761D01*
X37190476Y-68952380D01*
X37285714Y-68952380D01*
X38380952Y-68952380D02*
X38380952Y-68285714D01*
X38380952Y-68380952D02*
X38428571Y-68333333D01*
X38523809Y-68285714D01*
X38666666Y-68285714D01*
X38761904Y-68333333D01*
X38809523Y-68428571D01*
X38809523Y-68952380D01*
X38809523Y-68428571D02*
X38857142Y-68333333D01*
X38952380Y-68285714D01*
X39095238Y-68285714D01*
X39190476Y-68333333D01*
X39238095Y-68428571D01*
X39238095Y-68952380D01*
X39714285Y-68952380D02*
X39714285Y-68285714D01*
X39714285Y-67952380D02*
X39666666Y-68000000D01*
X39714285Y-68047619D01*
X39761904Y-68000000D01*
X39714285Y-67952380D01*
X39714285Y-68047619D01*
X40190476Y-68952380D02*
X40190476Y-68285714D01*
X40190476Y-68476190D02*
X40238095Y-68380952D01*
X40285714Y-68333333D01*
X40380952Y-68285714D01*
X40476190Y-68285714D01*
X40809523Y-68952380D02*
X40809523Y-68285714D01*
X40809523Y-68476190D02*
X40857142Y-68380952D01*
X40904761Y-68333333D01*
X41000000Y-68285714D01*
X41095238Y-68285714D01*
X41571428Y-68952380D02*
X41476190Y-68904761D01*
X41428571Y-68857142D01*
X41380952Y-68761904D01*
X41380952Y-68476190D01*
X41428571Y-68380952D01*
X41476190Y-68333333D01*
X41571428Y-68285714D01*
X41714285Y-68285714D01*
X41809523Y-68333333D01*
X41857142Y-68380952D01*
X41904761Y-68476190D01*
X41904761Y-68761904D01*
X41857142Y-68857142D01*
X41809523Y-68904761D01*
X41714285Y-68952380D01*
X41571428Y-68952380D01*
X42333333Y-68952380D02*
X42333333Y-68285714D01*
X42333333Y-68476190D02*
X42380952Y-68380952D01*
X42428571Y-68333333D01*
X42523809Y-68285714D01*
X42619047Y-68285714D01*
%TO.C,J4*%
X32641666Y-64427380D02*
X32641666Y-65141666D01*
X32594047Y-65284523D01*
X32498809Y-65379761D01*
X32355952Y-65427380D01*
X32260714Y-65427380D01*
X33546428Y-64760714D02*
X33546428Y-65427380D01*
X33308333Y-64379761D02*
X33070238Y-65094047D01*
X33689285Y-65094047D01*
%TO.C,R1*%
X56633333Y-16552380D02*
X56300000Y-16076190D01*
X56061904Y-16552380D02*
X56061904Y-15552380D01*
X56442857Y-15552380D01*
X56538095Y-15600000D01*
X56585714Y-15647619D01*
X56633333Y-15742857D01*
X56633333Y-15885714D01*
X56585714Y-15980952D01*
X56538095Y-16028571D01*
X56442857Y-16076190D01*
X56061904Y-16076190D01*
X57585714Y-16552380D02*
X57014285Y-16552380D01*
X57300000Y-16552380D02*
X57300000Y-15552380D01*
X57204761Y-15695238D01*
X57109523Y-15790476D01*
X57014285Y-15838095D01*
D12*
%TO.C,R3*%
X25930000Y-68930000D02*
X25930000Y-75470000D01*
X27300000Y-68160000D02*
X27300000Y-68930000D01*
X27300000Y-76240000D02*
X27300000Y-75470000D01*
X28670000Y-68930000D02*
X25930000Y-68930000D01*
X28670000Y-75470000D02*
X28670000Y-68930000D01*
X25930000Y-75470000D02*
X28670000Y-75470000D01*
D11*
%TO.C,J3*%
X43950000Y-23700000D02*
X56250000Y-23700000D01*
X56250000Y-23700000D02*
X56250000Y-56000000D01*
X43950000Y-23700000D02*
X43950000Y-56000000D01*
X50100000Y-62200203D02*
G75*
G03*
X56250000Y-56000000I0J6150203D01*
G01*
X43950203Y-56000002D02*
G75*
G03*
X50100000Y-62200000I6149797J-49998D01*
G01*
D12*
%TO.C,R2*%
X25470000Y-68930000D02*
X22730000Y-68930000D01*
X24100000Y-68160000D02*
X24100000Y-68930000D01*
X25470000Y-75470000D02*
X25470000Y-68930000D01*
X24100000Y-76240000D02*
X24100000Y-75470000D01*
X22730000Y-68930000D02*
X22730000Y-75470000D01*
X22730000Y-75470000D02*
X25470000Y-75470000D01*
%TO.C,D1*%
X62545000Y-68210000D02*
X59455000Y-68210000D01*
X60999538Y-73760000D02*
G75*
G03*
X62544830Y-68210000I462J2990000D01*
G01*
X59455170Y-68210000D02*
G75*
G03*
X61000462Y-73760000I1544830J-2560000D01*
G01*
X63500000Y-70770000D02*
G75*
G03*
X63500000Y-70770000I-2500000J0D01*
G01*
%TO.C,J1*%
X35180000Y-92515000D02*
X34420000Y-92515000D01*
X42800000Y-86515000D02*
X42800000Y-92515000D01*
X50360000Y-86515000D02*
X50360000Y-92515000D01*
X51370000Y-86515000D02*
X51370000Y-83855000D01*
X44580000Y-92515000D02*
X44580000Y-86515000D01*
X31880000Y-83457929D02*
X31880000Y-83855000D01*
X50120000Y-86515000D02*
X50120000Y-92515000D01*
X35180000Y-83457929D02*
X35180000Y-83855000D01*
X47880000Y-83457929D02*
X47880000Y-83855000D01*
X49880000Y-86515000D02*
X49880000Y-92515000D01*
X36960000Y-92515000D02*
X36960000Y-86515000D01*
X39500000Y-92515000D02*
X39500000Y-86515000D01*
X45340000Y-80917929D02*
X45340000Y-81372071D01*
X45340000Y-83457929D02*
X45340000Y-83855000D01*
X34420000Y-80917929D02*
X34420000Y-81372071D01*
X50420000Y-83457929D02*
X50420000Y-83855000D01*
X49660000Y-83457929D02*
X49660000Y-83855000D01*
X42040000Y-80917929D02*
X42040000Y-81372071D01*
X49760000Y-86515000D02*
X49760000Y-92515000D01*
X42800000Y-92515000D02*
X42040000Y-92515000D01*
X44580000Y-83457929D02*
X44580000Y-83855000D01*
X50420000Y-86515000D02*
X50420000Y-92515000D01*
X40260000Y-83457929D02*
X40260000Y-83855000D01*
X50420000Y-92515000D02*
X49660000Y-92515000D01*
X30930000Y-83855000D02*
X30930000Y-86515000D01*
X42800000Y-83457929D02*
X42800000Y-83855000D01*
X45340000Y-86515000D02*
X45340000Y-92515000D01*
X35180000Y-86515000D02*
X35180000Y-92515000D01*
X32640000Y-80917929D02*
X32640000Y-81372071D01*
X42800000Y-80917929D02*
X42800000Y-81372071D01*
X50040000Y-78605000D02*
X51310000Y-78605000D01*
X32640000Y-83457929D02*
X32640000Y-83855000D01*
X42040000Y-92515000D02*
X42040000Y-86515000D01*
X42040000Y-83457929D02*
X42040000Y-83855000D01*
X32640000Y-86515000D02*
X32640000Y-92515000D01*
X49660000Y-92515000D02*
X49660000Y-86515000D01*
X43690000Y-83855000D02*
X43690000Y-86515000D01*
X31880000Y-80917929D02*
X31880000Y-81372071D01*
X50420000Y-80985000D02*
X50420000Y-81372071D01*
X46230000Y-83855000D02*
X46230000Y-86515000D01*
X35180000Y-80917929D02*
X35180000Y-81372071D01*
X40260000Y-86515000D02*
X40260000Y-92515000D01*
X47120000Y-92515000D02*
X47120000Y-86515000D01*
X40260000Y-92515000D02*
X39500000Y-92515000D01*
X37720000Y-80917929D02*
X37720000Y-81372071D01*
X31880000Y-92515000D02*
X31880000Y-86515000D01*
X34420000Y-83457929D02*
X34420000Y-83855000D01*
X36960000Y-80917929D02*
X36960000Y-81372071D01*
X47120000Y-83457929D02*
X47120000Y-83855000D01*
X47880000Y-86515000D02*
X47880000Y-92515000D01*
X38610000Y-83855000D02*
X38610000Y-86515000D01*
X49660000Y-80985000D02*
X49660000Y-81372071D01*
X41150000Y-83855000D02*
X41150000Y-86515000D01*
X36960000Y-83457929D02*
X36960000Y-83855000D01*
X48770000Y-83855000D02*
X48770000Y-86515000D01*
X50240000Y-86515000D02*
X50240000Y-92515000D01*
X36070000Y-83855000D02*
X36070000Y-86515000D01*
X37720000Y-92515000D02*
X36960000Y-92515000D01*
X37720000Y-86515000D02*
X37720000Y-92515000D01*
X45340000Y-92515000D02*
X44580000Y-92515000D01*
X51370000Y-83855000D02*
X30930000Y-83855000D01*
X30930000Y-86515000D02*
X51370000Y-86515000D01*
X47880000Y-80917929D02*
X47880000Y-81372071D01*
X47880000Y-92515000D02*
X47120000Y-92515000D01*
X39500000Y-80917929D02*
X39500000Y-81372071D01*
X51310000Y-78605000D02*
X51310000Y-79875000D01*
X37720000Y-83457929D02*
X37720000Y-83855000D01*
X50000000Y-86515000D02*
X50000000Y-92515000D01*
X39500000Y-83457929D02*
X39500000Y-83855000D01*
X34420000Y-92515000D02*
X34420000Y-86515000D01*
X47120000Y-80917929D02*
X47120000Y-81372071D01*
X33530000Y-83855000D02*
X33530000Y-86515000D01*
X40260000Y-80917929D02*
X40260000Y-81372071D01*
X32640000Y-92515000D02*
X31880000Y-92515000D01*
X44580000Y-80917929D02*
X44580000Y-81372071D01*
%TO.C,R5*%
X55800000Y-71860000D02*
X55800000Y-72630000D01*
X57170000Y-79170000D02*
X57170000Y-72630000D01*
X57170000Y-72630000D02*
X54430000Y-72630000D01*
X55800000Y-79940000D02*
X55800000Y-79170000D01*
X54430000Y-72630000D02*
X54430000Y-79170000D01*
X54430000Y-79170000D02*
X57170000Y-79170000D01*
%TO.C,R4*%
X36270000Y-17470000D02*
X36270000Y-14730000D01*
X29730000Y-14730000D02*
X29730000Y-17470000D01*
X36270000Y-14730000D02*
X29730000Y-14730000D01*
X28960000Y-16100000D02*
X29730000Y-16100000D01*
X37040000Y-16100000D02*
X36270000Y-16100000D01*
X29730000Y-17470000D02*
X36270000Y-17470000D01*
%TO.C,J2*%
X48730000Y-69920000D02*
X48730000Y-72520000D01*
X48730000Y-72520000D02*
X51330000Y-72520000D01*
X30890000Y-69920000D02*
X30890000Y-75120000D01*
X48730000Y-69920000D02*
X30890000Y-69920000D01*
X50000000Y-69920000D02*
X51330000Y-69920000D01*
X51330000Y-75120000D02*
X30890000Y-75120000D01*
X51330000Y-69920000D02*
X51330000Y-71250000D01*
X51330000Y-72520000D02*
X51330000Y-75120000D01*
D11*
%TO.C,J4*%
X26825000Y-61775000D02*
X26825000Y-29475000D01*
X39125000Y-61775000D02*
X26825000Y-61775000D01*
X39125000Y-61775000D02*
X39125000Y-29475000D01*
X32975000Y-23274797D02*
G75*
G03*
X26825000Y-29475000I0J-6150203D01*
G01*
X39124797Y-29474998D02*
G75*
G03*
X32975000Y-23275000I-6149797J49998D01*
G01*
D12*
%TO.C,R1*%
X46210000Y-17470000D02*
X52750000Y-17470000D01*
X52750000Y-17470000D02*
X52750000Y-14730000D01*
X45440000Y-16100000D02*
X46210000Y-16100000D01*
X46210000Y-14730000D02*
X46210000Y-17470000D01*
X52750000Y-14730000D02*
X46210000Y-14730000D01*
X53520000Y-16100000D02*
X52750000Y-16100000D01*
%TD*%
M02*
